<svg width="32" height="32" viewBox="0 0 32 32" fill="none" xmlns="http://www.w3.org/2000/svg">
<path d="M0 16C0 8.45753 0 4.68629 2.34315 2.34315C4.68629 0 8.45753 0 16 0C23.5425 0 27.3137 0 29.6569 2.34315C32 4.68629 32 8.45753 32 16C32 23.5425 32 27.3137 29.6569 29.6569C27.3137 32 23.5425 32 16 32C8.45753 32 4.68629 32 2.34315 29.6569C0 27.3137 0 23.5425 0 16Z" fill="#2A2A2A"/>
<path fill-rule="evenodd" clip-rule="evenodd" d="M16.0002 9.25C14.3433 9.25 13.0002 10.5931 13.0002 12.25C13.0002 13.9069 14.3433 15.25 16.0002 15.25C17.657 15.25 19.0002 13.9069 19.0002 12.25C19.0002 10.5931 17.657 9.25 16.0002 9.25ZM14.5002 12.25C14.5002 11.4216 15.1717 10.75 16.0002 10.75C16.8286 10.75 17.5002 11.4216 17.5002 12.25C17.5002 13.0784 16.8286 13.75 16.0002 13.75C15.1717 13.75 14.5002 13.0784 14.5002 12.25Z" fill="white"/>
<path fill-rule="evenodd" clip-rule="evenodd" d="M16.0002 22C15.1475 22 13.9181 21.7985 12.985 21.3697C12.5274 21.1594 12.0363 20.8474 11.7466 20.3807C11.5937 20.1343 11.4971 19.8438 11.5002 19.5206C11.5034 19.2004 11.6038 18.8967 11.7682 18.6185C12.5201 17.346 14.0798 16 16.0002 16C17.9205 16 19.4803 17.346 20.2321 18.6185C20.3965 18.8967 20.497 19.2004 20.5001 19.5206C20.5033 19.8438 20.4066 20.1343 20.2537 20.3807C19.964 20.8474 19.473 21.1594 19.0153 21.3697C18.0823 21.7985 16.8528 22 16.0002 22ZM13.0596 19.3815C13.0022 19.4787 13.0002 19.527 13.0002 19.5352C13.0001 19.5406 12.9999 19.5556 13.0211 19.5897C13.0807 19.6856 13.2536 19.8423 13.6114 20.0067C14.3094 20.3275 15.3168 20.5 16.0002 20.5C16.6835 20.5 17.691 20.3275 18.3889 20.0067C18.7467 19.8423 18.9197 19.6856 18.9792 19.5897C19.0004 19.5556 19.0002 19.541 19.0002 19.5356C19.0001 19.5274 18.9982 19.4787 18.9407 19.3815C18.3578 18.395 17.2178 17.5 16.0002 17.5C14.7825 17.5 13.6425 18.395 13.0596 19.3815Z" fill="white"/>
<path fill-rule="evenodd" clip-rule="evenodd" d="M8.87517 14.5C8.87517 13.2574 9.88253 12.25 11.1252 12.25C12.3678 12.25 13.3752 13.2574 13.3752 14.5C13.3752 15.7426 12.3678 16.75 11.1252 16.75C9.88253 16.75 8.87517 15.7426 8.87517 14.5ZM11.1252 13.75C10.711 13.75 10.3752 14.0858 10.3752 14.5C10.3752 14.9142 10.711 15.25 11.1252 15.25C11.5394 15.25 11.8752 14.9142 11.8752 14.5C11.8752 14.0858 11.5394 13.75 11.1252 13.75Z" fill="white"/>
<path d="M9.17197 20.0834C8.98781 20.4545 8.53775 20.606 8.16672 20.4218C7.7957 20.2376 7.64421 19.7876 7.82837 19.4166C8.1039 18.8614 8.52096 18.304 9.0456 17.8776C9.57045 17.4509 10.243 17.125 11.0105 17.125C11.4248 17.125 11.7605 17.4608 11.7605 17.875C11.7605 18.2892 11.4248 18.625 11.0105 18.625C10.6798 18.625 10.3307 18.766 9.99177 19.0415C9.65258 19.3172 9.36359 19.6974 9.17197 20.0834Z" fill="white"/>
<path fill-rule="evenodd" clip-rule="evenodd" d="M18.8577 14.5C18.8577 13.2574 19.8651 12.25 21.1077 12.25C22.3504 12.25 23.3577 13.2574 23.3577 14.5C23.3577 15.7426 22.3504 16.75 21.1077 16.75C19.8651 16.75 18.8577 15.7426 18.8577 14.5ZM21.1077 13.75C20.6935 13.75 20.3577 14.0858 20.3577 14.5C20.3577 14.9142 20.6935 15.25 21.1077 15.25C21.5219 15.25 21.8577 14.9142 21.8577 14.5C21.8577 14.0858 21.5219 13.75 21.1077 13.75Z" fill="white"/>
<path d="M24.1753 19.4166C24.3594 19.7876 24.2079 20.2376 23.8369 20.4218C23.4659 20.606 23.0158 20.4545 22.8317 20.0834C22.64 19.6974 22.3511 19.3172 22.0119 19.0415C21.6729 18.766 21.3238 18.625 20.9931 18.625C20.5789 18.625 20.2431 18.2892 20.2431 17.875C20.2431 17.4608 20.5789 17.125 20.9931 17.125C21.7606 17.125 22.4332 17.4509 22.958 17.8776C23.4827 18.304 23.8997 18.8614 24.1753 19.4166Z" fill="white"/>
</svg>
