<svg width="32" height="32" viewBox="0 0 32 32" fill="none" xmlns="http://www.w3.org/2000/svg">
<path d="M0 16C0 8.45753 0 4.68629 2.34315 2.34315C4.68629 0 8.45753 0 16 0C23.5425 0 27.3137 0 29.6569 2.34315C32 4.68629 32 8.45753 32 16C32 23.5425 32 27.3137 29.6569 29.6569C27.3137 32 23.5425 32 16 32C8.45753 32 4.68629 32 2.34315 29.6569C0 27.3137 0 23.5425 0 16Z" fill="#2A2A2A"/>
<path fill-rule="evenodd" clip-rule="evenodd" d="M12.25 12.25C12.25 10.1789 13.9289 8.5 16 8.5C18.0711 8.5 19.75 10.1789 19.75 12.25C19.75 14.3211 18.0711 16 16 16C13.9289 16 12.25 14.3211 12.25 12.25ZM16 10C14.7574 10 13.75 11.0074 13.75 12.25C13.75 13.4926 14.7574 14.5 16 14.5C17.2426 14.5 18.25 13.4926 18.25 12.25C18.25 11.0074 17.2426 10 16 10Z" fill="white"/>
<path fill-rule="evenodd" clip-rule="evenodd" d="M11.9166 23.438C13.1724 23.9877 14.8446 24.25 16 24.25C17.1554 24.25 18.8276 23.9877 20.0834 23.438C20.6999 23.1682 21.3269 22.782 21.6912 22.2231C21.8828 21.9291 22.0039 21.5828 21.9999 21.1962C21.996 20.8131 21.8699 20.4461 21.6581 20.1046C20.631 18.4492 18.5299 16.75 16 16.75C13.4701 16.75 11.369 18.4492 10.3419 20.1046C10.1301 20.4461 10.004 20.8131 10.0001 21.1962C9.99612 21.5828 10.1172 21.9291 10.3088 22.2231C10.6731 22.782 11.3001 23.1682 11.9166 23.438ZM11.5 21.2116C11.5006 21.1568 11.5178 21.0546 11.6165 20.8954C12.4582 19.5389 14.1367 18.25 16 18.25C17.8632 18.25 19.5418 19.5389 20.3835 20.8954C20.4822 21.0546 20.4994 21.1568 20.5 21.2116C20.5005 21.2628 20.4874 21.323 20.4345 21.4041C20.3098 21.5954 20.0072 21.834 19.482 22.0639C18.4544 22.5136 16.9951 22.75 16 22.75C15.0049 22.75 13.5456 22.5136 12.518 22.0639C11.9928 21.834 11.6902 21.5954 11.5655 21.4041C11.5126 21.323 11.4995 21.2628 11.5 21.2116Z" fill="white"/>
<path d="M22.75 9.25C22.75 8.83579 22.4142 8.5 22 8.5C21.5858 8.5 21.25 8.83579 21.25 9.25V10H20.5C20.0858 10 19.75 10.3358 19.75 10.75C19.75 11.1642 20.0858 11.5 20.5 11.5H21.25V12.25C21.25 12.6642 21.5858 13 22 13C22.4142 13 22.75 12.6642 22.75 12.25V11.5H23.5C23.9142 11.5 24.25 11.1642 24.25 10.75C24.25 10.3358 23.9142 10 23.5 10H22.75V9.25Z" fill="white"/>
</svg>
