<svg width="32" height="32" viewBox="0 0 32 32" fill="none" xmlns="http://www.w3.org/2000/svg">
<g clip-path="url(#clip0_7_54310)">
<path d="M32 15.9605C32 20.1218 30.3894 23.9144 27.7756 26.7588C27.6436 26.9169 27.5116 27.0486 27.3531 27.2066C26.7987 27.7597 26.2178 28.2601 25.6106 28.7342C24.7393 29.3926 23.7888 29.9457 22.8119 30.4198C22.6535 30.4988 22.4686 30.5778 22.3102 30.6568C21.7294 30.8938 21.1485 31.1309 20.5149 31.2889C20.198 31.3942 19.8812 31.4733 19.5644 31.5523C18.429 31.8156 17.2673 31.9473 16.0528 31.9473H16C14.8911 31.9473 13.835 31.842 12.7789 31.6313C12.33 31.5523 11.9076 31.4206 11.4851 31.3152C10.8779 31.1309 10.2706 30.9202 9.68977 30.6831C9.55776 30.6305 9.39934 30.5514 9.26733 30.4988C8.26403 30.0247 7.31353 29.4716 6.41584 28.8132C5.78218 28.3391 5.17492 27.8123 4.62046 27.2593C4.48845 27.1276 4.33003 26.9695 4.19802 26.8115C1.61056 23.9407 0 20.1481 0 15.9605C0 7.13745 7.15512 0 16 0C24.8449 0 32 7.13745 32 15.9605Z" fill="#9DD961"/>
<path d="M25.9211 15.6332C26.5347 15.1263 26.4813 14.2459 26.1612 13.4989C25.841 12.7519 25.014 12.2717 24.2136 12.3784C24.8539 11.9248 24.7739 11.0178 24.4004 10.3241C24.0269 9.63048 23.1198 9.28366 22.3995 9.55044C23.0931 9.01687 23.0931 8.1098 22.6663 7.3628C22.4795 7.04266 22.1861 6.80255 21.8659 6.64248C21.6792 5.92216 21.2523 5.2552 20.6654 4.80166C20.1852 4.45484 19.5983 4.26809 18.9846 4.21473C18.291 3.73452 17.4106 3.46773 16.6636 3.81455C14.556 3.06755 12.0215 3.68116 10.5275 5.33523C10.2874 5.60202 10.0473 5.92216 9.96729 6.29566C9.91394 6.66916 10.074 7.09602 10.4208 7.22941C9.48708 6.77587 8.66004 7.12269 7.93972 7.89637C7.2194 8.64337 7.05933 9.89726 7.56622 10.8043C6.76587 10.831 6.0989 11.7648 5.91215 12.5651C5.7254 13.3388 6.0989 14.2459 6.81922 14.6194C5.83212 14.7261 5.45862 16.0867 5.75208 17.0471C5.93883 17.6607 6.55244 18.0876 7.19272 18.1943C6.63247 18.4611 6.15226 18.9946 5.93883 19.5015C5.59201 20.3286 5.8588 21.369 6.6058 21.8759C7.32612 22.4095 8.41994 22.3295 9.0869 21.7425C8.87347 22.3561 9.32701 23.2099 9.91394 23.53C10.5009 23.8235 11.2212 23.7701 11.8348 23.5033C12.4484 23.2365 12.982 22.8097 13.4889 22.4095C13.2754 22.5429 13.5956 22.863 13.6756 23.0765C13.7823 23.3166 13.9691 23.4766 14.1825 23.5834C15.383 24.277 17.0905 23.8768 17.8375 22.703C17.8108 23.53 18.4244 24.3037 19.2514 24.3304C20.0785 24.357 20.8521 23.61 20.8521 22.783C21.3857 23.5834 22.3728 23.7968 23.1198 23.2099C23.8668 22.6229 23.9735 21.369 23.3333 20.6487C24.0269 21.2623 25.2541 21.6625 25.841 20.9155C26.428 20.1685 26.2412 18.968 25.4675 18.4344C26.3212 18.6212 27.335 18.2743 27.4417 17.3939C27.5485 16.5669 26.8015 15.6598 25.9211 15.6332Z" fill="#2E2E2E"/>
<path d="M19.0646 25.6376C19.118 27.3984 17.7307 28.8657 16.0233 28.8657C14.3425 28.8657 12.9819 27.4518 12.9819 25.7443C12.9819 25.7177 12.9819 25.6643 12.9819 25.6376L13.3288 20.9689L13.3821 20.3553L13.5955 17.4473H18.5044L18.7178 20.462L18.7712 21.1289L19.0646 25.6376Z" fill="#F5F5FF" stroke="#2E2E2E" stroke-width="0.213428" stroke-miterlimit="10" stroke-linecap="round" stroke-linejoin="round"/>
<path d="M18.9046 23.3433C17.3572 23.53 15.6231 22.783 14.4226 21.289C13.9424 20.6754 13.6222 20.0084 13.4088 19.3148L13.5422 17.4473H18.4511L18.6645 20.462L18.7178 21.1289L18.9046 23.3433Z" fill="#2E2E2E"/>
<path d="M20.5583 13.072C19.9447 14.0591 19.9981 15.233 20.6917 15.6865C21.3854 16.14 22.4525 15.7132 23.0661 14.7261C23.6797 13.739 23.6264 12.5651 22.9327 12.1116C22.2124 11.6581 21.172 12.0849 20.5583 13.072Z" fill="#F5F5FF" stroke="#2E2E2E" stroke-width="0.213428" stroke-miterlimit="10" stroke-linecap="round" stroke-linejoin="round"/>
<path d="M22.3992 12.5918C22.6926 12.6985 22.9327 12.992 22.9861 13.3121C23.0395 13.6323 22.9061 13.9791 22.6393 14.1658" stroke="#2E2E2E" stroke-width="0.213428" stroke-miterlimit="10" stroke-linecap="round" stroke-linejoin="round"/>
<path d="M11.4077 13.072C12.0213 14.0591 11.9679 15.233 11.2743 15.6865C10.5806 16.14 9.51351 15.7132 8.8999 14.7261C8.28629 13.739 8.33965 12.5651 9.03329 12.1116C9.75361 11.658 10.7941 12.0849 11.4077 13.072Z" fill="#F5F5FF" stroke="#2E2E2E" stroke-width="0.213428" stroke-miterlimit="10" stroke-linecap="round" stroke-linejoin="round"/>
<path d="M9.56678 12.5918C9.27332 12.6985 9.03321 12.992 8.97986 13.3121C8.9265 13.6323 9.05989 13.9791 9.32668 14.1658" stroke="#2E2E2E" stroke-width="0.213428" stroke-miterlimit="10" stroke-linecap="round" stroke-linejoin="round"/>
<path d="M22.1326 11.2312C22.1326 11.3112 22.1326 11.4179 22.1326 11.498C22.1326 11.7648 22.1059 12.0049 22.0525 12.2716L22.0259 12.6185L21.9992 12.8052L21.9725 13.0987C21.9458 13.2588 21.9458 13.4455 21.9191 13.6056C21.9191 13.7123 21.8925 13.819 21.8925 13.9257C21.8658 14.3526 21.8391 14.7794 21.7858 15.2063V15.233C21.7591 15.313 21.7591 15.393 21.7324 15.4731C21.7057 15.5531 21.7057 15.6598 21.679 15.7399C21.6524 15.8733 21.599 16.0066 21.5723 16.1134C21.5457 16.1667 21.5456 16.1934 21.519 16.2468C21.4923 16.3535 21.4389 16.4335 21.4123 16.5402C21.3055 16.7803 21.1721 17.0204 21.0121 17.2872C20.3718 18.301 19.3847 19.2081 18.4243 19.8217C18.4243 19.8217 18.4243 19.8217 18.3976 19.8217C18.2909 19.9017 18.1575 19.9818 18.0508 20.0351C16.8502 20.7021 15.4363 20.7288 14.209 20.1685C13.9423 20.0618 13.7022 19.9284 13.462 19.7683C12.5016 19.1547 11.7013 18.2743 11.0877 17.2872C11.0343 17.2072 11.0076 17.1538 10.9543 17.0738C10.9276 17.0471 10.9009 16.9938 10.9009 16.9671C10.8742 16.9137 10.8209 16.8337 10.7942 16.7803C10.6875 16.6203 10.6074 16.4335 10.5274 16.2734C10.5007 16.2201 10.4741 16.1667 10.4741 16.14C10.1806 15.4464 10.0739 14.6727 10.0205 13.9257C10.0205 13.819 9.99384 13.6856 9.99384 13.5789C9.99384 13.4455 9.96716 13.3121 9.96716 13.1787L9.9138 12.8052C9.9138 12.7785 9.88712 12.7252 9.88712 12.6985C9.88712 12.6451 9.86044 12.6185 9.86044 12.5651C9.83376 12.405 9.80709 12.245 9.78041 12.0849C9.75373 11.8181 9.72705 11.5246 9.72705 11.2312C9.72705 11.2045 9.72705 11.1778 9.72705 11.1511C9.72705 10.9644 9.72705 10.7776 9.75373 10.6176C9.78041 10.4575 9.78041 10.3241 9.80709 10.164C9.94048 9.25697 10.2606 8.42994 10.7142 7.70962C10.8209 7.52287 10.9543 7.36279 11.0877 7.17604C12.3949 5.4953 14.6359 4.50819 16.9036 4.85501C18.7444 5.14848 20.2117 6.26897 21.1188 7.73629C21.1455 7.76297 21.1721 7.81633 21.1988 7.84301C21.599 8.53665 21.8925 9.31033 22.0259 10.1374C22.0259 10.1374 22.0259 10.1374 22.0259 10.164C22.0525 10.2974 22.0792 10.4575 22.0792 10.6176C22.1059 10.8043 22.1059 10.9644 22.1059 11.1511C22.1326 11.1778 22.1326 11.2045 22.1326 11.2312Z" fill="#F5F5FF" stroke="#2E2E2E" stroke-width="0.217099" stroke-miterlimit="10" stroke-linecap="round" stroke-linejoin="round"/>
<path d="M16.7167 3.97462C17.3837 4.58823 17.5438 5.60202 17.0902 6.37569C16.6367 7.12269 15.6229 7.54955 14.7425 7.30944C15.0093 7.70962 14.7959 8.34991 14.5024 8.75009C14.209 9.15026 13.6487 9.33701 13.1685 9.2303C13.5953 10.5375 12.7416 12.0582 11.4877 12.7519C11.8346 13.3922 11.6478 14.4326 11.301 15.0729C10.9542 15.7132 10.2605 16.1667 9.51353 16.2734C10.0204 16.8337 10.1805 17.7141 9.91371 18.4077C9.64692 19.1014 8.97996 19.6349 8.23296 19.7417C7.61935 19.8484 6.6856 19.6883 6.39214 19.1547C6.12535 18.6212 6.28542 17.9008 6.79232 17.5273C6.49885 16.9404 6.33878 16.4068 6.28542 15.7665C6.23207 14.9662 6.39214 14.1658 6.87235 13.4989C7.32589 12.8319 8.09957 12.3517 8.9266 12.2983C8.20628 11.2845 8.04621 10.084 8.5531 8.96351C9.08667 7.84301 10.2339 7.01598 11.4877 6.82923C11.4877 6.13559 11.7545 5.44194 12.3148 5.01509C12.875 4.56155 13.6754 4.40148 14.3957 4.53487C14.5825 4.10802 15.2494 3.86791 15.703 3.78787C16.1832 3.70784 16.6901 3.89459 16.9835 4.24141L16.7167 3.97462Z" fill="#2E2E2E"/>
<path d="M17.2769 4.29477C16.7967 5.14849 16.8233 6.24231 17.3569 7.06934C17.8905 7.89638 18.8776 8.37659 19.838 8.29656C19.3845 8.80345 19.4645 9.63049 19.8914 10.1641C20.3182 10.6976 21.1186 10.8577 21.7055 10.5376C21.4121 10.7777 21.0919 11.1778 21.0652 11.578C21.0386 11.9782 21.252 12.4051 21.6255 12.5118C21.999 12.6185 22.4792 12.3517 22.4792 11.9515C22.4792 10.831 23.1728 9.79056 22.7993 8.75009C22.4258 7.70963 21.5988 6.82924 20.5583 6.42906C20.1848 4.98842 18.7442 4.2681 17.2769 4.29477Z" fill="#2E2E2E"/>
<path d="M13.062 15.8466C14.2702 15.8466 15.2497 14.8671 15.2497 13.6589C15.2497 12.4507 14.2702 11.4713 13.062 11.4713C11.8538 11.4713 10.8744 12.4507 10.8744 13.6589C10.8744 14.8671 11.8538 15.8466 13.062 15.8466Z" stroke="#2E2E2E" stroke-width="0.213428" stroke-miterlimit="10" stroke-linecap="round" stroke-linejoin="round"/>
<path d="M19.038 15.8466C20.2462 15.8466 21.2256 14.8671 21.2256 13.6589C21.2256 12.4507 20.2462 11.4713 19.038 11.4713C17.8298 11.4713 16.8503 12.4507 16.8503 13.6589C16.8503 14.8671 17.8298 15.8466 19.038 15.8466Z" stroke="#2E2E2E" stroke-width="0.213428" stroke-miterlimit="10" stroke-linecap="round" stroke-linejoin="round"/>
<path d="M15.223 13.4188C15.4631 13.2854 15.7299 13.2054 16.0501 13.2054C16.3435 13.2054 16.637 13.2854 16.8771 13.4188" stroke="#2E2E2E" stroke-width="0.213428" stroke-miterlimit="10" stroke-linecap="round" stroke-linejoin="round"/>
<path d="M10.8744 13.6589L9.64722 12.0315" stroke="#2E2E2E" stroke-width="0.213428" stroke-miterlimit="10" stroke-linecap="round" stroke-linejoin="round"/>
<path d="M21.1724 13.6589L22.3996 12.0315" stroke="#2E2E2E" stroke-width="0.213428" stroke-miterlimit="10" stroke-linecap="round" stroke-linejoin="round"/>
<path d="M17.0638 11.4446C17.1972 11.1512 17.4373 10.911 17.7041 10.751C17.9976 10.5909 18.2911 10.5109 18.6112 10.5109C18.9313 10.5109 19.2515 10.5642 19.5449 10.6976C19.8384 10.831 20.1052 11.0444 20.2386 11.3379L19.3849 11.3112C19.1181 11.3112 18.878 11.3112 18.6379 11.3112C18.3978 11.3112 18.1577 11.3379 17.8909 11.3646C17.6508 11.3913 17.384 11.4179 17.0638 11.4446Z" fill="#2E2E2E"/>
<path d="M14.9829 11.4446C14.6628 11.4179 14.396 11.3913 14.1292 11.3646C13.8624 11.3379 13.6223 11.3379 13.3822 11.3112C13.1421 11.3112 12.902 11.3112 12.6352 11.3112L11.7815 11.3379C11.9416 11.0444 12.2084 10.831 12.4751 10.6976C12.7686 10.5642 13.0887 10.5109 13.4089 10.5109C13.729 10.5109 14.0492 10.6176 14.316 10.751C14.6094 10.911 14.8495 11.1512 14.9829 11.4446Z" fill="#2E2E2E"/>
<path d="M17.2236 13.6056C17.277 13.4722 17.357 13.3655 17.4104 13.2321C17.5705 12.992 17.7572 12.7785 17.9973 12.6452C18.2374 12.4851 18.5576 12.4317 18.851 12.4317C19.1445 12.4584 19.438 12.5384 19.6781 12.6718C19.8115 12.7519 19.9182 12.8319 20.0249 12.9386C20.1316 13.0453 20.2116 13.152 20.265 13.2854C20.265 13.3121 20.265 13.3655 20.2116 13.3655C20.185 13.3655 20.185 13.3655 20.1583 13.3655C20.0249 13.3121 19.9449 13.2321 19.8381 13.152C19.7314 13.072 19.6247 13.0187 19.518 12.9653C19.3046 12.8586 19.0645 12.7785 18.8244 12.7785C18.5843 12.7519 18.3441 12.8052 18.1307 12.9119C17.9173 13.0187 17.7305 13.1787 17.5438 13.3655C17.4638 13.4722 17.3837 13.6056 17.3037 13.7123C17.277 13.739 17.2503 13.739 17.2236 13.7123C17.2236 13.6589 17.197 13.6323 17.2236 13.6056Z" fill="#2E2E2E"/>
<path d="M18.2109 13.1254C18.2376 12.8586 18.4777 12.6452 18.7444 12.6718C19.0112 12.6985 19.2247 12.9386 19.198 13.2054C19.1713 13.4722 18.9312 13.6856 18.6644 13.6589C18.3976 13.6323 18.1842 13.3922 18.2109 13.1254Z" fill="#2E2E2E"/>
<path d="M19.678 13.5789C19.8647 13.5255 20.0248 13.4455 20.1849 13.3388" stroke="#2E2E2E" stroke-width="0.213428" stroke-miterlimit="10" stroke-linecap="round" stroke-linejoin="round"/>
<path d="M14.7426 13.6856C14.6626 13.5789 14.5826 13.4455 14.5025 13.3388C14.3424 13.152 14.129 12.992 13.9156 12.8853C13.7022 12.7785 13.4621 12.7252 13.2219 12.7519C12.9818 12.7785 12.7417 12.8319 12.5283 12.9386C12.4216 12.992 12.3149 13.072 12.2082 13.1254C12.1014 13.2054 12.0214 13.2854 11.888 13.3388C11.8613 13.3655 11.808 13.3388 11.808 13.3121C11.808 13.2854 11.808 13.2854 11.808 13.2588C11.8347 13.1254 11.9414 12.992 12.0481 12.9119C12.1548 12.8052 12.2615 12.7252 12.3949 12.6452C12.635 12.4851 12.9285 12.405 13.2219 12.405C13.5154 12.3784 13.8089 12.4584 14.0757 12.6185C14.3424 12.7519 14.5292 12.992 14.6626 13.2054C14.7159 13.3388 14.796 13.4455 14.8493 13.5789C14.8493 13.6056 14.8493 13.6323 14.8227 13.6589C14.7693 13.7123 14.7426 13.6856 14.7426 13.6856Z" fill="#2E2E2E"/>
<path d="M13.8356 13.1254C13.8089 12.8586 13.5688 12.6452 13.302 12.6718C13.0352 12.6985 12.8218 12.9386 12.8484 13.2054C12.8751 13.4722 13.1152 13.6856 13.382 13.6589C13.6755 13.6323 13.8622 13.3922 13.8356 13.1254Z" fill="#2E2E2E"/>
<path d="M12.3681 13.5789C12.1813 13.5255 12.0213 13.4455 11.8612 13.3388" stroke="#2E2E2E" stroke-width="0.213428" stroke-miterlimit="10" stroke-linecap="round" stroke-linejoin="round"/>
<path d="M15.1696 15.8199C15.383 15.5531 15.7031 15.393 16.0233 15.393C16.3434 15.393 16.6636 15.5531 16.877 15.7932" stroke="#2E2E2E" stroke-width="0.197976" stroke-miterlimit="10" stroke-linecap="round" stroke-linejoin="round"/>
<path d="M16.0766 17.6607C16.2901 17.6607 16.5035 17.634 16.7436 17.6074C16.797 17.6074 17.4639 17.5007 17.4639 17.474C17.4639 17.474 17.1171 17.2072 17.0104 17.1272L16.957 17.0738C16.8236 16.9671 16.7169 16.8604 16.5302 16.7803C16.3701 16.727 16.1567 16.7537 16.0499 16.8871C15.9432 16.7537 15.7298 16.727 15.5697 16.7537C15.4097 16.807 15.2763 16.9137 15.1429 17.0204L15.0895 17.0738C14.9828 17.1805 14.636 17.4206 14.636 17.4206C14.636 17.474 15.1962 17.5807 15.2496 17.5807C15.4897 17.6074 15.7298 17.634 15.9699 17.634C15.9966 17.6607 16.0233 17.6607 16.0766 17.6607Z" fill="#2E2E2E"/>
<path d="M15.2496 18.0876C15.7298 18.381 16.3968 18.381 16.877 18.1143L15.2496 18.0876Z" fill="#F5F5FF"/>
<path d="M15.2496 18.0876C15.7298 18.381 16.3968 18.381 16.877 18.1143" stroke="#2E2E2E" stroke-width="0.217099" stroke-miterlimit="10" stroke-linecap="round" stroke-linejoin="round"/>
<path d="M10.3409 29.9595C8.76689 29.3726 7.29957 28.5189 5.99232 27.5051C5.72553 27.2917 5.43207 27.0516 5.16528 26.8115C5.48543 26.438 5.8856 26.1445 6.31246 25.9577C6.47253 25.8777 6.6326 25.8243 6.79268 25.771C7.05946 25.691 7.32625 25.6643 7.59303 25.6643C7.8865 25.6643 8.20664 25.7176 8.5001 25.8243C8.71353 25.9044 8.92696 26.0111 9.08703 26.1178C9.22042 26.1978 9.35382 26.3046 9.46053 26.4113C10.3676 27.2383 10.7144 28.6256 10.3409 29.9595Z" fill="#F5F5FF" stroke="#2E2E2E" stroke-width="0.213428" stroke-miterlimit="10" stroke-linecap="round" stroke-linejoin="round"/>
<path d="M11.5147 29.9862L11.3813 30.333C11.0344 30.2263 10.6876 30.1196 10.3408 29.9862C8.76677 29.3993 7.29945 28.5456 5.9922 27.5318C5.72541 27.3184 5.43195 27.0783 5.16516 26.8381C4.97841 26.6781 4.81834 26.518 4.63159 26.3313C5.37859 25.0774 6.68584 24.3304 8.04645 24.3304C8.12648 24.3304 8.2332 24.3304 8.31323 24.3304C8.63337 24.357 8.95352 24.4104 9.27366 24.5438C11.4613 25.2641 12.4751 27.7986 11.5147 29.9862Z" fill="#2E2E2E"/>
<path d="M26.0812 27.5318C24.8006 28.5456 23.3333 29.3726 21.7859 29.9595C21.3057 28.1987 22.0794 26.3579 23.6267 25.8244C23.9202 25.7176 24.2403 25.6643 24.5338 25.6643C24.8006 25.6643 25.0674 25.691 25.3342 25.771C25.5209 25.8244 25.7077 25.9044 25.8944 25.9844C26.2679 26.1712 26.6414 26.4646 26.9349 26.7848C26.8015 26.8915 26.6948 26.9982 26.5614 27.1049C26.5881 27.1316 26.5881 27.185 26.5881 27.2116C26.5881 27.345 26.4813 27.4784 26.3213 27.4784C26.2679 27.4784 26.2146 27.4517 26.1612 27.4251C26.1345 27.5051 26.1078 27.5051 26.0812 27.5318Z" fill="#F5F5FF" stroke="#2E2E2E" stroke-width="0.213428" stroke-miterlimit="10" stroke-linecap="round" stroke-linejoin="round"/>
<path d="M26.0813 27.5318C24.8007 28.5456 23.3334 29.3726 21.786 29.9595C21.4392 30.0929 21.0924 30.1996 20.7456 30.3064L20.6122 29.9595C19.6784 27.7719 20.6922 25.2374 22.8265 24.4904C23.2267 24.357 23.6002 24.277 24.0003 24.277H24.0537C25.4143 24.277 26.7216 25.024 27.4686 26.2779C27.3085 26.438 27.1217 26.6247 26.935 26.7848C26.8016 26.8915 26.6949 26.9982 26.5615 27.1049C26.5882 27.1316 26.5882 27.185 26.5882 27.2116C26.5882 27.345 26.4815 27.4784 26.3214 27.4784C26.268 27.4784 26.2147 27.4518 26.1613 27.4251C26.1346 27.5051 26.108 27.5051 26.0813 27.5318Z" fill="#2E2E2E"/>
<path d="M26.5614 27.265C26.5614 27.3984 26.4547 27.5318 26.2946 27.5318C26.2413 27.5318 26.1879 27.5051 26.1345 27.4784C26.1079 27.4517 26.0812 27.4251 26.0545 27.3984C26.0278 27.3717 26.0278 27.3184 26.0278 27.265C26.0278 27.2116 26.0278 27.185 26.0545 27.1316C26.1079 27.0516 26.1879 26.9982 26.2946 26.9982C26.4013 26.9982 26.508 27.0516 26.5347 27.1583C26.5614 27.185 26.5614 27.2116 26.5614 27.265Z" fill="#F5F5FF"/>
<path d="M26.0811 27.3984C26.0811 27.4517 26.0811 27.4784 26.0811 27.5318C24.8005 28.5456 23.3332 29.3726 21.7858 29.9595C21.439 30.0929 21.0922 30.1996 20.7454 30.3063C19.278 30.7599 17.704 31 16.0766 31C14.4492 31 12.8752 30.7599 11.4079 30.3063C11.061 30.1996 10.7142 30.0929 10.3674 29.9595C8.79337 29.3726 7.32605 28.5189 6.0188 27.5051C6.04548 26.9448 6.15219 26.438 6.33894 25.9577C6.36562 25.9044 6.36562 25.8777 6.3923 25.8243C6.73912 25.0774 7.37941 24.5171 8.28648 24.3303C8.31315 24.3303 8.33983 24.3303 8.36651 24.3303C8.57994 24.3037 8.79337 24.277 9.03348 24.277H23.3599C23.5733 24.277 23.7867 24.3037 23.9735 24.3303C24.0268 24.3303 24.0535 24.357 24.1069 24.357C24.9606 24.5438 25.5208 25.0773 25.8143 25.7977C25.841 25.8777 25.8676 25.9311 25.8943 26.0111C26.001 26.3579 26.0811 26.7314 26.0811 27.1316C26.0811 27.2116 26.0811 27.2917 26.0811 27.3984Z" fill="#2E2E2E"/>
<path d="M18.9044 24.0902L20.3451 24.3037C19.7048 25.9844 18.0507 27.265 16.2366 27.345C14.289 27.4251 12.3949 26.0911 11.7279 24.3037L13.1419 23.9569" fill="#F5F5FF"/>
<path d="M18.9044 24.0902L20.3451 24.3037C19.7048 25.9844 18.0507 27.265 16.2366 27.345C14.289 27.4251 12.3949 26.0911 11.7279 24.3037L13.1419 23.9569" stroke="#2E2E2E" stroke-width="0.213428" stroke-miterlimit="10" stroke-linecap="round" stroke-linejoin="round"/>
<path d="M23.7865 26.3046C23.7865 26.4913 23.6531 26.6247 23.4664 26.6247C23.2796 26.6247 23.1462 26.4913 23.1462 26.3046C23.1462 26.1178 23.2796 25.9844 23.4664 25.9844C23.6531 25.9844 23.7865 26.1178 23.7865 26.3046Z" fill="#F5F5FF"/>
<path d="M9.56681 26.7314C9.56681 27.0782 9.30003 27.345 8.95321 27.345C8.60639 27.345 8.3396 27.0782 8.3396 26.7314C8.3396 26.3846 8.60639 26.1178 8.95321 26.1178C9.27335 26.0911 9.56681 26.3846 9.56681 26.7314Z" fill="#F5F5FF"/>
<path d="M21.3055 29.4793C21.3055 29.7194 21.1187 29.8795 20.9053 29.8795C20.6919 29.8795 20.5051 29.6927 20.5051 29.4793C20.5051 29.2659 20.6919 29.0791 20.9053 29.0791C21.1187 29.0791 21.3055 29.2392 21.3055 29.4793Z" fill="#F5F5FF"/>
<path d="M14.2357 30.1196C14.5009 30.1196 14.7159 29.9046 14.7159 29.6394C14.7159 29.3742 14.5009 29.1592 14.2357 29.1592C13.9705 29.1592 13.7555 29.3742 13.7555 29.6394C13.7555 29.9046 13.9705 30.1196 14.2357 30.1196Z" fill="#F5F5FF"/>
</g>
<defs>
<clipPath id="clip0_7_54310">
<rect width="32" height="32" fill="white"/>
</clipPath>
</defs>
</svg>
