<svg width="32" height="32" viewBox="0 0 32 32" fill="none" xmlns="http://www.w3.org/2000/svg">
<g clip-path="url(#clip0_7_54138)">
<path d="M32 15.9605C32 20.1218 30.3894 23.9144 27.7756 26.7588C27.6436 26.9169 27.5116 27.0486 27.3531 27.2066C26.7987 27.7597 26.2178 28.2601 25.6106 28.7342C24.7393 29.3926 23.7888 29.9457 22.8119 30.4198C22.6535 30.4988 22.4686 30.5778 22.3102 30.6568C21.7294 30.8938 21.1485 31.1309 20.5149 31.2889C20.198 31.3942 19.8812 31.4733 19.5644 31.5523C18.429 31.8156 17.2673 31.9473 16.0528 31.9473H16C14.8911 31.9473 13.835 31.842 12.7789 31.6313C12.33 31.5523 11.9076 31.4206 11.4851 31.3152C10.8779 31.1309 10.2706 30.9202 9.68977 30.6831C9.55776 30.6305 9.39934 30.5514 9.26733 30.4988C8.26403 30.0247 7.31353 29.4716 6.41584 28.8132C5.78218 28.3391 5.17492 27.8123 4.62046 27.2593C4.48845 27.1276 4.33003 26.9695 4.19802 26.8115C1.61056 23.9407 0 20.1481 0 15.9605C0 7.13745 7.15512 0 16 0C24.8449 0 32 7.13745 32 15.9605Z" fill="#ECCD6C"/>
<path d="M21.8138 11.7213C20.9808 10.4461 19.5121 9.69465 19.1613 8.12345C19.0079 7.4631 19.0956 6.73443 19.0298 6.0513C18.8764 4.38902 17.7803 3.09108 16.3992 3C16.3773 3 16.3554 3 16.3116 3C16.2458 3 16.1581 3 16.0923 3C16.0266 3 15.9389 3 15.8731 3C15.8512 3 15.8293 3 15.7854 3C14.4263 3.09108 13.3303 4.38902 13.1768 6.07407C13.111 6.7572 13.1987 7.48587 13.0453 8.14622C12.6945 9.71742 11.2477 10.4689 10.3928 11.744C9.60362 12.9509 9.38441 14.7042 9.8886 16.116C10.2832 17.2318 11.0724 18.2337 10.9847 19.4406C10.9189 20.3059 10.4147 21.0573 10.3928 21.9226C10.3489 23.0839 11.2477 24.1086 12.1903 24.177C13.133 24.268 19.0298 24.268 19.9943 24.177C20.937 24.0859 21.8357 23.0839 21.7919 21.9226C21.748 21.0573 21.2439 20.3059 21.2 19.4406C21.1123 18.2337 21.9234 17.2318 22.2961 16.116C22.8003 14.6815 22.603 12.9281 21.8138 11.7213Z" fill="#2E2E2E"/>
<path d="M16.5308 3.50096C17.9118 3.34156 19.2929 4.59396 19.5559 6.23347C19.6655 6.98491 19.5778 7.75912 19.7751 8.48779C20.1916 10.1273 21.8357 10.856 22.4276 12.4044C22.7783 13.3608 22.6907 14.4993 22.318 15.4557C21.9453 16.4121 21.3096 17.1635 20.652 17.8239" stroke="#2E2E2E" stroke-width="0.36984" stroke-miterlimit="10" stroke-linecap="round" stroke-linejoin="round"/>
<path d="M17.7583 8.57888C19.9066 10.9243 21.1342 14.4538 21.0903 17.9605C21.0903 18.5298 21.0465 19.1446 21.2438 19.6683C21.3972 20.101 21.7041 20.4198 21.9014 20.8069C22.4275 21.8771 22.0549 23.4711 21.1342 24.0176" stroke="#2E2E2E" stroke-width="0.36984" stroke-miterlimit="10" stroke-linecap="round" stroke-linejoin="round"/>
<path d="M15.1498 6.09684L14.6894 5.64142C14.2291 5.20877 14.6017 4.61673 15.3909 4.54841C15.6759 4.52564 15.9609 4.50287 16.2239 4.50287C16.5308 4.50287 16.8377 4.52564 17.1227 4.54841C17.9557 4.6395 18.3722 5.27708 17.868 5.70973L17.3419 6.16515C17.1446 6.34732 16.8158 6.4384 16.465 6.4384H16.0705C15.6978 6.41563 15.369 6.30178 15.1498 6.09684Z" fill="#F5F5FF"/>
<path d="M12.8699 7.16707C13.0891 6.87105 13.3741 6.5978 13.659 6.34732C13.7248 6.27901 13.8125 6.23347 13.8783 6.16515L14.1194 6.02853L14.3605 5.8919C14.4482 5.84636 14.5359 5.80082 14.6236 5.77805C14.9743 5.64142 15.347 5.52757 15.7196 5.48203C16.0923 5.43648 16.4869 5.43648 16.8596 5.5048C17.1665 5.55034 17.4514 5.64142 17.7145 5.75528C17.9995 5.86913 18.2406 6.02853 18.5037 6.18793C18.6352 6.25624 18.7448 6.37009 18.8544 6.46118C18.964 6.55226 19.0736 6.64334 19.1832 6.7572C19.3805 6.98491 19.5778 7.21262 19.7313 7.4631C19.534 7.23539 19.3367 7.03045 19.1175 6.82551C19.0078 6.73443 18.8982 6.64334 18.7667 6.55226C18.6571 6.46118 18.5256 6.37009 18.416 6.30178C18.1748 6.16515 17.9118 6.02853 17.6487 5.91467C17.3857 5.82359 17.1007 5.73251 16.8376 5.68697C16.1362 5.55034 15.3908 5.66419 14.7113 5.91467C14.6236 5.93745 14.5359 5.98299 14.4482 6.02853L14.2071 6.16515L13.9659 6.30178C13.8783 6.34732 13.8125 6.39286 13.7467 6.46118C13.4179 6.64334 13.1329 6.89382 12.8699 7.16707Z" fill="#F5F5FF"/>
<path d="M18.6791 23.4711C18.7229 24.9739 17.583 26.2263 16.1801 26.2263C14.799 26.2263 13.681 25.0195 13.681 23.5621C13.681 23.5394 13.681 23.4938 13.681 23.4711L13.966 19.4861L14.0099 18.9852L14.0756 18.1199L14.1852 16.5032H18.2187L18.3722 19.0763L18.416 19.6455L18.5476 21.5583L18.6791 23.4711Z" fill="#F5F5FF" stroke="#2E2E2E" stroke-width="0.4" stroke-miterlimit="10"/>
<path d="M18.5475 21.5583C17.2761 21.7177 15.8293 21.0801 14.8647 19.8049C14.4702 19.2812 14.2071 18.7119 14.0317 18.1199L14.1413 16.5032H18.1749L18.3722 19.0763L18.416 19.6455L18.5475 21.5583Z" fill="#2E2E2E"/>
<path d="M19.6875 12.5182C19.1833 13.3608 19.2271 14.3627 19.7971 14.7498C20.367 15.1369 21.2439 14.7726 21.7481 13.93C22.2523 13.0875 22.2084 12.0856 21.6385 11.6985C21.0685 11.3114 20.1916 11.6757 19.6875 12.5182Z" fill="#F5F5FF" stroke="#2E2E2E" stroke-width="0.4" stroke-miterlimit="10"/>
<path d="M21.2 12.1084C21.4411 12.1995 21.6384 12.4499 21.6822 12.7232C21.7261 12.9964 21.6165 13.2925 21.3972 13.4519" stroke="#2E2E2E" stroke-width="0.4" stroke-miterlimit="10" stroke-linecap="round" stroke-linejoin="round"/>
<path d="M12.8479 12.5182C13.3521 13.3608 13.3083 14.3627 12.7383 14.7498C12.1684 15.1369 11.2915 14.7726 10.7873 13.93C10.2831 13.0875 10.327 12.0856 10.8969 11.6985C11.4669 11.3114 12.3437 11.6757 12.8479 12.5182Z" fill="#F5F5FF" stroke="#2E2E2E" stroke-width="0.4" stroke-miterlimit="10"/>
<path d="M11.3136 12.1084C11.0724 12.1995 10.8751 12.4499 10.8313 12.7232C10.7875 12.9964 10.8971 13.2925 11.1163 13.4519" stroke="#2E2E2E" stroke-width="0.4" stroke-miterlimit="10" stroke-linecap="round" stroke-linejoin="round"/>
<path d="M20.9368 11.3569C20.9368 11.4252 20.9368 11.5163 20.9368 11.5846C20.9368 11.8123 20.9149 12.04 20.893 12.2678L20.8711 12.5865L20.8492 12.7687V12.8826L20.8272 13.0192C20.8053 13.1786 20.8053 13.3152 20.8053 13.4746C20.8053 13.5202 20.8053 13.5429 20.8053 13.5885C20.8053 13.634 20.8053 13.7023 20.8053 13.7706C20.7834 14.1577 20.7615 14.5221 20.7176 14.9092V14.932C20.6957 15.0003 20.6957 15.0686 20.6738 15.1369C20.6519 15.2052 20.6519 15.2963 20.6299 15.3646C20.608 15.4785 20.5861 15.5923 20.5423 15.7062C20.5203 15.7517 20.5203 15.7745 20.4984 15.82C20.4765 15.9111 20.4326 15.9794 20.4107 16.0705C20.323 16.2982 20.2134 16.5031 20.1038 16.7081C19.6216 17.5962 18.8543 18.4159 18.109 18.9396C18.109 18.9396 18.109 18.9396 18.0871 18.9396C17.9994 19.0079 17.9117 19.0763 17.824 19.1218C16.9033 19.7138 15.8292 19.7366 14.8646 19.2357C14.6673 19.1218 14.47 19.0079 14.2947 18.8713C13.5493 18.3476 12.9136 17.5734 12.4533 16.7081C12.4094 16.6398 12.3875 16.5942 12.3437 16.5259C12.3217 16.5031 12.3217 16.4576 12.2998 16.4348C12.2779 16.3893 12.256 16.321 12.2121 16.2754C12.1464 16.1388 12.0806 15.9794 12.0149 15.82C11.9929 15.7745 11.971 15.7289 11.971 15.6834C11.7518 15.0686 11.6641 14.4082 11.6203 13.7251C11.6203 13.6568 11.5983 13.5885 11.5983 13.5202C11.5983 13.4746 11.5983 13.4518 11.5983 13.4063C11.5983 13.2924 11.5764 13.1786 11.5764 13.0647L11.5545 12.7459C11.5545 12.7232 11.5545 12.6776 11.5326 12.6549C11.5326 12.6093 11.5107 12.5865 11.5107 12.541C11.4887 12.4044 11.4668 12.2678 11.4668 12.1084C11.4668 12.04 11.4449 11.9717 11.4449 11.9034C11.423 11.7213 11.423 11.5391 11.423 11.3569C11.423 11.3341 11.423 11.3114 11.423 11.2886C11.423 11.1292 11.423 10.9698 11.4449 10.8104C11.4449 10.6738 11.4668 10.5372 11.4887 10.4233C11.5983 9.62633 11.8395 8.89766 12.1902 8.26007C12.2779 8.10068 12.3656 7.94128 12.4752 7.80466C12.804 7.3037 13.2205 6.87105 13.6809 6.52948C13.7247 6.50671 13.7466 6.48394 13.7905 6.46117C13.8343 6.4384 13.8782 6.39286 13.922 6.37009C14.0974 6.25623 14.2508 6.16515 14.4262 6.09684C15.1715 5.75527 16.0484 5.59588 16.8375 5.75527C16.8814 5.75527 16.9252 5.77804 16.9472 5.77804C17.276 5.84636 17.5829 5.93744 17.8898 6.09684C17.9775 6.14238 18.0871 6.18792 18.1747 6.23346C18.3063 6.30178 18.4378 6.39286 18.5693 6.48394L18.5913 6.50671C18.7228 6.5978 18.8543 6.71165 18.9858 6.80274C19.3585 7.12153 19.6873 7.5314 19.9723 7.96405C20.0381 8.07791 20.1038 8.19176 20.1696 8.30562C20.1915 8.32839 20.2134 8.37393 20.2354 8.41947C20.5423 9.03429 20.7615 9.71741 20.8711 10.4461C20.8711 10.4461 20.8711 10.4461 20.8711 10.4689C20.893 10.6055 20.893 10.7193 20.9149 10.856C20.9368 11.0154 20.9368 11.1748 20.9368 11.3341C20.9368 11.3114 20.9368 11.3341 20.9368 11.3569Z" fill="#F5F5FF" stroke="#2E2E2E" stroke-width="0.4" stroke-miterlimit="10"/>
<path d="M20.937 11.3569C20.937 11.4252 20.937 11.5163 20.937 11.5846C20.937 11.8123 20.9151 12.04 20.8932 12.2678L20.8712 12.5865L20.8493 12.7687V12.8826L20.8274 13.0192C20.8055 13.1786 20.8055 13.3152 20.8055 13.4746C20.8055 13.5202 20.8055 13.5429 20.8055 13.5885C20.3013 12.3133 20.0602 10.9243 20.1259 9.55801C19.7533 8.85212 19.2052 8.32838 18.4818 7.98682C17.9995 7.75911 17.4734 7.64526 16.9473 7.64526C16.7062 7.64526 16.4431 7.66803 16.202 7.73634C15.4348 7.55417 14.6237 7.66803 13.9222 8.00959C13.2207 8.35116 12.6507 8.85212 12.2781 9.58079C12.3438 10.947 12.1246 12.3133 11.6204 13.5657C11.6204 13.5202 11.6204 13.4974 11.6204 13.4518C11.6204 13.338 11.5985 13.2241 11.5985 13.1103L11.5766 12.7915C11.5766 12.7687 11.5766 12.7232 11.5547 12.7004C11.5547 12.6549 11.5328 12.6321 11.5328 12.5865C11.5108 12.4499 11.4889 12.3133 11.4889 12.1539C11.4889 12.0856 11.467 12.0173 11.467 11.949C11.4451 11.7668 11.4451 11.5846 11.4451 11.4025C11.4451 11.3797 11.4451 11.3569 11.4451 11.3341C11.4451 11.1747 11.4451 11.0154 11.467 10.856C11.467 10.7193 11.4889 10.5827 11.5108 10.4689C11.6204 9.67187 11.8616 8.9432 12.2123 8.30561C12.3 8.14622 12.3877 7.98682 12.4973 7.8502C12.8261 7.34924 13.2426 6.91659 13.703 6.57502C13.7468 6.55225 13.7687 6.52948 13.8126 6.50671C13.8564 6.48394 13.9003 6.4384 13.9441 6.41563C14.1195 6.30177 14.2729 6.21069 14.4483 6.14238C15.1936 5.80081 16.0705 5.64142 16.8596 5.80081C16.9035 5.80081 16.9473 5.82358 16.9692 5.82358C17.2981 5.8919 17.605 5.98298 17.9119 6.14238C17.9996 6.18792 18.1092 6.23346 18.1968 6.279C18.3284 6.34732 18.4599 6.4384 18.5914 6.52948L18.6133 6.55225C18.7449 6.64334 18.8764 6.75719 19.0079 6.84828C19.3806 7.16707 19.7094 7.57694 19.9944 8.00959C20.0602 8.12345 20.1259 8.2373 20.1917 8.35116C20.2136 8.37393 20.2355 8.41947 20.2574 8.46501C20.5643 9.07983 20.7836 9.76295 20.8932 10.4916C20.8932 10.4916 20.8932 10.4916 20.8932 10.5144C20.9151 10.651 20.9151 10.7649 20.937 10.9015C20.9589 11.0609 20.9589 11.2203 20.9589 11.3797C20.937 11.3114 20.937 11.3341 20.937 11.3569Z" fill="#2E2E2E"/>
<path d="M18.8982 7.91851C18.9859 8.57887 19.512 9.12537 20.1039 9.19369" stroke="#2E2E2E" stroke-width="0.38576" stroke-miterlimit="10" stroke-linecap="round" stroke-linejoin="round"/>
<path d="M18.7229 7.55417C18.7448 8.12345 18.964 8.66995 19.3148 9.07982C19.6655 9.4897 20.1697 9.76295 20.6739 9.80849" stroke="#2E2E2E" stroke-width="0.38576" stroke-miterlimit="10" stroke-linecap="round" stroke-linejoin="round"/>
<path d="M18.7451 7.87297C18.767 8.44224 18.9863 8.98875 19.337 9.39862C19.6877 9.8085 20.1919 10.0817 20.6961 10.1273" stroke="#2E2E2E" stroke-width="0.38576" stroke-miterlimit="10" stroke-linecap="round" stroke-linejoin="round"/>
<path d="M13.4618 7.91851C13.3741 8.57887 12.848 9.12537 12.2561 9.19369" stroke="#2E2E2E" stroke-width="0.38576" stroke-miterlimit="10" stroke-linecap="round" stroke-linejoin="round"/>
<path d="M13.6372 7.55417C13.6152 8.12345 13.396 8.66995 13.0453 9.07982C12.6945 9.4897 12.1903 9.76295 11.6862 9.80849" stroke="#2E2E2E" stroke-width="0.38576" stroke-miterlimit="10" stroke-linecap="round" stroke-linejoin="round"/>
<path d="M13.6151 7.87297C13.5931 8.44224 13.3739 8.98875 13.0232 9.39862C12.6724 9.8085 12.1683 10.0818 11.6641 10.1273" stroke="#2E2E2E" stroke-width="0.38576" stroke-miterlimit="10" stroke-linecap="round" stroke-linejoin="round"/>
<path d="M17.4514 11.8351C17.5391 11.5619 17.7145 11.3569 17.9337 11.1975C18.1529 11.0381 18.416 10.9698 18.7009 10.947C18.964 10.9243 19.249 10.9926 19.4901 11.1064C19.7312 11.2203 19.9504 11.4252 20.0601 11.6757C19.797 11.6529 19.5778 11.6302 19.3586 11.6302C19.1394 11.6302 18.9421 11.6302 18.7448 11.6302C18.5475 11.6529 18.3502 11.6529 18.1529 11.6985C17.9337 11.7213 17.7145 11.7668 17.4514 11.8351Z" fill="#2E2E2E"/>
<path d="M15.1279 11.8351C14.8648 11.7668 14.6456 11.7213 14.4483 11.6985C14.251 11.6757 14.0537 11.6529 13.8564 11.6302C13.6591 11.6074 13.4618 11.6074 13.2426 11.6302C13.0234 11.6302 12.8042 11.6529 12.5411 11.6757C12.6507 11.4252 12.87 11.2203 13.1111 11.1064C13.3522 10.9926 13.6153 10.9243 13.9003 10.947C14.1633 10.9698 14.4264 11.0609 14.6675 11.1975C14.8648 11.3342 15.0621 11.5619 15.1279 11.8351Z" fill="#2E2E2E"/>
<path d="M17.2979 13.2925C17.3636 13.2014 17.4294 13.0875 17.4951 12.9964C17.5609 12.9053 17.6486 12.7915 17.7582 12.7232C17.9555 12.5638 18.1966 12.4727 18.4378 12.4272C18.6789 12.4044 18.942 12.4272 19.1831 12.5182C19.2927 12.5638 19.4023 12.6321 19.5119 12.7004C19.5996 12.7687 19.6873 12.837 19.775 12.9281L19.7092 12.9053C19.7092 12.9053 19.7311 12.9053 19.775 12.9053C19.7969 12.9053 19.8407 12.8826 19.8627 12.8598C19.9284 12.837 19.9942 12.7915 20.038 12.746C20.0599 12.7232 20.0819 12.746 20.1038 12.7687C20.1257 12.7915 20.1257 12.8143 20.1038 12.837C20.0599 12.9053 19.9942 12.9509 19.9503 13.0192C19.9284 13.042 19.8846 13.0647 19.8627 13.0875C19.8188 13.1103 19.7969 13.1331 19.7092 13.1558C19.6873 13.1558 19.6654 13.1558 19.6654 13.1331H19.6434C19.5338 13.0647 19.4461 12.9964 19.3585 12.9281C19.2708 12.8598 19.1831 12.8143 19.0735 12.7687C18.8762 12.6776 18.657 12.6549 18.4597 12.6776C18.2405 12.7004 18.0432 12.7687 17.8678 12.8826C17.7801 12.9281 17.6924 13.0192 17.6048 13.0875C17.5171 13.1786 17.4513 13.2697 17.3636 13.338C17.3417 13.3608 17.3198 13.3608 17.2979 13.338C17.2979 13.338 17.2979 13.3152 17.2979 13.2925Z" fill="#2E2E2E"/>
<path d="M18.109 12.9281C18.131 12.7004 18.3282 12.5182 18.5475 12.541C18.7667 12.5638 18.942 12.7687 18.9201 12.9964C18.8982 13.2241 18.7009 13.4063 18.4817 13.3835C18.2625 13.3608 18.0871 13.1786 18.109 12.9281Z" fill="#2E2E2E"/>
<path d="M19.3146 13.2697C19.468 13.2241 19.5996 13.1558 19.7311 13.0647" stroke="#2E2E2E" stroke-width="0.4" stroke-miterlimit="10" stroke-linecap="round" stroke-linejoin="round"/>
<path d="M17.3197 12.837C17.5389 12.5182 17.8897 12.2905 18.2842 12.245" stroke="#2E2E2E" stroke-width="0.4" stroke-miterlimit="10" stroke-linecap="round" stroke-linejoin="round"/>
<path d="M15.2156 13.3608C15.1279 13.2697 15.0621 13.2014 14.9745 13.1103C14.8868 13.042 14.821 12.9509 14.7114 12.9053C14.536 12.7915 14.3168 12.7232 14.1195 12.7004C13.9003 12.6776 13.703 12.7004 13.5057 12.7915C13.3961 12.837 13.3084 12.8826 13.2208 12.9509C13.1331 13.0192 13.0235 13.0875 12.9358 13.1558H12.9139C12.8919 13.1558 12.8919 13.1786 12.87 13.1786C12.8042 13.1786 12.7604 13.1331 12.7166 13.1103C12.6727 13.0875 12.6508 13.0647 12.6289 13.042C12.5631 12.9964 12.5193 12.9281 12.4754 12.8598C12.4535 12.837 12.4535 12.8143 12.4754 12.7915C12.4973 12.7687 12.5193 12.7687 12.5412 12.7915C12.585 12.837 12.6508 12.8598 12.7166 12.9053C12.7385 12.9281 12.7823 12.9281 12.8042 12.9509C12.8262 12.9509 12.87 12.9737 12.87 12.9509L12.8042 12.9737C12.8919 12.9053 12.9796 12.837 13.0673 12.7459C13.1769 12.6776 13.2865 12.6093 13.3961 12.5638C13.6373 12.4727 13.8784 12.4272 14.1414 12.4727C14.3826 12.5182 14.6237 12.6093 14.821 12.7687C14.9306 12.837 14.9964 12.9509 15.0841 13.042C15.1498 13.1331 15.2156 13.2469 15.2814 13.338C15.3033 13.3608 15.2814 13.3835 15.2594 13.4063C15.2594 13.3835 15.2375 13.3835 15.2156 13.3608Z" fill="#2E2E2E"/>
<path d="M14.492 12.9281C14.4701 12.7004 14.2728 12.5182 14.0536 12.541C13.8344 12.5638 13.659 12.7687 13.6809 12.9964C13.7029 13.2241 13.9001 13.4063 14.1194 13.3835C14.3386 13.3608 14.5139 13.1786 14.492 12.9281Z" fill="#2E2E2E"/>
<path d="M13.2645 13.2697C13.1111 13.2241 12.9796 13.1558 12.848 13.0647" stroke="#2E2E2E" stroke-width="0.4" stroke-miterlimit="10" stroke-linecap="round" stroke-linejoin="round"/>
<path d="M15.2595 12.837C15.0402 12.5182 14.6895 12.2905 14.2949 12.245" stroke="#2E2E2E" stroke-width="0.4" stroke-miterlimit="10" stroke-linecap="round" stroke-linejoin="round"/>
<path d="M16.4866 15.7517C16.5962 15.7062 16.6839 15.6151 16.7715 15.524" stroke="#2E2E2E" stroke-width="0.4" stroke-miterlimit="10" stroke-linecap="round" stroke-linejoin="round"/>
<path d="M16.1141 15.7517C16.0045 15.7062 15.9168 15.6151 15.8291 15.524" stroke="#2E2E2E" stroke-width="0.4" stroke-miterlimit="10" stroke-linecap="round" stroke-linejoin="round"/>
<path d="M16.2454 13.7479V15.2508" stroke="#2E2E2E" stroke-width="0.4" stroke-miterlimit="10"/>
<path d="M17.7145 16.8903L17.6707 16.9358C17.5392 17.0041 17.3857 17.0041 17.2323 16.9813C17.0788 16.9586 16.9473 16.9358 16.7938 16.9586C16.6185 16.9813 16.465 17.0497 16.2896 17.0952C16.1143 17.0497 15.9608 16.9813 15.7854 16.9586C15.632 16.9358 15.4785 16.9813 15.347 16.9813C15.1936 17.0041 15.0401 17.0041 14.9086 16.9358L14.8647 16.8903C15.0182 16.8903 15.2813 16.7992 15.3909 16.7081L15.4347 16.6625C15.5443 16.5715 15.6758 16.4804 15.8293 16.4348C15.9827 16.3893 16.18 16.4121 16.2896 16.5259C16.3992 16.4121 16.5965 16.3893 16.75 16.4348C16.9034 16.4804 17.013 16.5715 17.1446 16.6625L17.1884 16.7081C17.298 16.7992 17.5611 16.8903 17.7145 16.8903Z" fill="#2E2E2E"/>
<path d="M15.8076 17.7556C15.8295 17.7556 15.8515 17.7783 15.8734 17.7783C15.9611 17.8011 16.0268 17.8239 16.1145 17.8239C16.1364 17.8239 16.1584 17.8239 16.1803 17.8239C16.2022 17.8239 16.2241 17.8239 16.2241 17.8239H16.246" stroke="#2E2E2E" stroke-width="0.30464" stroke-miterlimit="10" stroke-linecap="round" stroke-linejoin="round"/>
<path d="M17.6707 16.9358C17.5392 17.2774 17.2761 17.5506 16.9254 17.71C16.7281 17.8011 16.5088 17.8466 16.2896 17.8466H16.2677C16.2458 17.8466 16.2239 17.8466 16.2239 17.8466C16.2019 17.8466 16.18 17.8466 16.1581 17.8466C16.0704 17.8466 15.9827 17.8239 15.917 17.8011C15.8293 17.7783 15.7635 17.7556 15.6758 17.71C15.3251 17.5506 15.062 17.2774 14.9305 16.9358C15.062 17.0041 15.2155 17.0041 15.3689 16.9813C15.5224 16.9586 15.6539 16.9358 15.8074 16.9586C15.9827 16.9813 16.1362 17.0497 16.3116 17.0952C16.4869 17.0497 16.6404 16.9813 16.8157 16.9586C16.9692 16.9358 17.1226 16.9813 17.2542 16.9813C17.3857 17.0041 17.5392 17.0041 17.6707 16.9358ZM17.6707 16.9358L17.7145 16.8903C17.5611 16.8903 17.2761 16.7992 17.1665 16.7081L17.1226 16.6625C17.013 16.5715 16.8815 16.4804 16.7281 16.4348C16.5746 16.3893 16.3773 16.4121 16.2677 16.5259C16.1581 16.4121 15.9608 16.3893 15.8074 16.4348C15.6539 16.4804 15.5443 16.5715 15.4128 16.6625L15.3689 16.7081C15.2813 16.7992 15.0182 16.8903 14.8647 16.8903L14.9086 16.9358" stroke="#2E2E2E" stroke-width="0.30464" stroke-miterlimit="10" stroke-linecap="round" stroke-linejoin="round"/>
<path d="M17.6487 16.9813C17.4952 17.0952 17.2541 17.1863 16.9691 17.2546C16.7499 17.3001 16.5088 17.3229 16.2895 17.3229C16.2676 17.3229 16.2676 17.3229 16.2457 17.3229C16.2238 17.3229 16.2019 17.3229 16.1799 17.3229C16.158 17.3229 16.1361 17.3229 16.0923 17.3229C16.0046 17.3229 15.9169 17.3001 15.8292 17.3001C15.7415 17.3001 15.6538 17.2774 15.5661 17.2546C15.3031 17.209 15.1058 17.118 14.9304 17.0269" stroke="#2E2E2E" stroke-width="0.22696" stroke-miterlimit="10" stroke-linecap="round" stroke-linejoin="round"/>
<path d="M10.9627 28.048L10.4366 29.3232C9.5817 28.9133 8.79253 28.4124 8.0472 27.8203C7.38956 27.2966 6.75384 26.7045 6.20581 26.0442C6.53463 25.065 7.23611 24.3591 8.02528 24.0859C8.28834 23.9948 8.55139 23.9492 8.83637 23.9492C9.07751 23.9492 9.34056 23.9948 9.5817 24.0859C10.9847 24.6096 11.6204 26.4313 10.9627 28.048Z" fill="#F5F5FF" stroke="#2E2E2E" stroke-width="0.4" stroke-miterlimit="10"/>
<path d="M12.0808 27.6381L11.2478 29.6875C10.9848 29.5737 10.7217 29.4598 10.4587 29.3459C9.60372 28.9361 8.81455 28.4351 8.06923 27.8431C7.41159 27.3193 6.77587 26.7273 6.22784 26.0669C6.09631 25.9075 5.96478 25.7481 5.83325 25.5887L6.31552 24.7235C6.9074 23.5166 8.06923 22.7879 9.25298 22.7879C9.34067 22.7879 9.42835 22.7879 9.49412 22.7879C9.75717 22.8107 9.99831 22.8562 10.2394 22.9473C10.4148 23.0156 10.5902 23.0839 10.7436 23.175C11.0944 23.38 11.4013 23.6532 11.6424 23.9948C12.3877 24.9967 12.585 26.3857 12.0808 27.6381Z" fill="#2E2E2E"/>
<path d="M28.4999 29.3004C28.478 29.2776 28.478 29.2549 28.4561 29.2549C28.4561 29.2776 28.478 29.2776 28.4999 29.3004Z" fill="#2E2E2E"/>
<path d="M25.9789 26.0669C25.3431 26.8184 24.6197 27.4787 23.8306 28.0708C23.1729 28.549 22.4934 28.9816 21.77 29.346L21.7261 29.2321L21.2219 28.048C20.5643 26.4085 21.2 24.5868 22.581 24.0859C22.8222 23.9948 23.0852 23.9492 23.3264 23.9492C23.5456 23.9492 23.7648 23.972 23.984 24.0403H24.0059C24.8609 24.3136 25.6281 25.065 25.9789 26.0669Z" fill="#F5F5FF" stroke="#2E2E2E" stroke-width="0.4" stroke-miterlimit="10"/>
<path d="M25.8911 24.7462L26.3734 25.6115C26.2418 25.7709 26.1103 25.9303 25.9788 26.0897C25.343 26.8411 24.6196 27.5015 23.8305 28.0935C23.1728 28.5717 22.4933 29.0044 21.7699 29.3687C21.5068 29.4826 21.2438 29.6192 20.9807 29.7331L20.1477 27.6837C19.6435 26.4313 19.8408 25.0422 20.5423 24.0859C20.8053 23.7443 21.1122 23.4483 21.4849 23.2433C21.6383 23.1523 21.7918 23.0839 21.9452 23.0156C22.1864 22.9245 22.4494 22.879 22.7125 22.8562C22.8002 22.8562 22.8659 22.8562 22.9536 22.8562C24.1374 22.8107 25.2992 23.5394 25.8911 24.7462Z" fill="#2E2E2E"/>
<path d="M28.4999 29.3004C28.478 29.2776 28.478 29.2549 28.4561 29.2549C28.4561 29.2776 28.478 29.2776 28.4999 29.3004Z" fill="#2E2E2E"/>
<path d="M24.0499 26.9322L23.8088 28.0708C23.1512 28.549 22.4716 28.9816 21.7482 29.346C21.4851 29.4598 21.2221 29.5964 20.959 29.7103C19.4465 30.3251 17.8024 30.6667 16.0925 30.6667C14.3826 30.6667 12.7385 30.3251 11.226 29.7103C10.9629 29.5964 10.6998 29.4826 10.4368 29.3687C9.58185 28.9589 8.79268 28.4579 8.04736 27.8658L7.87199 26.955C7.63085 25.9075 7.6747 24.9056 8.02544 24.1314C8.02544 24.1314 8.02544 24.1086 8.04736 24.0859C8.33234 23.4711 8.81461 23.0156 9.49417 22.8335C9.53801 22.8335 9.55993 22.8107 9.60377 22.8107C9.80107 22.7652 9.99836 22.7424 10.2176 22.7424H22.0113C22.2305 22.7424 22.4058 22.7652 22.6031 22.8107C22.6251 22.8107 22.6689 22.8335 22.6908 22.8335C23.3485 23.0156 23.765 23.4483 24.0061 24.0403C24.0061 24.0631 24.0061 24.0631 24.028 24.0859C24.313 24.8373 24.2911 25.8848 24.0499 26.9322Z" fill="#F5F5FF" stroke="#2E2E2E" stroke-width="0.4" stroke-miterlimit="10" stroke-linecap="round" stroke-linejoin="round"/>
<path d="M18.5916 22.583L19.5342 22.7196C19.0081 24.1542 17.649 25.2472 16.1583 25.3155C14.5581 25.3838 13.0016 24.2453 12.4536 22.7196L13.7689 22.583" fill="#F5F5FF"/>
<path d="M18.5916 22.583L19.5342 22.7196C19.0081 24.1542 17.649 25.2472 16.1583 25.3155C14.5581 25.3838 13.0016 24.2453 12.4536 22.7196L13.7689 22.583" stroke="#2E2E2E" stroke-width="0.4" stroke-miterlimit="10" stroke-linecap="round" stroke-linejoin="round"/>
</g>
<defs>
<clipPath id="clip0_7_54138">
<rect width="32" height="32" fill="white"/>
</clipPath>
</defs>
</svg>
