<svg width="32" height="32" viewBox="0 0 32 32" fill="none" xmlns="http://www.w3.org/2000/svg">
<g clip-path="url(#clip0_7_53742)">
<path d="M32 15.9605C32 20.1218 30.3894 23.9144 27.7756 26.7588C27.6436 26.9169 27.5116 27.0486 27.3531 27.2066C26.7987 27.7597 26.2178 28.2601 25.6106 28.7342C24.7393 29.3926 23.7888 29.9457 22.8119 30.4198C22.6535 30.4988 22.4686 30.5778 22.3102 30.6568C21.7294 30.8938 21.1485 31.1309 20.5149 31.2889C20.198 31.3942 19.8812 31.4733 19.5644 31.5523C18.429 31.8156 17.2673 31.9473 16.0528 31.9473H16C14.8911 31.9473 13.835 31.842 12.7789 31.6313C12.33 31.5523 11.9076 31.4206 11.4851 31.3152C10.8779 31.1309 10.2706 30.9202 9.68977 30.6831C9.55776 30.6305 9.39934 30.5514 9.26733 30.4988C8.26403 30.0247 7.31353 29.4716 6.41584 28.8132C5.78218 28.3391 5.17492 27.8123 4.62046 27.2593C4.48845 27.1276 4.33003 26.9695 4.19802 26.8115C1.61056 23.9407 0 20.1481 0 15.9605C0 7.13745 7.15512 0 16 0C24.8449 0 32 7.13745 32 15.9605Z" fill="#8A51D2"/>
<path d="M27.2521 25.9003C26.5206 26.651 25.6946 27.3055 24.7743 27.8829C24.0191 28.3641 23.1931 28.7876 22.2964 29.1341L21.9896 28.5566C21.1872 26.9975 21.9424 25.2651 23.6415 24.7839C23.9247 24.7069 24.2315 24.6684 24.5383 24.6684C24.5619 24.6684 24.5855 24.6684 24.6091 24.6684C25.6238 24.6876 26.615 25.1496 27.2521 25.9003Z" fill="#F5F5FF" stroke="#2E2E2E" stroke-width="0.151504" stroke-miterlimit="10" stroke-linecap="round" stroke-linejoin="round"/>
<path d="M27.1579 25.3999L27.4175 25.7463C27.3703 25.8041 27.3231 25.8618 27.2759 25.9003C26.5444 26.651 25.7184 27.3055 24.798 27.883C24.0429 28.3642 23.2169 28.7877 22.3202 29.1341C21.8718 29.3074 21.4234 29.4614 20.9514 29.5961L20.1963 28.1524C19.2523 26.3623 20.2671 24.3412 22.391 23.7252C22.7922 23.6097 23.1933 23.552 23.5945 23.552C23.7597 23.552 23.9013 23.552 24.0665 23.5712C25.3408 23.7252 26.5208 24.3797 27.1579 25.3999Z" fill="#2E2E2E"/>
<path d="M10.1432 28.5567L9.83637 29.1342C8.98681 28.807 8.20805 28.4027 7.45289 27.9408C6.48534 27.344 5.63578 26.6703 4.88062 25.9004C5.54138 25.1304 6.55613 24.6492 7.59448 24.6492H7.61808C7.92486 24.6492 8.20805 24.6877 8.49123 24.7647C10.1903 25.2652 10.9455 26.9976 10.1432 28.5567Z" fill="#F5F5FF" stroke="#2E2E2E" stroke-width="0.151504" stroke-miterlimit="10" stroke-linecap="round" stroke-linejoin="round"/>
<path d="M11.9604 28.1525L11.2053 29.5961C10.7333 29.4614 10.2849 29.3074 9.83652 29.1341C8.98696 28.8069 8.2082 28.4027 7.45304 27.9407C6.48549 27.344 5.63593 26.6703 4.88077 25.9003C4.83357 25.8426 4.78637 25.8041 4.71558 25.7464L4.97516 25.3999C5.63593 24.3412 6.88667 23.6675 8.2318 23.5712C8.3262 23.5712 8.44419 23.5712 8.53858 23.5712C8.93976 23.5712 9.36454 23.629 9.76572 23.7445C11.8896 24.3412 12.9044 26.3623 11.9604 28.1525Z" fill="#2E2E2E"/>
<path d="M19.8663 13.2528C19.2763 14.1967 19.3471 15.3059 19.9843 15.7306C20.6451 16.1554 21.6362 15.7542 22.2262 14.8103C22.8162 13.8663 22.7454 12.7572 22.1082 12.3324C21.471 11.9076 20.4563 12.3088 19.8663 13.2528Z" fill="#F5F5FF" stroke="#2E2E2E" stroke-width="0.151504" stroke-miterlimit="10" stroke-linecap="round" stroke-linejoin="round"/>
<path d="M21.636 12.7808C21.9192 12.8988 22.1316 13.1584 22.1788 13.4652C22.226 13.7719 22.108 14.0787 21.872 14.2675" stroke="#2E2E2E" stroke-width="0.151504" stroke-miterlimit="10" stroke-linecap="round" stroke-linejoin="round"/>
<path d="M12.0077 13.2528C12.5976 14.1967 12.5269 15.3059 11.8897 15.7306C11.2289 16.1554 10.2378 15.7542 9.64779 14.8103C9.05782 13.8663 9.12862 12.7572 9.76579 12.3324C10.403 11.9076 11.4177 12.3088 12.0077 13.2528Z" fill="#F5F5FF" stroke="#2E2E2E" stroke-width="0.151504" stroke-miterlimit="10" stroke-linecap="round" stroke-linejoin="round"/>
<path d="M10.2381 12.7808C9.9549 12.8988 9.74251 13.1584 9.69531 13.4652C9.64812 13.7719 9.76611 14.0787 10.0021 14.2675" stroke="#2E2E2E" stroke-width="0.151504" stroke-miterlimit="10" stroke-linecap="round" stroke-linejoin="round"/>
<path d="M18.8278 23.7542C18.875 25.3354 17.6007 26.6569 16.0196 26.6569C14.462 26.6569 13.2113 25.4062 13.2113 23.8486C13.2113 23.825 13.2113 23.7778 13.2113 23.7542L13.5181 19.5773L13.5889 18.5153L13.7541 16.4386H18.285L18.5446 19.7189L18.7098 22.1023L18.8278 23.7542Z" fill="#F5F5FF" stroke="#2E2E2E" stroke-width="0.158273" stroke-miterlimit="10" stroke-linecap="round" stroke-linejoin="round"/>
<path d="M18.7099 22.1023C17.2231 22.1967 15.5948 21.4652 14.4857 20.0492C14.1081 19.5772 13.8249 19.0581 13.6361 18.5153L13.8013 16.4386H18.2851L18.5447 19.7188L18.7099 22.1023Z" fill="#2E2E2E"/>
<path d="M20.8808 15.825C20.7156 16.2734 20.456 16.7454 20.1492 17.1938C19.5592 18.0669 18.7805 18.8929 18.0017 19.4121C17.1521 19.9784 16.0194 20.1672 15.0518 19.8368C14.2967 19.5773 13.6595 19.0345 13.0931 18.4445C12.3852 17.7129 11.748 16.9106 11.394 15.9666C11.1108 15.2351 10.9928 14.4091 10.9692 13.5832C10.9456 13.1348 10.9692 12.71 10.9928 12.2616C11.0164 11.5301 11.0872 10.8221 11.158 10.1613C11.2996 8.6038 12.2436 7.11708 13.6123 6.31472C14.9338 5.53595 16.633 5.41796 18.0489 6.00793C19.4648 6.5979 20.574 7.89584 20.9515 9.38256C21.2111 10.3737 21.1403 11.4121 21.1403 12.4504C21.1403 12.5212 21.1403 12.5684 21.1403 12.6392C21.1403 12.946 21.1639 13.2528 21.1639 13.5596C21.1639 14.3383 21.1639 15.0935 20.8808 15.825Z" fill="#F5F5FF" stroke="#2E2E2E" stroke-width="0.151504" stroke-miterlimit="10" stroke-linecap="round" stroke-linejoin="round"/>
<path d="M17.3411 11.3649C17.5535 11.2233 17.7895 11.1525 18.0491 11.0817C18.3086 11.0109 18.5682 10.9873 18.8514 10.9873C19.1346 10.9873 19.4178 11.0581 19.6774 11.1997C19.937 11.3413 20.1494 11.5301 20.2438 11.7896C19.9842 11.6953 19.7482 11.6717 19.5358 11.6481C19.3234 11.6481 19.111 11.6717 18.8986 11.7189C18.4738 11.7897 18.0491 11.9312 17.5535 12.002C17.3647 12.0256 17.1995 11.9076 17.1759 11.7189C17.1759 11.5537 17.2231 11.4357 17.3411 11.3649Z" fill="#2E2E2E"/>
<path d="M15.052 11.9784C14.5564 11.9076 14.1316 11.7661 13.7068 11.6953C13.4944 11.6481 13.282 11.6245 13.0697 11.6245C12.8573 11.6245 12.6213 11.6717 12.3617 11.7661C12.4797 11.5301 12.6685 11.3177 12.9281 11.1761C13.1877 11.0345 13.4708 10.9873 13.754 10.9637C14.0372 10.9637 14.2968 10.9873 14.5564 11.0581C14.816 11.1289 15.052 11.2233 15.2643 11.3413C15.4295 11.4357 15.4767 11.6481 15.3823 11.7897C15.3115 11.9312 15.1936 12.002 15.052 11.9784Z" fill="#2E2E2E"/>
<path d="M15.0284 13.6068C14.934 13.536 14.8396 13.4416 14.7452 13.3708C14.6508 13.3 14.5564 13.2292 14.462 13.182C14.2496 13.064 14.0372 13.0168 13.8012 13.0168C13.5652 13.0168 13.3528 13.064 13.1405 13.1584C13.0461 13.2056 12.9517 13.2528 12.8337 13.3236C12.7393 13.3944 12.6449 13.4652 12.5033 13.5124C12.4797 13.5124 12.4325 13.4888 12.4325 13.4652C12.4325 13.4416 12.4325 13.4416 12.4325 13.418C12.4797 13.3 12.5741 13.2056 12.6685 13.1348C12.7629 13.0404 12.8809 12.9696 12.9989 12.8988C13.2349 12.7808 13.518 12.71 13.7776 12.7336C14.0372 12.7572 14.3204 12.828 14.5328 12.9932C14.6508 13.064 14.7452 13.1584 14.8396 13.2528C14.9104 13.3472 15.0048 13.4416 15.0756 13.536C15.0992 13.5596 15.0992 13.5832 15.0756 13.6068C15.0756 13.6304 15.052 13.6304 15.0284 13.6068Z" fill="#2E2E2E"/>
<path d="M14.2025 13.2292C14.1789 12.9932 13.943 12.828 13.707 12.8516C13.471 12.8752 13.3058 13.1112 13.3294 13.3472C13.353 13.5831 13.589 13.7483 13.825 13.7247C14.0846 13.6775 14.2497 13.4652 14.2025 13.2292Z" fill="#2E2E2E"/>
<path d="M15.0048 13.5832C14.7924 13.7011 14.5564 13.7719 14.3204 13.7955" stroke="#2E2E2E" stroke-width="0.141763" stroke-miterlimit="10" stroke-linecap="round" stroke-linejoin="round"/>
<path d="M15.0283 13.064C14.7687 12.7572 14.3675 12.5448 13.9663 12.5212" stroke="#2E2E2E" stroke-width="0.141763" stroke-miterlimit="10" stroke-linecap="round" stroke-linejoin="round"/>
<path d="M17.2465 13.536C17.3173 13.4416 17.4117 13.3472 17.4825 13.2528C17.5769 13.1584 17.6713 13.064 17.7893 12.9932C18.0017 12.8516 18.2848 12.7572 18.5444 12.7336C18.804 12.71 19.0872 12.7808 19.3232 12.8988C19.4412 12.946 19.5592 13.0404 19.6536 13.1348C19.748 13.2292 19.8424 13.3 19.8896 13.418C19.9132 13.4416 19.8896 13.4888 19.866 13.4888C19.866 13.4888 19.8424 13.4888 19.8188 13.4888C19.6772 13.4652 19.5828 13.3708 19.4884 13.3C19.394 13.2292 19.2996 13.182 19.1816 13.1348C18.9692 13.0404 18.7568 12.9932 18.5208 12.9932C18.2848 12.9932 18.0725 13.0404 17.8601 13.1584C17.7657 13.2056 17.6713 13.2764 17.5769 13.3472C17.4825 13.418 17.3881 13.5124 17.2937 13.5832C17.2701 13.6068 17.2465 13.6068 17.2229 13.5832C17.2229 13.5832 17.2229 13.5596 17.2465 13.536Z" fill="#2E2E2E"/>
<path d="M18.1197 13.2292C18.1433 12.9932 18.3793 12.828 18.6152 12.8516C18.8512 12.8752 19.0164 13.1112 18.9928 13.3472C18.9692 13.5832 18.7332 13.7483 18.4973 13.7247C18.2613 13.6776 18.0961 13.4652 18.1197 13.2292Z" fill="#2E2E2E"/>
<path d="M17.3173 13.5832C17.5297 13.7012 17.7656 13.772 18.0016 13.7955" stroke="#2E2E2E" stroke-width="0.141763" stroke-miterlimit="10" stroke-linecap="round" stroke-linejoin="round"/>
<path d="M17.2938 13.064C17.5534 12.7572 17.9546 12.5448 18.3558 12.5212" stroke="#2E2E2E" stroke-width="0.141763" stroke-miterlimit="10" stroke-linecap="round" stroke-linejoin="round"/>
<path d="M15.8777 16.8162C15.9485 16.887 16.0665 16.9342 16.1609 16.9342C16.2553 16.9342 16.3733 16.887 16.4441 16.8162C16.5621 16.6982 16.7744 16.769 16.9396 16.7926C17.1048 16.8162 17.27 16.8398 17.4352 16.8162C17.5532 16.7926 17.6476 16.7218 17.7184 16.6274" stroke="#2E2E2E" stroke-width="0.126188" stroke-miterlimit="10" stroke-linecap="round" stroke-linejoin="round"/>
<path d="M15.8777 16.8162C15.7597 16.6982 15.5473 16.769 15.3822 16.7926C15.217 16.8162 15.0518 16.8398 14.8866 16.8162C14.745 16.7926 14.627 16.6982 14.6034 16.5566" stroke="#2E2E2E" stroke-width="0.126188" stroke-miterlimit="10" stroke-linecap="round" stroke-linejoin="round"/>
<path d="M15.4058 17.2882C15.8305 17.4298 16.3025 17.4534 16.7273 17.3354" stroke="#2E2E2E" stroke-width="0.126188" stroke-miterlimit="10" stroke-linecap="round" stroke-linejoin="round"/>
<path d="M16.1375 18.7277V19.5065" stroke="#2E2E2E" stroke-width="0.151504" stroke-miterlimit="10" stroke-linecap="round" stroke-linejoin="round"/>
<path d="M16.161 15.2115V13.5596" stroke="#2E2E2E" stroke-width="0.151504" stroke-miterlimit="10" stroke-linecap="round" stroke-linejoin="round"/>
<path d="M15.6183 15.5419L15.9015 15.7307C16.0903 15.8486 16.2791 15.8486 16.4678 15.7307L16.751 15.5419" stroke="#2E2E2E" stroke-width="0.162294" stroke-miterlimit="10" stroke-linecap="round" stroke-linejoin="round"/>
<path d="M21.1168 12.474C20.9988 12.4268 20.8808 12.3324 20.7864 12.238C20.6448 12.0728 20.5504 11.8368 20.4796 11.6244C20.1492 10.6569 20.1256 9.50055 20.3144 8.5094C19.1581 8.533 18.0489 7.80144 17.5533 6.78669C16.2082 7.61265 14.6743 7.96663 13.0932 7.87224C13.046 9.54775 12.22 11.1997 10.9457 12.2852C10.9693 11.5537 11.0401 10.8457 11.1109 10.1849C11.2525 8.6274 12.1964 7.14067 13.5651 6.33831C14.8867 5.55955 16.5858 5.44156 18.0017 6.03153C19.4177 6.6215 20.5268 7.91943 20.9044 9.40616C21.1876 10.4209 21.1168 11.4593 21.1168 12.474Z" fill="#2E2E2E"/>
<path d="M11.0177 8.96448C11.6493 6.98234 13.8292 4.77541 16.0684 4.77182C18.3263 4.79484 20.4375 7.03852 21.1171 9.02327C17.7274 9.62046 14.3846 9.74747 11.0177 8.96448Z" fill="#F5F5FF" stroke="#2E2E2E" stroke-width="0.163002" stroke-miterlimit="10" stroke-linecap="round" stroke-linejoin="round"/>
<path d="M21.4786 9.79212C19.919 10.707 17.94 10.9398 16.0686 10.9023C14.1751 10.8615 12.294 10.5839 10.3936 10.5898C10.1984 10.227 10.1512 9.93381 10.254 9.54345C10.3534 9.17645 10.6298 8.83556 10.9776 8.62447C14.461 8.92373 17.9775 8.84619 21.3553 8.17569C21.5358 8.17846 21.8677 9.30087 21.4786 9.79212Z" fill="#F5F5FF" stroke="#2E2E2E" stroke-width="0.141451" stroke-miterlimit="10" stroke-linecap="round" stroke-linejoin="round"/>
<path d="M11.366 10.59C11.2613 10.0736 11.3882 9.51987 11.7192 9.11548" stroke="#2E2E2E" stroke-width="0.151504" stroke-miterlimit="10" stroke-linecap="round" stroke-linejoin="round"/>
<path d="M20.147 8.85612C20.3796 9.27211 20.4877 9.76515 20.4818 10.2652" stroke="#2E2E2E" stroke-width="0.151504" stroke-miterlimit="10" stroke-linecap="round" stroke-linejoin="round"/>
<path d="M18.1693 9.23225C18.3694 9.71501 18.4673 10.2781 18.4323 10.8216" stroke="#2E2E2E" stroke-width="0.151504" stroke-miterlimit="10" stroke-linecap="round" stroke-linejoin="round"/>
<path d="M13.054 9.26473C12.8711 9.73867 12.8804 10.2887 13.1095 10.728" stroke="#2E2E2E" stroke-width="0.151504" stroke-miterlimit="10" stroke-linecap="round" stroke-linejoin="round"/>
<path d="M15.63 9.43018C15.716 9.91995 15.7357 10.3999 15.6633 10.8902" stroke="#2E2E2E" stroke-width="0.151504" stroke-miterlimit="10" stroke-linecap="round" stroke-linejoin="round"/>
<path d="M14.4685 9.64046C14.3588 10.0775 14.4483 10.5439 14.7133 10.8931C14.7168 10.8698 14.7423 10.8497 14.7458 10.8264" stroke="#2E2E2E" stroke-width="0.151504" stroke-miterlimit="10" stroke-linecap="round" stroke-linejoin="round"/>
<path d="M17.1248 9.7222C17.1616 10.0855 17.1286 10.4623 17.0106 10.8026" stroke="#2E2E2E" stroke-width="0.151504" stroke-miterlimit="10" stroke-linecap="round" stroke-linejoin="round"/>
<path d="M24.6566 28.1518C23.9055 28.6548 23.0841 29.0974 22.1922 29.4595C21.7463 29.6406 21.3003 29.8016 20.8309 29.9424C19.3288 30.4051 17.6859 30.6667 15.9961 30.6667C14.3062 30.6667 12.6633 30.4051 11.1612 29.9424C10.6918 29.8016 10.2459 29.6406 9.79994 29.4595C8.95501 29.1175 8.18049 28.695 7.42944 28.2122L7.57026 24.7719L7.6172 23.8062L8.20396 23.6251L11.5602 22.5789L12.2174 22.3777L12.546 22.2771L13.2735 22.0558L13.3909 22.0156L13.6491 21.9351H18.5074L18.6013 21.9753L18.6717 21.9955L19.5401 22.257L19.8687 22.3576L20.5258 22.5588L23.9759 23.6251L24.5158 23.786L24.5627 24.7517L24.6566 28.1518Z" fill="#2E2E2E"/>
</g>
<defs>
<clipPath id="clip0_7_53742">
<rect width="32" height="32" fill="white"/>
</clipPath>
</defs>
</svg>
