<svg width="32" height="32" viewBox="0 0 32 32" fill="none" xmlns="http://www.w3.org/2000/svg">
<g clip-path="url(#clip0_7_54361)">
<path d="M32 15.9605C32 20.1218 30.3894 23.9144 27.7756 26.7588C27.6436 26.9169 27.5116 27.0486 27.3531 27.2066C26.7987 27.7597 26.2178 28.2601 25.6106 28.7342C24.7393 29.3926 23.7888 29.9457 22.8119 30.4198C22.6535 30.4988 22.4686 30.5778 22.3102 30.6568C21.7294 30.8938 21.1485 31.1309 20.5149 31.2889C20.198 31.3942 19.8812 31.4733 19.5644 31.5523C18.429 31.8156 17.2673 31.9473 16.0528 31.9473H16C14.8911 31.9473 13.835 31.842 12.7789 31.6313C12.33 31.5523 11.9076 31.4206 11.4851 31.3152C10.8779 31.1309 10.2706 30.9202 9.68977 30.6831C9.55776 30.6305 9.39934 30.5514 9.26733 30.4988C8.26403 30.0247 7.31353 29.4716 6.41584 28.8132C5.78218 28.3391 5.17492 27.8123 4.62046 27.2593C4.48845 27.1276 4.33003 26.9695 4.19802 26.8115C1.61056 23.9407 0 20.1481 0 15.9605C0 7.13745 7.15512 0 16 0C24.8449 0 32 7.13745 32 15.9605Z" fill="#69E3B7"/>
<path d="M8.80874 10.2209C8.59988 9.64075 8.64629 8.99095 8.92478 8.43399C9.20326 7.90023 9.6906 7.4825 10.2476 7.32005C10.3172 6.43819 11.0598 5.76519 11.8953 5.78839C11.9649 5.37067 12.2898 4.99936 12.6611 4.83691C13.0324 4.69767 13.4733 4.76729 13.7982 5.02256C13.8911 4.62805 14.1463 4.25674 14.5409 4.18711C14.9122 4.11749 15.3299 4.27994 15.562 4.60484C15.7708 4.1407 16.2118 4.04787 16.6991 4.00146C17.1864 3.97825 17.6738 4.23353 17.9291 4.65125C18.254 4.25674 18.7877 4.1407 19.2519 4.32636C19.716 4.51201 20.0409 5.02256 20.0409 5.55632C20.3426 5.32425 20.8299 5.39388 21.1548 5.57953C21.5029 5.76519 21.7118 6.1365 21.7118 6.55422C22.1295 6.55422 22.5008 6.8095 22.7561 7.18081C22.9882 7.55212 23.0578 8.01626 22.9186 8.43399C23.3363 8.4804 23.638 8.99095 23.8004 9.40868C23.9397 9.8264 23.8236 10.337 23.5452 10.6386C23.8933 10.8707 24.0093 11.4045 24.0789 11.8454C24.1485 12.2631 24.0093 12.7273 23.754 13.0522C24.0325 13.3307 24.0789 13.8876 24.0093 14.2821C23.9629 14.6767 23.7076 15.0248 23.3827 15.2104C23.638 15.4889 23.4987 16.0923 23.3363 16.4404C23.1738 16.7885 22.7793 16.9973 22.4312 16.9509C22.5473 17.3222 22.2688 17.8792 21.9671 18.0881C21.6654 18.3201 21.2477 18.3201 20.946 18.1113C20.8531 19.0164 19.7856 19.991 18.927 19.8982C18.7181 20.2695 18.2076 20.5944 17.813 20.6176C17.3953 20.6408 16.9776 20.4552 16.7455 20.1071C16.6063 20.5016 16.0261 20.9425 15.6316 20.9425C15.2371 20.9425 14.8193 20.664 14.6801 20.2695C13.9839 20.6873 12.8235 20.2231 12.4754 19.4573C12.1737 19.759 11.5007 19.9214 11.1526 19.6894C10.8045 19.4573 10.6189 18.9467 10.7581 18.529C10.4332 18.5754 10.0155 18.3898 9.78343 18.1113C9.55136 17.856 9.43533 17.4847 9.50495 17.1366C9.18005 17.0902 8.87836 16.7189 8.76233 16.394C8.64629 16.0691 8.71591 15.6978 8.92478 15.4425C8.64629 15.2336 8.50705 14.7463 8.48384 14.375C8.46064 14.0037 8.59988 13.6323 8.87836 13.3771C8.36781 12.8897 8.29819 11.8686 8.80874 11.4045C8.59988 11.2884 8.55346 11.1028 8.53026 10.8707C8.39102 10.6386 8.62309 10.3602 8.80874 10.2209Z" fill="#2E2E2E"/>
<path d="M20.0639 14.1661C19.4838 15.0944 19.5534 16.1851 20.18 16.6028C20.8298 17.0206 21.8045 16.626 22.3846 15.6978C22.9648 14.7695 22.8952 13.6788 22.2686 13.261C21.6188 12.8433 20.6209 13.261 20.0639 14.1661Z" fill="#F5F5FF" stroke="#2E2E2E" stroke-width="0.124157" stroke-miterlimit="10" stroke-linecap="round" stroke-linejoin="round"/>
<path d="M21.7815 13.7252C22.06 13.8412 22.2688 14.0965 22.3153 14.3982C22.3617 14.6999 22.2456 15.0016 22.0136 15.1872" stroke="#2E2E2E" stroke-width="0.124157" stroke-miterlimit="10" stroke-linecap="round" stroke-linejoin="round"/>
<path d="M12.3131 14.1661C12.8933 15.0944 12.8237 16.1851 12.1971 16.6028C11.5473 17.0206 10.5726 16.626 9.99241 15.6978C9.41223 14.7695 9.48185 13.6788 10.1084 13.261C10.735 12.8433 11.7329 13.261 12.3131 14.1661Z" fill="#F5F5FF" stroke="#2E2E2E" stroke-width="0.124157" stroke-miterlimit="10" stroke-linecap="round" stroke-linejoin="round"/>
<path d="M10.5956 13.7252C10.3171 13.8412 10.1083 14.0965 10.0618 14.3982C10.0154 14.6999 10.1315 15.0016 10.3635 15.1872" stroke="#2E2E2E" stroke-width="0.124157" stroke-miterlimit="10" stroke-linecap="round" stroke-linejoin="round"/>
<path d="M18.9271 24.8413C18.9735 26.3962 17.7203 27.6957 16.1654 27.6957C14.6338 27.6957 13.4038 26.4658 13.4038 24.9341C13.4038 24.9109 13.4038 24.8645 13.4038 24.8413L13.7287 20.7337L13.7983 19.6893L13.9608 17.6471H18.3933L18.6486 20.8729L18.811 23.24L18.9271 24.8413Z" fill="#F5F5FF" stroke="#2E2E2E" stroke-width="0.129704" stroke-miterlimit="10" stroke-linecap="round" stroke-linejoin="round"/>
<path d="M18.8108 23.24C17.3487 23.3328 15.7475 22.6134 14.6567 21.221C14.2854 20.7569 14.0069 20.2463 13.8213 19.7126L13.9837 17.6703H18.4163L18.6715 20.8961L18.8108 23.24Z" fill="#2E2E2E"/>
<path d="M20.9227 16.9045C20.7602 17.3455 20.505 17.8096 20.2033 18.2505C19.6231 19.1092 18.8573 19.9214 18.0914 20.432C17.256 20.989 16.142 21.1746 15.1906 20.8497C14.4479 20.5944 13.8214 20.0607 13.2644 19.4805C12.5682 18.7611 11.9416 17.9721 11.5935 17.0438C11.315 16.3244 11.199 15.5121 11.1758 14.6999C11.1293 13.5627 11.2454 12.3792 11.3614 11.3349C11.5007 9.80322 12.4289 8.34118 13.7749 7.55214C15.0513 6.80952 16.7222 6.69348 18.1146 7.29686C19.5071 7.87704 20.5978 9.15342 20.9691 10.6155C21.2244 11.6598 21.1547 12.7505 21.1547 13.818C21.1547 14.1197 21.178 14.4214 21.178 14.7231C21.2244 15.4425 21.2012 16.2083 20.9227 16.9045Z" fill="#F5F5FF" stroke="#2E2E2E" stroke-width="0.124157" stroke-miterlimit="10" stroke-linecap="round" stroke-linejoin="round"/>
<path d="M21.2245 14.6999V14.7463L21.2013 14.7231C20.8532 14.4214 20.6443 13.9804 20.6211 13.5395L20.4354 10.0817C20.2498 10.0121 20.0873 9.94244 19.9017 9.84961C19.6464 9.73358 19.3911 9.59434 19.1358 9.43189C18.6253 9.1302 18.1612 8.75889 17.813 8.41078C17.3257 8.52682 16.7687 8.59644 16.1886 8.59644C15.5156 8.59644 14.889 8.50361 14.332 8.34116C14.0071 8.68927 13.5894 9.03737 13.102 9.36227C12.8236 9.54792 12.5219 9.71037 12.197 9.84961C12.1273 9.87282 12.0577 9.91923 11.9649 9.96565L11.7792 13.5163C11.756 13.9804 11.524 14.4214 11.1759 14.7231L11.1527 14.7695V14.7463C11.1062 13.6788 11.2223 12.588 11.3151 11.6133L11.3383 11.3813C11.4311 10.3834 11.8489 9.43189 12.4755 8.66606C12.8236 8.22513 13.2645 7.87702 13.7518 7.57533C15.0514 6.8095 16.7223 6.69347 18.1379 7.27364C18.8342 7.55213 19.4375 8.01626 19.9249 8.57323C20.4354 9.1534 20.8067 9.84961 20.9924 10.5922C21.2013 11.4045 21.2013 12.2399 21.1781 13.0522C21.1781 13.2842 21.1781 13.5395 21.1781 13.7948C21.1781 13.9572 21.1781 14.1429 21.2013 14.3053C21.2013 14.4446 21.2013 14.5838 21.2245 14.6999Z" fill="#2E2E2E"/>
<path d="M19.9248 8.57324C19.4374 8.01628 18.8108 7.55214 18.1378 7.27365C16.7454 6.69348 15.0513 6.80951 13.7517 7.57534C13.2644 7.85383 12.8467 8.22514 12.4753 8.66607C12.5682 8.80531 12.6842 8.96776 12.8002 9.0838C12.8234 9.38549 12.9627 9.71038 13.1716 9.91925C13.45 10.1745 13.8446 10.2906 14.1927 10.2209C14.2623 10.4994 14.5872 10.7779 14.8657 10.8243C15.1441 10.8707 15.4458 10.7315 15.5851 10.4762C15.7475 10.7083 16.0724 10.9404 16.3509 10.9171C16.6294 10.8939 16.9079 10.7083 17.0239 10.4298C17.1864 10.7083 17.4648 10.9636 17.7897 10.9171C18.1146 10.8707 18.4163 10.6155 18.5091 10.2906C18.9269 10.4066 19.4142 10.2209 19.507 9.80321C19.5535 9.61756 19.507 9.40869 19.4142 9.22304C19.6463 9.01417 19.8087 8.80531 19.9248 8.57324Z" fill="#2E2E2E"/>
<path d="M17.6508 18.0881C17.6508 18.4826 16.8154 18.7843 16.2584 18.7843C15.7246 18.7843 14.6571 18.4826 14.6571 18.0881" fill="#F5F5FF"/>
<path d="M17.6508 18.0881C17.6508 18.4826 16.8154 18.7843 16.2584 18.7843C15.7246 18.7843 14.6571 18.4826 14.6571 18.0881" stroke="#2E2E2E" stroke-width="0.144162" stroke-miterlimit="10" stroke-linecap="round" stroke-linejoin="round"/>
<path d="M17.6508 18.0648H14.6571C14.6571 17.7632 15.7014 17.5311 16.2584 17.5311C16.7921 17.5311 17.6508 17.7864 17.6508 18.0648Z" fill="#2E2E2E" stroke="#2E2E2E" stroke-width="0.106938" stroke-miterlimit="10"/>
<path d="M17.4187 17.7632C17.5579 17.856 17.8132 17.8792 17.9989 17.7864C18.0221 17.7632 18.0685 17.7864 18.0917 17.8096C18.1149 17.8328 18.0917 17.856 18.0917 17.8792C17.906 18.0649 17.6275 18.1809 17.3027 18.1345H17.2794C17.1634 18.1113 17.0938 18.0184 17.117 17.9024C17.1402 17.7864 17.233 17.7167 17.3491 17.74C17.3723 17.74 17.3955 17.7632 17.4187 17.7632Z" fill="#2E2E2E"/>
<path d="M15.0749 18.1345C14.7732 18.1809 14.4715 18.0881 14.2858 17.8792C14.2626 17.856 14.2626 17.8096 14.2858 17.7864C14.309 17.7632 14.3323 17.7632 14.3555 17.7864C14.5643 17.8792 14.7964 17.8792 14.9356 17.7632C15.0285 17.6936 15.1445 17.74 15.2141 17.8328C15.2837 17.9256 15.2373 18.0417 15.1445 18.1113C15.1445 18.1113 15.1213 18.1345 15.0749 18.1345Z" fill="#2E2E2E"/>
<path d="M15.7246 18.0184C15.8406 18.1345 16.0031 18.2041 16.1887 18.2041C16.3512 18.2041 16.5369 18.1577 16.6529 18.0649" fill="#2E2E2E"/>
<path d="M15.7246 18.0184C15.8406 18.1345 16.0031 18.2041 16.1887 18.2041C16.3512 18.2041 16.5369 18.1577 16.6529 18.0649" stroke="#2E2E2E" stroke-width="0.213875" stroke-miterlimit="10" stroke-linecap="round" stroke-linejoin="round"/>
<path d="M16.9312 12.8665C17.0472 12.588 17.2793 12.3792 17.5345 12.2167C17.7898 12.0775 18.0915 11.9846 18.3932 11.9846C18.6949 11.9846 18.9966 12.0311 19.2518 12.1703C19.5071 12.2863 19.7624 12.4952 19.9016 12.7737L19.1126 12.7505C18.8805 12.7505 18.6485 12.7505 18.4164 12.7505C18.1843 12.7505 17.9523 12.7737 17.7202 12.7969C17.4881 12.7969 17.2328 12.8433 16.9312 12.8665Z" fill="#2E2E2E"/>
<path d="M15.4228 12.8665C15.1211 12.8433 14.8658 12.7969 14.6337 12.7969C14.4017 12.7737 14.1696 12.7737 13.9375 12.7505C13.7054 12.7505 13.4734 12.7505 13.2413 12.7505L12.4523 12.7737C12.5915 12.4952 12.8468 12.3096 13.1021 12.1703C13.3805 12.0543 13.6822 11.9847 13.9607 11.9847C14.2624 11.9847 14.5641 12.0775 14.8194 12.2167C15.0747 12.3792 15.3067 12.588 15.4228 12.8665Z" fill="#2E2E2E"/>
<path d="M17.0704 14.8855C17.1169 14.7695 17.1865 14.6534 17.2329 14.5374C17.3721 14.3285 17.5578 14.1197 17.7899 13.9804C18.0219 13.8412 18.3004 13.7716 18.5789 13.7948C18.8574 13.818 19.1127 13.8876 19.3447 14.0269C19.4608 14.0965 19.5536 14.1893 19.6696 14.2589C19.7625 14.3518 19.8553 14.4446 19.8785 14.5838C19.8785 14.607 19.8785 14.6534 19.8321 14.6534C19.8089 14.6534 19.8089 14.6534 19.7857 14.6534C19.6464 14.607 19.5768 14.5142 19.484 14.4446C19.3911 14.375 19.2983 14.3053 19.1823 14.2589C18.9734 14.1429 18.7646 14.0965 18.5325 14.0733C18.3004 14.0501 18.0916 14.0965 17.8827 14.1893C17.6738 14.2821 17.5114 14.4446 17.3489 14.6302C17.2793 14.7463 17.1865 14.8391 17.1169 14.9551C17.0937 14.9783 17.0704 14.9783 17.0472 14.9551C17.0704 14.9319 17.0704 14.9087 17.0704 14.8855Z" fill="#2E2E2E"/>
<path d="M17.9985 14.4214C18.0217 14.1661 18.2306 13.9804 18.4859 14.0036C18.7412 14.0268 18.9268 14.2357 18.9036 14.491C18.8804 14.7463 18.6715 14.9319 18.4163 14.9087C18.161 14.8855 17.9753 14.6766 17.9985 14.4214Z" fill="#2E2E2E"/>
<path d="M19.3678 14.8391C19.5302 14.7927 19.6927 14.7231 19.8319 14.607" stroke="#2E2E2E" stroke-width="0.124157" stroke-miterlimit="10" stroke-linecap="round" stroke-linejoin="round"/>
<path d="M17.0703 14.1197C17.256 13.7948 17.5577 13.5395 17.9058 13.4235C18.2539 13.3074 18.6484 13.3074 18.9965 13.4467" stroke="#2E2E2E" stroke-width="0.124157" stroke-miterlimit="10" stroke-linecap="round" stroke-linejoin="round"/>
<path d="M15.1907 14.9319C15.1211 14.8391 15.0282 14.7231 14.9586 14.607C14.7962 14.4214 14.6337 14.2821 14.4249 14.1661C14.216 14.0733 14.0071 14.0269 13.7751 14.0501C13.543 14.0733 13.3341 14.1197 13.1253 14.2357C13.0324 14.2821 12.9164 14.3518 12.8236 14.4214C12.7308 14.491 12.6379 14.5606 12.5219 14.6302C12.4987 14.6534 12.4523 14.6302 12.4523 14.607C12.4523 14.5838 12.4523 14.5838 12.4523 14.5606C12.4987 14.4214 12.5683 14.3285 12.6611 14.2357C12.754 14.1429 12.87 14.0733 12.986 14.0036C13.2181 13.8644 13.4734 13.7716 13.7519 13.7716C14.0303 13.7484 14.3088 13.818 14.5409 13.9572C14.773 14.0965 14.9586 14.3053 15.0979 14.5142C15.1443 14.6302 15.2139 14.7463 15.2603 14.8623C15.2835 14.8855 15.2603 14.9319 15.2371 14.9319C15.2371 14.9551 15.2139 14.9551 15.1907 14.9319Z" fill="#2E2E2E"/>
<path d="M14.3785 14.4214C14.3553 14.1661 14.1464 13.9804 13.8911 14.0036C13.6358 14.0268 13.4502 14.2357 13.4734 14.491C13.4966 14.7463 13.7055 14.9319 13.9607 14.9087C14.1928 14.8855 14.4017 14.6766 14.3785 14.4214Z" fill="#2E2E2E"/>
<path d="M12.9861 14.8391C12.8237 14.7927 12.6612 14.7231 12.522 14.607" stroke="#2E2E2E" stroke-width="0.124157" stroke-miterlimit="10" stroke-linecap="round" stroke-linejoin="round"/>
<path d="M15.3067 14.1197C15.121 13.7948 14.8193 13.5395 14.4712 13.4235C14.0999 13.3074 13.7054 13.3074 13.3573 13.4235" stroke="#2E2E2E" stroke-width="0.124157" stroke-miterlimit="10" stroke-linecap="round" stroke-linejoin="round"/>
<path d="M15.4691 16.5564C15.2139 16.5796 15.0746 16.3243 15.1907 16.0923" stroke="#2E2E2E" stroke-width="0.144022" stroke-miterlimit="10" stroke-linecap="round" stroke-linejoin="round"/>
<path d="M16.9081 16.5796C17.1634 16.6028 17.3026 16.3475 17.1866 16.1155" stroke="#2E2E2E" stroke-width="0.144022" stroke-miterlimit="10" stroke-linecap="round" stroke-linejoin="round"/>
<path d="M15.446 16.51C15.8406 16.8813 16.5136 16.8813 16.9313 16.5332" stroke="#2E2E2E" stroke-width="0.144022" stroke-miterlimit="10" stroke-linecap="round" stroke-linejoin="round"/>
<path d="M26.2142 26.9995C25.7036 27.5101 25.1698 27.9742 24.6129 28.4151C23.731 29.0649 22.7795 29.6219 21.7584 30.0628C21.596 28.5312 22.3386 27.0691 23.6846 26.605C23.9631 26.5122 24.2416 26.4658 24.5433 26.4658H24.5897C24.6129 26.4658 24.6361 26.4658 24.6825 26.4658C25.2163 26.5122 25.75 26.6978 26.2142 26.9995Z" fill="#F5F5FF" stroke="#2E2E2E" stroke-width="0.124157" stroke-miterlimit="10" stroke-linecap="round" stroke-linejoin="round"/>
<path d="M26.5854 26.6282C26.4694 26.7675 26.3533 26.8835 26.2141 26.9995C25.7036 27.5101 25.1698 27.9742 24.6128 28.4152C23.731 29.0649 22.7795 29.6219 21.7584 30.0628C21.2478 30.2717 20.7373 30.4806 20.2035 30.6198C19.3448 28.4848 20.3195 26.0713 22.385 25.3518C22.7795 25.2126 23.174 25.143 23.5917 25.143C23.8934 25.143 24.2183 25.1894 24.52 25.259C25.309 25.5143 26.0284 25.9552 26.5854 26.6282Z" fill="#F5F5FF" stroke="#2E2E2E" stroke-width="0.124157" stroke-miterlimit="10" stroke-linecap="round" stroke-linejoin="round"/>
<path d="M10.6656 30.1093C9.62127 29.6683 8.64658 29.1114 7.76472 28.4384C7.20775 28.0206 6.6972 27.5565 6.18665 27.0692C6.67399 26.7443 7.25416 26.5586 7.81113 26.5354H7.88075C8.15924 26.5354 8.46093 26.5818 8.73941 26.6746C10.0854 27.162 10.828 28.6008 10.6656 30.1093Z" fill="#F5F5FF" stroke="#2E2E2E" stroke-width="0.124157" stroke-miterlimit="10" stroke-linecap="round" stroke-linejoin="round"/>
<path d="M12.1972 30.6662C11.6635 30.5038 11.1529 30.3181 10.6656 30.1093C9.62125 29.6683 8.64655 29.1114 7.76469 28.4384C7.20772 28.0206 6.69717 27.5565 6.18662 27.0692C6.04738 26.9299 5.93134 26.8139 5.81531 26.6746C6.34907 26.0248 7.06848 25.5607 7.85752 25.3286C8.15921 25.2358 8.48411 25.2126 8.809 25.2126C9.20352 25.2126 9.62125 25.2822 10.0158 25.4215C12.058 26.1409 13.0327 28.5312 12.1972 30.6662Z" fill="#F5F5FF" stroke="#2E2E2E" stroke-width="0.124157" stroke-miterlimit="10" stroke-linecap="round" stroke-linejoin="round"/>
<path d="M24.6128 28.4152C23.7309 29.065 22.7794 29.6219 21.7583 30.0629C21.2478 30.2717 20.7372 30.4806 20.2035 30.6198C18.9271 30.9911 17.5579 31.2 16.1655 31.2C14.773 31.2 13.4502 30.9911 12.1739 30.6198C11.6401 30.4574 11.1295 30.2717 10.6422 30.0629C9.59789 29.6219 8.6232 29.065 7.74133 28.392L7.81095 26.489L7.85737 25.2822V25.2358L11.7561 23.9594L12.4059 23.7274L12.5452 23.6809L12.7308 23.6113L12.8004 23.5881L12.9165 23.5417L13.5663 23.1936H18.7182L18.8575 23.2632L19.5073 23.5649L19.5537 23.5881L19.6465 23.6345L19.8322 23.7042L19.9714 23.7506L20.6212 23.9826L24.5664 25.259L24.5896 26.4426V26.489L24.6128 28.4152Z" fill="#F5F5FF" stroke="#2E2E2E" stroke-width="0.124157" stroke-miterlimit="10" stroke-linecap="round" stroke-linejoin="round"/>
<path d="M18.8344 23.124L19.4842 23.6113L19.7859 23.7274C19.5538 25.5375 18.0221 26.9299 16.1656 26.9299C14.309 26.9299 12.7774 25.5375 12.5453 23.7506L12.847 23.6345L13.5896 23.0544" fill="#F5F5FF"/>
<path d="M18.8344 23.124L19.4842 23.6113L19.7859 23.7274C19.5538 25.5375 18.0221 26.9299 16.1656 26.9299C14.309 26.9299 12.7774 25.5375 12.5453 23.7506L12.847 23.6345L13.5896 23.0544" stroke="#2E2E2E" stroke-width="0.124157" stroke-miterlimit="10" stroke-linecap="round" stroke-linejoin="round"/>
</g>
<defs>
<clipPath id="clip0_7_54361">
<rect width="32" height="32" fill="white"/>
</clipPath>
</defs>
</svg>
