<?xml version="1.0" standalone="no"?>
<!DOCTYPE svg PUBLIC "-//W3C//DTD SVG 20010904//EN"
 "http://www.w3.org/TR/2001/REC-SVG-20010904/DTD/svg10.dtd">
<svg version="1.0" xmlns="http://www.w3.org/2000/svg"
 width="46.000000pt" height="88.000000pt" viewBox="0 0 46.000000 88.000000"
 preserveAspectRatio="xMidYMid meet">
<metadata>
Created by potrace 1.10, written by Peter Selinger 2001-2011
</metadata>
<g transform="translate(0.000000,88.000000) scale(0.100000,-0.100000)"
fill="#000000" stroke="none">
<path d="M58 869 c-17 -9 -18 -36 -18 -329 l0 -319 32 -24 c18 -14 101 -64
185 -111 129 -74 155 -85 172 -76 20 10 21 21 23 315 2 167 1 314 -2 327 -4
17 -50 48 -185 126 -99 56 -182 102 -185 102 -3 0 -13 -5 -22 -11z m175 -91
c194 -111 207 -121 207 -163 l0 -34 -122 71 c-68 39 -143 82 -168 96 -25 14
-51 29 -57 35 -9 6 -13 6 -13 -1 0 -6 81 -57 180 -114 l180 -103 0 -255 0
-255 -20 44 c-11 24 -20 55 -20 70 0 20 -8 31 -35 45 -24 13 -32 23 -25 30 7
7 23 3 50 -13 44 -25 50 -19 20 19 -12 16 -20 41 -20 70 l-1 45 -99 58 c-55
31 -104 57 -110 57 -7 0 -10 -22 -8 -62 l3 -63 84 -50 c107 -64 81 -73 -31
-10 -81 46 -108 50 -108 19 0 -9 -7 -22 -16 -29 -15 -10 -1 -21 95 -76 71 -40
117 -73 124 -88 7 -14 36 -39 65 -55 29 -17 48 -32 42 -34 -11 -4 -270 143
-327 185 l-33 24 0 310 c0 213 3 309 11 309 6 0 74 -37 152 -82z m52 -371 l90
-53 3 -45 c2 -24 11 -52 19 -62 9 -10 -35 13 -98 51 l-114 68 -3 47 c-1 26 1
47 5 47 5 0 48 -24 98 -53z m67 -201 c32 -18 38 -26 38 -53 0 -39 -5 -40 -50
-10 -19 13 -77 48 -129 77 -52 30 -89 56 -83 58 7 2 12 14 12 27 0 23 3 22 88
-27 48 -28 104 -61 124 -72z m14 -90 c15 -8 31 -13 36 -10 4 3 8 0 8 -5 0 -17
-33 -12 -60 9 -30 23 -23 26 16 6z"/>
<path d="M130 802 c0 -13 30 -52 41 -52 13 0 11 34 -3 48 -13 13 -38 16 -38 4z"/>
<path d="M210 736 c0 -8 162 -98 166 -93 3 3 -31 25 -75 51 -77 44 -91 51 -91
42z"/>
<path d="M127 683 c-4 -3 -7 -26 -7 -51 0 -30 -5 -49 -17 -57 -14 -10 6 -24
137 -98 84 -48 156 -84 161 -81 14 8 11 118 -3 136 -10 12 -252 158 -263 158
-1 0 -5 -3 -8 -7z m191 -115 l72 -42 0 -59 0 -59 -32 19 c-18 11 -80 46 -137
78 -57 32 -99 61 -93 63 7 2 12 24 12 53 l0 49 53 -30 c28 -17 85 -49 125 -72z"/>
<path d="M4 620 c0 -38 4 -70 8 -70 4 0 8 32 8 70 0 39 -4 70 -8 70 -4 0 -8
-31 -8 -70z"/>
<path d="M0 490 c0 -16 5 -30 10 -30 6 0 10 14 10 30 0 17 -4 30 -10 30 -5 0
-10 -13 -10 -30z"/>
</g>
</svg>
