<svg width="17" height="17" viewBox="0 0 17 17" fill="none" xmlns="http://www.w3.org/2000/svg">
<path fill-rule="evenodd" clip-rule="evenodd" d="M6.22879 1.33962C4.92704 0.0378735 2.81649 0.0378762 1.51474 1.33962L1.06846 1.7859C0.453158 2.40121 0.032302 3.32327 0.272353 4.3221C0.640363 5.85336 1.74777 8.64372 5.05028 11.9462C8.35278 15.2487 11.1431 16.3561 12.6744 16.7241C13.6732 16.9642 14.5953 16.5433 15.2106 15.928L15.6569 15.4818C16.9586 14.18 16.9586 12.0695 15.6569 10.7677L14.8828 9.99365C13.8218 8.9326 12.1825 8.71131 10.8781 9.45304L10.7977 9.49878C10.2631 9.80273 9.64907 9.77788 9.21405 9.46305C8.86302 9.20901 8.52753 8.94167 8.29118 8.70532C8.05483 8.46897 7.78749 8.13348 7.53345 7.78245C7.21862 7.34743 7.19377 6.73336 7.49772 6.19883L7.54346 6.11838C8.28519 4.81397 8.0639 3.17474 7.00285 2.11369L6.22879 1.33962ZM2.69325 2.51813C3.34413 1.86726 4.3994 1.86726 5.05028 2.51813L5.82434 3.2922C6.35487 3.82272 6.46551 4.64234 6.09465 5.29455L6.0489 5.37499C5.46148 6.40804 5.44087 7.73377 6.18327 8.75959C6.45596 9.13639 6.78368 9.55484 7.11267 9.88383C7.44166 10.2128 7.86011 10.5405 8.23691 10.8132C9.26273 11.5556 10.5885 11.535 11.6215 10.9476L11.702 10.9019C12.3542 10.531 13.1738 10.6416 13.7043 11.1722L14.4784 11.9462C15.1292 12.5971 15.1292 13.6524 14.4784 14.3032L14.0321 14.7495C13.7097 15.0719 13.3544 15.1735 13.0639 15.1036C11.8397 14.8094 9.32018 13.8591 6.22879 10.7677C3.13739 7.67632 2.18709 5.15684 1.89288 3.93264C1.82305 3.6421 1.9246 3.28679 2.24698 2.96441L2.69325 2.51813Z" fill="#FFB282"/>
</svg>
