<svg width="10" height="19" viewBox="0 0 10 19" fill="none" xmlns="http://www.w3.org/2000/svg">
<path fill-rule="evenodd" clip-rule="evenodd" d="M5.83333 1.16668C5.83333 0.706439 5.46024 0.333344 5 0.333344C4.53976 0.333344 4.16667 0.706439 4.16667 1.16668V2.00001C1.86548 2.00001 0 3.86549 0 6.16668C0 8.46786 1.86548 10.3333 4.16667 10.3333V15.3333C2.78595 15.3333 1.66667 14.2141 1.66667 12.8333C1.66667 12.3731 1.29357 12 0.833333 12C0.373096 12 0 12.3731 0 12.8333C0 15.1345 1.86548 17 4.16667 17V17.8333C4.16667 18.2936 4.53976 18.6667 5 18.6667C5.46024 18.6667 5.83333 18.2936 5.83333 17.8333V17C8.13452 17 10 15.1345 10 12.8333C10 10.5322 8.13452 8.66668 5.83333 8.66668V3.66668C7.21405 3.66668 8.33333 4.78596 8.33333 6.16668C8.33333 6.62691 8.70643 7.00001 9.16667 7.00001C9.6269 7.00001 10 6.62691 10 6.16668C10 3.86549 8.13452 2.00001 5.83333 2.00001V1.16668ZM4.16667 3.66668C2.78595 3.66668 1.66667 4.78596 1.66667 6.16668C1.66667 7.54739 2.78595 8.66668 4.16667 8.66668V3.66668ZM5.83333 10.3333V15.3333C7.21405 15.3333 8.33333 14.2141 8.33333 12.8333C8.33333 11.4526 7.21405 10.3333 5.83333 10.3333Z" fill="#9A9A9A"/>
</svg>
