<svg width="16" height="16" viewBox="0 0 16 16" fill="none" xmlns="http://www.w3.org/2000/svg">
<path fill-rule="evenodd" clip-rule="evenodd" d="M13.8787 3.81835C14.1631 4.11949 14.1495 4.59417 13.8484 4.87858L6.08399 12.2119C5.79494 12.4849 5.34308 12.4849 5.05403 12.2119L2.15177 9.47078C1.85064 9.18636 1.83709 8.71168 2.1215 8.41055C2.40592 8.10941 2.8806 8.09586 3.18173 8.38028L5.56901 10.635L12.8184 3.78808C13.1196 3.50367 13.5943 3.51722 13.8787 3.81835Z" fill="#9A9A9A"/>
<g clip-path="url(#clip0_760_10276)">
<path fill-rule="evenodd" clip-rule="evenodd" d="M15.8784 4.81706C16.1629 5.11819 16.1493 5.59287 15.8482 5.87728L8.08376 13.2106C7.80918 13.47 7.38459 13.4846 7.09273 13.2449L6.19047 12.5038C5.8704 12.2409 5.82406 11.7683 6.08698 11.4482C6.3499 11.1281 6.8225 11.0818 7.14258 11.3447L7.53421 11.6664L14.8182 4.78678C15.1193 4.50237 15.594 4.51592 15.8784 4.81706Z" fill="#9A9A9A"/>
</g>
<defs>
<clipPath id="clip0_760_10276">
<rect width="14" height="15" fill="white" transform="translate(2 1)"/>
</clipPath>
</defs>
</svg>
