<svg width="20" height="21" viewBox="0 0 20 21" fill="none" xmlns="http://www.w3.org/2000/svg">
<path d="M12.36 12.73C11.6915 13.269 10.8587 13.5629 10 13.5629C9.14131 13.5629 8.30849 13.269 7.64 12.73C7.43579 12.5603 7.17251 12.4786 6.90808 12.503C6.64365 12.5274 6.39974 12.6558 6.23 12.86C6.06027 13.0642 5.9786 13.3275 6.00298 13.5919C6.02736 13.8563 6.15579 14.1003 6.36 14.27C7.38134 15.1226 8.66957 15.5896 10 15.5896C11.3304 15.5896 12.6187 15.1226 13.64 14.27C13.8442 14.1003 13.9726 13.8563 13.997 13.5919C14.0214 13.3275 13.9397 13.0642 13.77 12.86C13.686 12.7589 13.5828 12.6753 13.4665 12.6141C13.3501 12.5528 13.2229 12.5151 13.0919 12.503C12.8275 12.4786 12.5642 12.5603 12.36 12.73ZM7.21 9.04C7.39737 9.22625 7.65082 9.33079 7.915 9.33079C8.17919 9.33079 8.43264 9.22625 8.62 9.04C8.80626 8.85264 8.9108 8.59919 8.9108 8.335C8.9108 8.07081 8.80626 7.81736 8.62 7.63C8.04773 7.08699 7.2889 6.78428 6.5 6.78428C5.71111 6.78428 4.95228 7.08699 4.38 7.63C4.27532 7.71965 4.1903 7.82997 4.13028 7.95403C4.07026 8.07809 4.03653 8.21323 4.03121 8.35095C4.02589 8.48867 4.04909 8.626 4.09937 8.75432C4.14964 8.88265 4.2259 8.9992 4.32335 9.09665C4.42081 9.19411 4.53736 9.27036 4.66568 9.32064C4.79401 9.37091 4.93134 9.39412 5.06906 9.3888C5.20678 9.38348 5.34191 9.34975 5.46597 9.28973C5.59004 9.2297 5.70036 9.14468 5.79 9.04C5.88297 8.94627 5.99357 8.87188 6.11543 8.82111C6.23729 8.77034 6.36799 8.7442 6.5 8.7442C6.63202 8.7442 6.76272 8.77034 6.88458 8.82111C7.00644 8.87188 7.11704 8.94627 7.21 9.04ZM15.62 7.63C15.0477 7.08699 14.2889 6.78428 13.5 6.78428C12.7111 6.78428 11.9523 7.08699 11.38 7.63C11.2162 7.8213 11.1306 8.06738 11.1403 8.31905C11.15 8.57073 11.2543 8.80947 11.4324 8.98756C11.6105 9.16566 11.8493 9.26999 12.101 9.27971C12.3526 9.28943 12.5987 9.20383 12.79 9.04C12.883 8.94627 12.9936 8.87188 13.1154 8.82111C13.2373 8.77034 13.368 8.7442 13.5 8.7442C13.632 8.7442 13.7627 8.77034 13.8846 8.82111C14.0064 8.87188 14.117 8.94627 14.21 9.04C14.3974 9.22625 14.6508 9.33079 14.915 9.33079C15.1792 9.33079 15.4326 9.22625 15.62 9.04C15.8063 8.85264 15.9108 8.59919 15.9108 8.335C15.9108 8.07081 15.8063 7.81736 15.62 7.63ZM10 0.5C8.02219 0.5 6.08879 1.08649 4.4443 2.1853C2.79981 3.28412 1.51809 4.8459 0.761209 6.67317C0.00433284 8.50043 -0.193701 10.5111 0.192152 12.4509C0.578004 14.3907 1.53041 16.1725 2.92894 17.5711C4.32746 18.9696 6.10929 19.922 8.0491 20.3079C9.98891 20.6937 11.9996 20.4957 13.8268 19.7388C15.6541 18.9819 17.2159 17.7002 18.3147 16.0557C19.4135 14.4112 20 12.4778 20 10.5C20 9.18678 19.7413 7.88642 19.2388 6.67317C18.7363 5.45991 17.9997 4.35752 17.0711 3.42893C16.1425 2.50035 15.0401 1.76375 13.8268 1.2612C12.6136 0.758658 11.3132 0.5 10 0.5ZM10 18.5C8.41775 18.5 6.87104 18.0308 5.55544 17.1518C4.23985 16.2727 3.21447 15.0233 2.60897 13.5615C2.00347 12.0997 1.84504 10.4911 2.15372 8.93928C2.4624 7.38743 3.22433 5.96197 4.34315 4.84315C5.46197 3.72433 6.88743 2.9624 8.43928 2.65372C9.99113 2.34504 11.5997 2.50346 13.0615 3.10896C14.5233 3.71447 15.7727 4.73984 16.6518 6.05544C17.5308 7.37103 18 8.91775 18 10.5C18 12.6217 17.1572 14.6566 15.6569 16.1569C14.1566 17.6571 12.1217 18.5 10 18.5Z" fill="#9A9A9A"/>
</svg>
