<svg width="32" height="32" viewBox="0 0 32 32" fill="none" xmlns="http://www.w3.org/2000/svg">
<path d="M0 6.4C0 2.86538 2.86538 0 6.4 0H25.6C29.1346 0 32 2.86538 32 6.4V25.6C32 29.1346 29.1346 32 25.6 32H6.4C2.86538 32 0 29.1346 0 25.6V6.4Z" fill="#2A2A2A"/>
<g clip-path="url(#clip0_7_53964)">
<path d="M16 9.58419C16 11.2487 15.3557 12.7658 14.3102 13.9035C14.2574 13.9667 14.2046 14.0194 14.1412 14.0826C13.9194 14.3039 13.6871 14.504 13.4442 14.6937C13.0957 14.957 12.7155 15.1783 12.3247 15.3679C12.2613 15.3995 12.1874 15.4311 12.124 15.4627C11.8917 15.5575 11.6594 15.6523 11.4059 15.7156C11.2792 15.7577 11.1524 15.7893 11.0257 15.8209C10.5716 15.9263 10.1069 15.9789 9.62107 15.9789H9.59995C9.15639 15.9789 8.73394 15.9368 8.3115 15.8525C8.13196 15.8209 7.96299 15.7682 7.79401 15.7261C7.55111 15.6523 7.3082 15.5681 7.07586 15.4732C7.02305 15.4522 6.95969 15.4206 6.90688 15.3995C6.50556 15.2099 6.12536 14.9886 5.76629 14.7253C5.51282 14.5356 5.26992 14.3249 5.04814 14.1037C4.99533 14.051 4.93196 13.9878 4.87916 13.9246C3.84418 12.7763 3.19995 11.2593 3.19995 9.58419C3.19995 6.05498 6.062 3.2 9.59995 3.2C13.1379 3.2 16 6.05498 16 9.58419Z" fill="#5664E6"/>
<path d="M10.518 9.47439H8.63837C8.08145 9.47439 7.61404 8.99703 7.52454 8.35061L7.35548 7.018C7.27592 6.44119 7.68366 5.8445 8.10134 5.48648C8.67815 4.99918 9.42402 5.13841 10.1301 5.13841C10.6671 5.13841 11.045 5.30748 11.3732 5.72516C11.6616 6.08318 11.8804 6.56053 11.8207 7.02794L11.6318 8.36056C11.5323 9.00698 11.0649 9.47439 10.518 9.47439Z" fill="#2E2E2E"/>
<path d="M11.1049 8.39039C10.8761 8.75835 10.896 9.19593 11.1546 9.36499C11.4131 9.53406 11.8109 9.37494 12.0397 9.00698C12.2684 8.63902 12.2485 8.20144 11.9899 8.03238C11.7314 7.86331 11.3336 8.02243 11.1049 8.39039Z" fill="#F5F5FF" stroke="#2E2E2E" stroke-width="0.248921" stroke-miterlimit="10" stroke-linecap="round" stroke-linejoin="round"/>
<path d="M11.791 8.21138C11.9004 8.25116 11.9899 8.36055 12.0098 8.47989C12.0297 8.59923 11.98 8.72851 11.8805 8.79813" stroke="#2E2E2E" stroke-width="0.248921" stroke-miterlimit="10" stroke-linecap="round" stroke-linejoin="round"/>
<path d="M8.00195 8.39039C8.23069 8.75835 8.2108 9.19593 7.95223 9.36499C7.69366 9.53406 7.29586 9.37494 7.06713 9.00698C6.8384 8.63902 6.85829 8.20144 7.11686 8.03238C7.37542 7.86331 7.76328 8.02243 8.00195 8.39039Z" fill="#F5F5FF" stroke="#2E2E2E" stroke-width="0.248921" stroke-miterlimit="10" stroke-linecap="round" stroke-linejoin="round"/>
<path d="M7.30587 8.21138C7.19648 8.25116 7.10698 8.36055 7.08709 8.47989C7.0672 8.59923 7.11692 8.72851 7.21637 8.79813" stroke="#2E2E2E" stroke-width="0.248921" stroke-miterlimit="10" stroke-linecap="round" stroke-linejoin="round"/>
<path d="M10.8362 12.8557C10.8561 13.522 10.3191 14.0789 9.6528 14.0789C8.99644 14.0789 8.46936 13.5518 8.46936 12.8954C8.46936 12.8855 8.46936 12.8656 8.46936 12.8557L8.59864 11.0954L8.62848 10.6479L8.69809 9.77274H10.5976L10.707 11.1551L10.7766 12.1695L10.8362 12.8557Z" fill="#F5F5FF" stroke="#2E2E2E" stroke-width="0.27791" stroke-miterlimit="10" stroke-linecap="round" stroke-linejoin="round"/>
<path d="M10.7766 12.1695C10.1501 12.2092 9.46385 11.9009 8.99644 11.3043C8.83733 11.1054 8.71799 10.8866 8.63843 10.6578L8.70804 9.78268H10.6075L10.7169 11.165L10.7766 12.1695Z" fill="#2E2E2E"/>
<path d="M11.6916 8.98709C11.6916 9.49428 11.4827 9.99153 11.1148 10.3396L10.5479 10.8567C10.3788 11.0457 10.1302 11.1551 9.8816 11.1551H9.35452C9.1059 11.1551 8.86722 11.0457 8.68821 10.8667L8.11141 10.3595C7.7335 10.0015 7.52466 9.51417 7.52466 8.99704L7.5346 8.83792L7.58433 7.94288L7.62411 7.27657C7.62411 6.17269 8.5092 5.27765 9.60314 5.27765C10.1501 5.27765 10.6474 5.50638 11.0054 5.8644C11.3634 6.22241 11.5822 6.7296 11.5822 7.27657L11.622 8.03239L11.6617 8.77825L11.6916 8.98709Z" fill="#F5F5FF" stroke="#2E2E2E" stroke-width="0.248921" stroke-miterlimit="10" stroke-linecap="round" stroke-linejoin="round"/>
<path d="M11.6318 8.02244H11.5721C11.2837 7.59481 11.0948 7.09756 11.0351 6.59037C10.9953 6.27213 10.5379 6.16274 10.2196 6.20252C10.0705 6.42131 9.82183 6.56054 9.56326 6.57048C9.3047 6.58043 9.04613 6.40142 8.88701 6.19258C8.56877 6.1528 8.11131 6.26219 8.07153 6.58043C8.01186 7.05778 7.8428 7.52519 7.58423 7.93293L7.62401 7.26662C7.62401 6.16274 8.5091 5.2677 9.60304 5.2677C10.15 5.2677 10.6473 5.49643 11.0053 5.85445C11.3633 6.21247 11.5821 6.71965 11.5821 7.26662L11.6318 8.02244Z" fill="#2E2E2E"/>
<path d="M11.6916 8.98709L11.6816 8.75835C11.5225 8.9672 11.3336 9.21582 11.2043 9.36499C11.0054 9.57384 10.6772 9.60367 10.3391 9.59373C10.2496 9.59373 10.1402 9.55395 10.0208 9.49428C9.73243 9.36499 9.37441 9.36499 9.08601 9.49428C8.96667 9.544 8.85727 9.58378 8.76777 9.59373C8.43959 9.60367 8.10146 9.57384 7.91251 9.36499C7.79317 9.23571 7.65394 9.01692 7.5346 8.81802L7.52466 8.98709C7.52466 9.07659 7.5346 9.16609 7.54455 9.24565C7.54455 9.23571 7.5346 9.23571 7.5346 9.22576L7.52466 9.38488C7.52466 9.90202 7.7335 10.3993 8.11141 10.7473L8.68821 11.2545C8.85727 11.4335 9.09595 11.5429 9.35452 11.5429H9.8816C10.1402 11.5429 10.3788 11.4335 10.5479 11.2446L11.1148 10.7374C11.4827 10.3794 11.6916 9.89207 11.6916 9.38488L11.6816 9.18598C11.6816 9.12632 11.6916 9.0567 11.6916 8.98709Z" fill="#2E2E2E"/>
<path d="M9.255 11.5429C9.37434 11.5429 9.48374 11.533 9.60308 11.533C9.71247 11.523 9.83181 11.533 9.9412 11.523C10.16 11.5032 10.3788 11.4037 10.5379 11.2446C10.6274 11.165 10.7268 11.0954 10.8164 11.0159C10.7368 11.1054 10.6473 11.1849 10.5578 11.2744C10.4086 11.4534 10.1799 11.5628 9.9412 11.5827C9.82186 11.5827 9.71247 11.5827 9.59313 11.5827C9.48374 11.5628 9.37434 11.5529 9.255 11.5429Z" fill="#F5F5FF"/>
<path d="M10.5379 10.0015C10.2794 10.27 9.93129 10.4192 9.58322 10.3993C9.26499 10.3893 8.9567 10.2501 8.71802 10.0114H8.77769C8.86719 10.0114 8.97659 9.9617 9.09592 9.90203C9.38433 9.75285 9.74234 9.75285 10.0307 9.90203C10.1501 9.9617 10.2595 10.0114 10.349 10.0114C10.3987 10.0214 10.4683 10.0114 10.5379 10.0015Z" fill="#F5F5FF"/>
<path d="M9.57332 10.2799C9.68272 10.3296 9.74239 10.3694 9.78216 10.4192C9.82194 10.4689 9.84183 10.5087 9.84183 10.5584C9.84183 10.6081 9.82194 10.6479 9.78216 10.6976C9.74239 10.7473 9.68272 10.7871 9.57332 10.8368C9.46393 10.7871 9.40426 10.7473 9.36448 10.6976C9.3247 10.6479 9.30481 10.6081 9.30481 10.5584C9.30481 10.5087 9.3247 10.4689 9.36448 10.4192C9.40426 10.3694 9.46393 10.3296 9.57332 10.2799Z" fill="#2E2E2E"/>
<path d="M10.0407 7.64452C10.1302 7.58485 10.2296 7.55502 10.339 7.52518C10.4484 7.49535 10.5578 7.4854 10.6772 7.4854C10.7965 7.4854 10.9158 7.51524 11.0252 7.57491C11.1346 7.63458 11.2241 7.71414 11.2639 7.82353C11.1545 7.78375 11.0551 7.77381 10.9656 7.76386C10.8761 7.76386 10.7866 7.77381 10.697 7.7937C10.518 7.82353 10.339 7.8832 10.1302 7.91304C10.0506 7.92298 9.98101 7.87326 9.97107 7.7937C9.97107 7.72408 10.0009 7.66441 10.0407 7.64452Z" fill="#2E2E2E"/>
<path d="M9.08599 7.89315C8.87715 7.86331 8.69814 7.80364 8.51913 7.77381C8.42963 7.75392 8.34012 7.74397 8.25062 7.74397C8.16111 7.74397 8.06166 7.76386 7.95227 7.80364C8.00199 7.70419 8.08155 7.61469 8.19095 7.55502C8.30034 7.49535 8.41968 7.47546 8.53902 7.46552C8.65836 7.46552 8.76775 7.47546 8.87715 7.50529C8.98654 7.53513 9.08599 7.57491 9.17549 7.62463C9.24511 7.66441 9.265 7.75392 9.22522 7.81359C9.18544 7.8832 9.13571 7.90309 9.08599 7.89315Z" fill="#2E2E2E"/>
<path d="M10.0804 8.48985C10.1103 8.45007 10.1401 8.40034 10.1699 8.36056C10.1998 8.32078 10.2396 8.27106 10.2893 8.24122C10.3788 8.17161 10.4882 8.12189 10.5976 8.11194C10.707 8.102 10.8263 8.11194 10.9357 8.16166C10.9854 8.18155 11.0352 8.21139 11.0849 8.25117C11.1247 8.281 11.1644 8.31084 11.1943 8.37051C11.2042 8.38045 11.1943 8.40034 11.1843 8.40034H11.1744C11.1147 8.3904 11.0749 8.36056 11.0252 8.33073C10.9854 8.30089 10.9457 8.281 10.8959 8.27106C10.8064 8.24122 10.707 8.23128 10.6175 8.23128C10.528 8.24122 10.4285 8.27106 10.349 8.32078C10.3092 8.34067 10.2694 8.38045 10.2296 8.41029C10.1898 8.45007 10.16 8.48985 10.1202 8.51968C10.1103 8.52963 10.1003 8.52963 10.0904 8.51968C10.0804 8.50974 10.0804 8.49979 10.0804 8.48985Z" fill="#2E2E2E"/>
<path d="M10.4484 8.33072C10.4583 8.23128 10.5478 8.15172 10.6472 8.16166C10.7467 8.17161 10.8263 8.26111 10.8163 8.36056C10.8064 8.46001 10.7169 8.53957 10.6174 8.52962C10.518 8.51968 10.4384 8.43017 10.4484 8.33072Z" fill="#2E2E2E"/>
<path d="M10.1202 8.50973C10.2097 8.55945 10.3092 8.57934 10.4186 8.57934" stroke="#2E2E2E" stroke-width="0.248921" stroke-miterlimit="10" stroke-linecap="round" stroke-linejoin="round"/>
<path d="M10.0905 8.29094C10.1899 8.15171 10.349 8.05226 10.528 8.03237" stroke="#2E2E2E" stroke-width="0.248921" stroke-miterlimit="10" stroke-linecap="round" stroke-linejoin="round"/>
<path d="M9.19544 8.51968C9.15566 8.4799 9.11588 8.45007 9.08605 8.41029C9.04627 8.38045 9.01644 8.34067 8.96671 8.32078C8.88715 8.27106 8.7877 8.24122 8.6982 8.23128C8.59875 8.22133 8.50925 8.23128 8.41974 8.27106C8.37002 8.29095 8.33024 8.31084 8.29046 8.33073C8.25068 8.36056 8.20095 8.3904 8.14128 8.40034C8.13134 8.40034 8.11145 8.3904 8.11145 8.38045C8.11145 8.37051 8.11145 8.37051 8.11145 8.37051C8.14128 8.32078 8.18106 8.29095 8.22084 8.25117C8.27057 8.22133 8.31035 8.18155 8.37002 8.16166C8.47941 8.11194 8.58881 8.102 8.70814 8.11194C8.81754 8.13183 8.92693 8.17161 9.01644 8.24122C9.06616 8.27106 9.09599 8.32078 9.13577 8.36056C9.16561 8.40034 9.19544 8.45007 9.22528 8.48985C9.23522 8.49979 9.22528 8.50974 9.21533 8.51968C9.20539 8.52963 9.19544 8.52963 9.19544 8.51968Z" fill="#2E2E2E"/>
<path d="M8.85733 8.33072C8.84738 8.23128 8.75788 8.15172 8.65843 8.16166C8.55898 8.17161 8.47942 8.26111 8.48937 8.36056C8.49931 8.46001 8.58882 8.53957 8.68826 8.52962C8.79766 8.51968 8.86727 8.43017 8.85733 8.33072Z" fill="#2E2E2E"/>
<path d="M9.18543 8.50973C9.09593 8.55945 8.99648 8.57934 8.88708 8.57934" stroke="#2E2E2E" stroke-width="0.248921" stroke-miterlimit="10" stroke-linecap="round" stroke-linejoin="round"/>
<path d="M9.21529 8.29094C9.11584 8.15171 8.95672 8.05226 8.77771 8.03237" stroke="#2E2E2E" stroke-width="0.248921" stroke-miterlimit="10" stroke-linecap="round" stroke-linejoin="round"/>
<path d="M9.64282 9.17603V8.28099" stroke="#2E2E2E" stroke-width="0.229827" stroke-miterlimit="10" stroke-linecap="round" stroke-linejoin="round"/>
<path d="M9.33459 9.32521L9.48377 9.38488C9.58322 9.42466 9.69261 9.42466 9.79206 9.38488L9.94123 9.32521" stroke="#2E2E2E" stroke-width="0.229827" stroke-miterlimit="10" stroke-linecap="round" stroke-linejoin="round"/>
<path d="M9.77222 10.0313C9.96117 10.0313 10.1501 10.0015 10.3092 9.90202" stroke="#2E2E2E" stroke-width="0.207749" stroke-miterlimit="10" stroke-linecap="round" stroke-linejoin="round"/>
<path d="M9.41422 10.0412C9.22527 10.0412 9.03632 10.0114 8.8772 9.91196" stroke="#2E2E2E" stroke-width="0.207749" stroke-miterlimit="10" stroke-linecap="round" stroke-linejoin="round"/>
<path d="M9.41418 10.0412C9.49374 10.1009 9.65286 10.1208 9.7722 10.0313" stroke="#2E2E2E" stroke-width="0.207749" stroke-miterlimit="10" stroke-linecap="round" stroke-linejoin="round"/>
<path d="M9.59302 9.60367C9.6328 9.51417 9.71236 9.46444 9.80186 9.44455C9.88142 9.42466 9.97092 9.42466 10.0405 9.44455C10.1997 9.47439 10.309 9.544 10.3886 9.57384L10.4881 9.61361C10.5179 9.62356 10.5378 9.6335 10.5875 9.6335C10.677 9.64345 10.8063 9.59372 10.9654 9.58378C10.9455 9.77273 10.8958 9.93185 10.7466 10.0611C10.677 10.1208 10.5776 10.1705 10.4781 10.1705C10.3787 10.1805 10.2892 10.1506 10.2096 10.1208C10.0604 10.0512 9.96098 9.9418 9.88142 9.86224C9.84164 9.81251 9.80186 9.77273 9.76208 9.72301C9.7223 9.68323 9.67258 9.64345 9.59302 9.60367Z" fill="#2E2E2E"/>
<path d="M9.5931 9.60367C9.51354 9.64344 9.46382 9.68322 9.42404 9.73295C9.38426 9.78267 9.34448 9.82245 9.3047 9.87218C9.22514 9.96168 9.13563 10.0611 8.97652 10.1307C8.89696 10.1606 8.80745 10.1904 8.708 10.1805C8.60855 10.1705 8.50911 10.1307 8.43949 10.0711C8.30026 9.94179 8.24059 9.78267 8.2207 9.59372C8.37982 9.61361 8.50911 9.65339 8.59861 9.64344C8.63839 9.64344 8.66822 9.6335 8.69806 9.62356L8.79751 9.58378C8.87707 9.55394 8.98646 9.48433 9.14558 9.45449C9.22514 9.44455 9.3047 9.4346 9.38426 9.45449C9.47376 9.46444 9.55332 9.51416 9.5931 9.60367Z" fill="#2E2E2E"/>
<path d="M13.8892 13.8899C13.6803 14.0988 13.4615 14.2877 13.2328 14.4667C12.9046 14.7153 12.5466 14.9242 12.1786 15.1032C12.119 15.133 12.0494 15.1629 11.9897 15.1927C11.9599 14.8546 12.0295 14.5363 12.1786 14.2678C12.3278 14.0192 12.5466 13.8303 12.8151 13.7407C12.9444 13.701 13.0637 13.6811 13.193 13.6811H13.203C13.2129 13.6811 13.2229 13.6811 13.2229 13.6811C13.4615 13.6811 13.6903 13.7606 13.8892 13.8899Z" fill="#F5F5FF" stroke="#2E2E2E" stroke-width="0.266026" stroke-miterlimit="10" stroke-linecap="round" stroke-linejoin="round"/>
<path d="M14.0483 13.7308C13.9986 13.7905 13.9489 13.8402 13.8892 13.8999C13.6803 14.1087 13.4616 14.2977 13.2328 14.4767C12.9046 14.7253 12.5466 14.9341 12.1787 15.1131C12.119 15.143 12.0494 15.1728 11.9897 15.2026C11.7709 15.2921 11.5521 15.3817 11.3135 15.4413C10.9753 14.5662 11.3632 13.5816 12.1787 13.2435C12.2085 13.2336 12.2383 13.2236 12.2582 13.2137C12.4273 13.154 12.5964 13.1242 12.7754 13.1242H12.8052C13.2826 13.1242 13.7301 13.3429 14.0483 13.7308Z" fill="#2E2E2E"/>
<path d="M7.24609 15.1828C7.19637 15.1629 7.1367 15.133 7.08697 15.1131C6.70907 14.9341 6.35105 14.7253 6.01292 14.4767C5.77425 14.2977 5.54551 14.0988 5.33667 13.8899C5.53557 13.7606 5.7643 13.6811 6.00298 13.6711C6.01292 13.6711 6.02287 13.6711 6.03281 13.6711H6.04276C6.1621 13.6711 6.29138 13.691 6.41072 13.7308C6.70907 13.8303 6.9378 14.049 7.08697 14.3275C7.21625 14.5761 7.27592 14.8745 7.24609 15.1828Z" fill="#F5F5FF" stroke="#2E2E2E" stroke-width="0.266026" stroke-miterlimit="10" stroke-linecap="round" stroke-linejoin="round"/>
<path d="M7.91239 15.4314C7.68366 15.3618 7.45493 15.2822 7.23614 15.1927C7.18642 15.1728 7.12675 15.143 7.07702 15.1231C6.69912 14.9441 6.3411 14.7352 6.00297 14.4866C5.7643 14.3076 5.53556 14.1087 5.32672 13.8999C5.277 13.8501 5.21733 13.7905 5.1676 13.7308C5.48584 13.343 5.95325 13.1142 6.44055 13.1142C6.60961 13.1142 6.78862 13.1441 6.95768 13.2037C6.99746 13.2137 7.03724 13.2336 7.07702 13.2534C7.88256 13.6015 8.25052 14.5662 7.91239 15.4314Z" fill="#2E2E2E"/>
<path d="M13.2329 14.4667C12.9047 14.7153 12.5467 14.9242 12.1787 15.1032C12.119 15.133 12.0494 15.1629 11.9898 15.1927C11.771 15.2822 11.5522 15.3717 11.3135 15.4314C11.1942 15.4712 11.0748 15.501 10.9555 15.5308C10.5279 15.6303 10.0903 15.68 9.63282 15.68H9.61293C9.19524 15.68 8.79745 15.6402 8.39965 15.5607C8.23059 15.5308 8.07147 15.4811 7.91235 15.4413C7.68362 15.3717 7.45488 15.2922 7.2361 15.2026C7.18637 15.1828 7.1267 15.1529 7.07698 15.133C6.69907 14.954 6.34106 14.7452 6.00293 14.4966L6.03276 13.7407V13.691L6.05265 13.2733L6.30128 13.1838L6.45045 13.1341L7.7234 12.6766L8.00185 12.5772L8.14108 12.5275L8.29026 12.4479L8.48915 12.3385H10.6969L10.7964 12.3882L11.0947 12.5275L11.1942 12.5672L11.2339 12.5772L11.5124 12.6766L12.8052 13.1441L12.9743 13.2037L13.203 13.2833L13.213 13.701V13.7507L13.2329 14.4667Z" fill="#F5F5FF" stroke="#2E2E2E" stroke-width="0.266026" stroke-miterlimit="10" stroke-linecap="round" stroke-linejoin="round"/>
<path d="M10.7665 12.2689L11.0648 12.4777L11.1941 12.5275C11.0947 13.3032 10.4383 13.8999 9.64271 13.8999C8.84712 13.8999 8.19076 13.3032 8.09131 12.5374L8.22059 12.4877L8.52888 12.249" fill="#F5F5FF"/>
<path d="M10.7665 12.2689L11.0648 12.4777L11.1941 12.5275C11.0947 13.3032 10.4383 13.8999 9.64271 13.8999C8.84712 13.8999 8.19076 13.3032 8.09131 12.5374L8.22059 12.4877L8.52888 12.249" stroke="#2E2E2E" stroke-width="0.256379" stroke-miterlimit="10" stroke-linecap="round" stroke-linejoin="round"/>
<path d="M7.08691 12.8855V13.2435V14.3275V15.1131" stroke="#2E2E2E" stroke-width="0.229827" stroke-miterlimit="10" stroke-linecap="round" stroke-linejoin="round"/>
<path d="M8.40955 15.5507V13.3032" stroke="#2E2E2E" stroke-width="0.229827" stroke-miterlimit="10" stroke-linecap="round" stroke-linejoin="round"/>
<path d="M9.63281 15.6701V14.0789V13.8999" stroke="#2E2E2E" stroke-width="0.229827" stroke-miterlimit="10" stroke-linecap="round" stroke-linejoin="round"/>
<path d="M10.9554 15.5209V13.1938" stroke="#2E2E2E" stroke-width="0.229827" stroke-miterlimit="10" stroke-linecap="round" stroke-linejoin="round"/>
<path d="M12.1787 15.1032V14.2678V13.2336V12.8855" stroke="#2E2E2E" stroke-width="0.229827" stroke-miterlimit="10" stroke-linecap="round" stroke-linejoin="round"/>
</g>
<g clip-path="url(#clip1_7_53964)">
<path d="M16 22.3842C16 24.0487 15.3557 25.5658 14.3102 26.7035C14.2574 26.7667 14.2046 26.8194 14.1412 26.8826C13.9194 27.1039 13.6871 27.304 13.4442 27.4937C13.0957 27.757 12.7155 27.9783 12.3247 28.1679C12.2613 28.1995 12.1874 28.2311 12.124 28.2627C11.8917 28.3575 11.6594 28.4523 11.4059 28.5156C11.2792 28.5577 11.1524 28.5893 11.0257 28.6209C10.5716 28.7263 10.1069 28.7789 9.62107 28.7789H9.59995C9.15639 28.7789 8.73394 28.7368 8.3115 28.6525C8.13196 28.6209 7.96299 28.5682 7.79401 28.5261C7.55111 28.4523 7.3082 28.3681 7.07586 28.2733C7.02305 28.2522 6.95969 28.2206 6.90688 28.1995C6.50556 28.0099 6.12536 27.7886 5.76629 27.5253C5.51282 27.3356 5.26992 27.1249 5.04814 26.9037C4.99533 26.851 4.93196 26.7878 4.87916 26.7246C3.84418 25.5763 3.19995 24.0593 3.19995 22.3842C3.19995 18.855 6.062 16 9.59995 16C13.1379 16 16 18.855 16 22.3842Z" fill="#ECCD6C"/>
<path d="M11.9256 20.6885C11.5924 20.1784 11.0049 19.8779 10.8646 19.2494C10.8032 18.9852 10.8383 18.6938 10.812 18.4205C10.7506 17.7556 10.3122 17.2364 9.75979 17.2C9.75103 17.2 9.74226 17.2 9.72472 17.2C9.69841 17.2 9.66334 17.2 9.63703 17.2C9.61073 17.2 9.57565 17.2 9.54935 17.2C9.54058 17.2 9.53181 17.2 9.51427 17.2C8.97063 17.2364 8.5322 17.7556 8.47082 18.4296C8.44451 18.7029 8.47959 18.9943 8.41821 19.2585C8.27791 19.887 7.69919 20.1875 7.35721 20.6976C7.04155 21.1804 6.95386 21.8817 7.15554 22.4464C7.31337 22.8927 7.62904 23.2935 7.59397 23.7762C7.56766 24.1224 7.36598 24.4229 7.35721 24.7691C7.33968 25.2336 7.69919 25.6435 8.07623 25.6708C8.45328 25.7072 10.812 25.7072 11.1978 25.6708C11.5749 25.6343 11.9344 25.2336 11.9169 24.7691C11.8993 24.4229 11.6976 24.1224 11.6801 23.7762C11.645 23.2935 11.9695 22.8927 12.1185 22.4464C12.3202 21.8726 12.2413 21.1712 11.9256 20.6885Z" fill="#2E2E2E"/>
<path d="M9.81226 17.4C10.3647 17.3362 10.9171 17.8372 11.0223 18.493C11.0662 18.7936 11.0311 19.1033 11.11 19.3947C11.2766 20.0505 11.9342 20.342 12.171 20.9614C12.3113 21.3439 12.2762 21.7993 12.1271 22.1819C11.9781 22.5645 11.7238 22.865 11.4607 23.1292" stroke="#2E2E2E" stroke-width="0.18492" stroke-miterlimit="10" stroke-linecap="round" stroke-linejoin="round"/>
<path d="M10.3032 19.4313C11.1625 20.3694 11.6536 21.7812 11.636 23.1839C11.636 23.4116 11.6185 23.6575 11.6974 23.867C11.7588 24.0401 11.8816 24.1676 11.9605 24.3224C12.1709 24.7505 12.0219 25.3881 11.6536 25.6067" stroke="#2E2E2E" stroke-width="0.18492" stroke-miterlimit="10" stroke-linecap="round" stroke-linejoin="round"/>
<path d="M9.25988 18.4384L9.07574 18.2562C8.8916 18.0831 9.04067 17.8463 9.35634 17.819C9.47033 17.8099 9.58432 17.8008 9.68954 17.8008C9.8123 17.8008 9.93506 17.8099 10.0491 17.819C10.3823 17.8554 10.5489 18.1105 10.3472 18.2835L10.1367 18.4657C10.0578 18.5386 9.92629 18.575 9.78599 18.575H9.62816C9.4791 18.5659 9.34757 18.5203 9.25988 18.4384Z" fill="#F5F5FF"/>
<path d="M8.3479 18.866C8.43559 18.7476 8.54958 18.6383 8.66357 18.5381C8.68987 18.5108 8.72495 18.4926 8.75125 18.4652L8.84771 18.4106L8.94416 18.3559C8.97923 18.3377 9.01431 18.3195 9.04938 18.3104C9.18968 18.2558 9.33874 18.2102 9.48781 18.192C9.63688 18.1738 9.79471 18.1738 9.94377 18.2011C10.0665 18.2193 10.1805 18.2558 10.2857 18.3013C10.3997 18.3468 10.4962 18.4106 10.6014 18.4744C10.654 18.5017 10.6979 18.5472 10.7417 18.5837C10.7856 18.6201 10.8294 18.6565 10.8732 18.7021C10.9522 18.7931 11.0311 18.8842 11.0925 18.9844C11.0135 18.8933 10.9346 18.8114 10.8469 18.7294C10.8031 18.693 10.7592 18.6565 10.7066 18.6201C10.6628 18.5837 10.6102 18.5472 10.5663 18.5199C10.4699 18.4652 10.3647 18.4106 10.2594 18.3651C10.1542 18.3286 10.0402 18.2922 9.93501 18.274C9.65441 18.2193 9.35628 18.2649 9.08446 18.3651C9.04938 18.3742 9.01431 18.3924 8.97923 18.4106L8.88278 18.4652L8.78633 18.5199C8.75125 18.5381 8.72495 18.5563 8.69864 18.5837C8.56711 18.6565 8.45312 18.7567 8.3479 18.866Z" fill="#F5F5FF"/>
<path d="M10.6716 25.3879C10.6891 25.9891 10.2332 26.4901 9.67198 26.4901C9.11956 26.4901 8.67236 26.0073 8.67236 25.4244C8.67236 25.4153 8.67236 25.3971 8.67236 25.3879L8.78635 23.794L8.80389 23.5936L8.8302 23.2475L8.87404 22.6008H10.4875L10.5488 23.63L10.5664 23.8577L10.619 24.6228L10.6716 25.3879Z" fill="#F5F5FF" stroke="#2E2E2E" stroke-width="0.2" stroke-miterlimit="10"/>
<path d="M10.6189 24.6228C10.1104 24.6866 9.53164 24.4316 9.14583 23.9215C8.98799 23.712 8.88277 23.4843 8.81262 23.2475L8.85646 22.6008H10.4699L10.5488 23.63L10.5663 23.8577L10.6189 24.6228Z" fill="#2E2E2E"/>
<path d="M11.0746 21.0054C10.8729 21.3424 10.8905 21.7431 11.1184 21.898C11.3464 22.0528 11.6972 21.9071 11.8988 21.5701C12.1005 21.2331 12.083 20.8323 11.855 20.6775C11.627 20.5226 11.2763 20.6684 11.0746 21.0054Z" fill="#F5F5FF" stroke="#2E2E2E" stroke-width="0.2" stroke-miterlimit="10"/>
<path d="M11.6799 20.8426C11.7764 20.879 11.8553 20.9792 11.8728 21.0885C11.8904 21.1978 11.8465 21.3162 11.7588 21.38" stroke="#2E2E2E" stroke-width="0.2" stroke-miterlimit="10" stroke-linecap="round" stroke-linejoin="round"/>
<path d="M8.33914 21.0054C8.54082 21.3424 8.52328 21.7431 8.2953 21.898C8.06732 22.0528 7.71658 21.9071 7.5149 21.5701C7.31322 21.2331 7.33076 20.8323 7.55874 20.6775C7.78672 20.5226 8.13747 20.6684 8.33914 21.0054Z" fill="#F5F5FF" stroke="#2E2E2E" stroke-width="0.2" stroke-miterlimit="10"/>
<path d="M7.72541 20.8426C7.62895 20.879 7.55003 20.9792 7.5325 21.0885C7.51496 21.1978 7.5588 21.3162 7.64649 21.38" stroke="#2E2E2E" stroke-width="0.2" stroke-miterlimit="10" stroke-linecap="round" stroke-linejoin="round"/>
<path d="M11.5748 20.5428C11.5748 20.5702 11.5748 20.6066 11.5748 20.6339C11.5748 20.725 11.5661 20.8161 11.5573 20.9072L11.5485 21.0347L11.5398 21.1076V21.1531L11.531 21.2078C11.5222 21.2715 11.5222 21.3262 11.5222 21.3899C11.5222 21.4081 11.5222 21.4172 11.5222 21.4355C11.5222 21.4537 11.5222 21.481 11.5222 21.5083C11.5135 21.6632 11.5047 21.8089 11.4871 21.9637V21.9729C11.4784 22.0002 11.4784 22.0275 11.4696 22.0548C11.4608 22.0822 11.4608 22.1186 11.4521 22.1459C11.4433 22.1915 11.4345 22.237 11.417 22.2825C11.4082 22.3008 11.4082 22.3099 11.3995 22.3281C11.3907 22.3645 11.3732 22.3918 11.3644 22.4283C11.3293 22.5194 11.2855 22.6013 11.2416 22.6833C11.0487 23.0385 10.7418 23.3664 10.4437 23.5759C10.4437 23.5759 10.4437 23.5759 10.4349 23.5759C10.3998 23.6033 10.3648 23.6306 10.3297 23.6488C9.96142 23.8856 9.53176 23.8947 9.14595 23.6943C9.06703 23.6488 8.98811 23.6033 8.91797 23.5486C8.61984 23.3391 8.36555 23.0294 8.18141 22.6833C8.16387 22.656 8.1551 22.6378 8.13757 22.6104C8.1288 22.6013 8.1288 22.5831 8.12003 22.574C8.11126 22.5558 8.10249 22.5285 8.08495 22.5103C8.05865 22.4556 8.03234 22.3918 8.00604 22.3281C7.99727 22.3099 7.9885 22.2916 7.9885 22.2734C7.90082 22.0275 7.86574 21.7634 7.8482 21.4901C7.8482 21.4628 7.83944 21.4355 7.83944 21.4081C7.83944 21.3899 7.83944 21.3808 7.83944 21.3626C7.83944 21.3171 7.83067 21.2715 7.83067 21.226L7.8219 21.0985C7.8219 21.0893 7.8219 21.0711 7.81313 21.062C7.81313 21.0438 7.80436 21.0347 7.80436 21.0165C7.79559 20.9618 7.78682 20.9072 7.78682 20.8434C7.78682 20.8161 7.77806 20.7888 7.77806 20.7614C7.76929 20.6886 7.76929 20.6157 7.76929 20.5428C7.76929 20.5337 7.76929 20.5246 7.76929 20.5155C7.76929 20.4518 7.76929 20.388 7.77806 20.3242C7.77806 20.2696 7.78682 20.2149 7.79559 20.1694C7.83944 19.8506 7.93589 19.5591 8.07619 19.3041C8.11126 19.2403 8.14633 19.1766 8.19018 19.1219C8.3217 18.9216 8.48831 18.7485 8.67245 18.6119C8.68998 18.6028 8.69875 18.5937 8.71629 18.5845C8.73383 18.5754 8.75136 18.5572 8.7689 18.5481C8.83905 18.5026 8.90043 18.4661 8.97058 18.4388C9.26871 18.3022 9.61945 18.2384 9.93512 18.3022C9.95265 18.3022 9.97019 18.3113 9.97896 18.3113C10.1105 18.3386 10.2332 18.3751 10.356 18.4388C10.3911 18.457 10.4349 18.4752 10.47 18.4935C10.5226 18.5208 10.5752 18.5572 10.6278 18.5937L10.6366 18.6028C10.6892 18.6392 10.7418 18.6847 10.7944 18.7212C10.9435 18.8487 11.075 19.0126 11.189 19.1857C11.2153 19.2312 11.2416 19.2768 11.2679 19.3223C11.2767 19.3314 11.2855 19.3496 11.2942 19.3679C11.417 19.6138 11.5047 19.887 11.5485 20.1785C11.5485 20.1785 11.5485 20.1785 11.5485 20.1876C11.5573 20.2423 11.5573 20.2878 11.5661 20.3425C11.5748 20.4062 11.5748 20.47 11.5748 20.5337C11.5748 20.5246 11.5748 20.5337 11.5748 20.5428Z" fill="#F5F5FF" stroke="#2E2E2E" stroke-width="0.2" stroke-miterlimit="10"/>
<path d="M11.5749 20.5426C11.5749 20.5699 11.5749 20.6064 11.5749 20.6337C11.5749 20.7248 11.5661 20.8158 11.5573 20.9069L11.5485 21.0344L11.5398 21.1073V21.1529L11.531 21.2075C11.5222 21.2713 11.5222 21.3259 11.5222 21.3897C11.5222 21.4079 11.5222 21.417 11.5222 21.4352C11.3206 20.9251 11.2241 20.3695 11.2504 19.823C11.1014 19.5407 10.8821 19.3312 10.5928 19.1946C10.3999 19.1035 10.1894 19.0579 9.97898 19.0579C9.88252 19.0579 9.7773 19.067 9.68085 19.0944C9.37395 19.0215 9.04951 19.067 8.76892 19.2037C8.48833 19.3403 8.26035 19.5407 8.11128 19.8321C8.13759 20.3786 8.0499 20.9251 7.84822 21.4261C7.84822 21.4079 7.84822 21.3988 7.84822 21.3806C7.84822 21.335 7.83946 21.2895 7.83946 21.2439L7.83069 21.1164C7.83069 21.1073 7.83069 21.0891 7.82192 21.08C7.82192 21.0618 7.81315 21.0527 7.81315 21.0344C7.80438 20.9798 7.79561 20.9251 7.79561 20.8614C7.79561 20.8341 7.78684 20.8067 7.78684 20.7794C7.77808 20.7065 7.77808 20.6337 7.77808 20.5608C7.77808 20.5517 7.77808 20.5426 7.77808 20.5335C7.77808 20.4697 7.77808 20.406 7.78684 20.3422C7.78684 20.2876 7.79561 20.2329 7.80438 20.1874C7.84822 19.8686 7.94468 19.5771 8.08497 19.3221C8.12005 19.2583 8.15512 19.1946 8.19897 19.1399C8.33049 18.9395 8.4971 18.7665 8.68124 18.6298C8.69877 18.6207 8.70754 18.6116 8.72508 18.6025C8.74262 18.5934 8.76015 18.5752 8.77769 18.5661C8.84784 18.5205 8.90922 18.4841 8.97937 18.4568C9.2775 18.3202 9.62824 18.2564 9.9439 18.3202C9.96144 18.3202 9.97898 18.3293 9.98775 18.3293C10.1193 18.3566 10.242 18.393 10.3648 18.4568C10.3999 18.475 10.4437 18.4932 10.4788 18.5114C10.5314 18.5388 10.584 18.5752 10.6366 18.6116L10.6454 18.6207C10.698 18.6572 10.7506 18.7027 10.8032 18.7391C10.9523 18.8667 11.0838 19.0306 11.1978 19.2037C11.2241 19.2492 11.2504 19.2947 11.2767 19.3403C11.2855 19.3494 11.2943 19.3676 11.303 19.3858C11.4258 19.6318 11.5135 19.905 11.5573 20.1965C11.5573 20.1965 11.5573 20.1965 11.5573 20.2056C11.5661 20.2602 11.5661 20.3058 11.5749 20.3604C11.5836 20.4242 11.5836 20.4879 11.5836 20.5517C11.5749 20.5244 11.5749 20.5335 11.5749 20.5426Z" fill="#2E2E2E"/>
<path d="M10.7592 19.1664C10.7942 19.4305 11.0047 19.6491 11.2414 19.6765" stroke="#2E2E2E" stroke-width="0.19288" stroke-miterlimit="10" stroke-linecap="round" stroke-linejoin="round"/>
<path d="M10.6891 19.0207C10.6979 19.2484 10.7855 19.467 10.9258 19.631C11.0661 19.7949 11.2678 19.9042 11.4695 19.9224" stroke="#2E2E2E" stroke-width="0.19288" stroke-miterlimit="10" stroke-linecap="round" stroke-linejoin="round"/>
<path d="M10.6979 19.148C10.7066 19.3758 10.7943 19.5944 10.9346 19.7583C11.0749 19.9223 11.2766 20.0316 11.4783 20.0498" stroke="#2E2E2E" stroke-width="0.19288" stroke-miterlimit="10" stroke-linecap="round" stroke-linejoin="round"/>
<path d="M8.58456 19.1664C8.54949 19.4305 8.33905 19.6491 8.10229 19.6765" stroke="#2E2E2E" stroke-width="0.19288" stroke-miterlimit="10" stroke-linecap="round" stroke-linejoin="round"/>
<path d="M8.65467 19.0207C8.6459 19.2484 8.55821 19.467 8.41792 19.631C8.27762 19.7949 8.07594 19.9042 7.87427 19.9224" stroke="#2E2E2E" stroke-width="0.19288" stroke-miterlimit="10" stroke-linecap="round" stroke-linejoin="round"/>
<path d="M8.64588 19.148C8.63711 19.3758 8.54942 19.5944 8.40913 19.7583C8.26883 19.9223 8.06715 20.0316 7.86548 20.0498" stroke="#2E2E2E" stroke-width="0.19288" stroke-miterlimit="10" stroke-linecap="round" stroke-linejoin="round"/>
<path d="M10.1804 20.7327C10.2155 20.6234 10.2856 20.5415 10.3733 20.4777C10.461 20.414 10.5662 20.3866 10.6802 20.3775C10.7854 20.3684 10.8994 20.3957 10.9959 20.4413C11.0923 20.4868 11.18 20.5688 11.2239 20.669C11.1187 20.6599 11.031 20.6508 10.9433 20.6508C10.8556 20.6508 10.7767 20.6508 10.6978 20.6508C10.6188 20.6599 10.5399 20.6599 10.461 20.6781C10.3733 20.6872 10.2856 20.7054 10.1804 20.7327Z" fill="#2E2E2E"/>
<path d="M9.25112 20.7327C9.1459 20.7054 9.05821 20.6872 8.97929 20.6781C8.90038 20.669 8.82146 20.6599 8.74254 20.6508C8.66363 20.6417 8.58471 20.6417 8.49702 20.6508C8.40934 20.6508 8.32165 20.6599 8.21643 20.669C8.26027 20.5688 8.34796 20.4868 8.44441 20.4413C8.54087 20.3957 8.64609 20.3684 8.76008 20.3775C8.8653 20.3866 8.97052 20.4231 9.06698 20.4777C9.1459 20.5324 9.22481 20.6234 9.25112 20.7327Z" fill="#2E2E2E"/>
<path d="M10.119 21.3139C10.1453 21.2774 10.1716 21.2319 10.1979 21.1954C10.2242 21.159 10.2593 21.1135 10.3032 21.0861C10.3821 21.0224 10.4785 20.986 10.575 20.9677C10.6714 20.9586 10.7767 20.9677 10.8731 21.0042C10.917 21.0224 10.9608 21.0497 11.0046 21.077C11.0397 21.1044 11.0748 21.1317 11.1099 21.1681L11.0836 21.159C11.0836 21.159 11.0923 21.159 11.1099 21.159C11.1186 21.159 11.1362 21.1499 11.1449 21.1408C11.1712 21.1317 11.1975 21.1135 11.2151 21.0953C11.2239 21.0861 11.2326 21.0953 11.2414 21.1044C11.2502 21.1135 11.2502 21.1226 11.2414 21.1317C11.2239 21.159 11.1975 21.1772 11.18 21.2046C11.1712 21.2137 11.1537 21.2228 11.1449 21.2319C11.1274 21.241 11.1186 21.2501 11.0836 21.2592C11.0748 21.2592 11.066 21.2592 11.066 21.2501H11.0573C11.0134 21.2228 10.9783 21.1954 10.9433 21.1681C10.9082 21.1408 10.8731 21.1226 10.8293 21.1044C10.7504 21.0679 10.6627 21.0588 10.5838 21.0679C10.4961 21.077 10.4171 21.1044 10.347 21.1499C10.3119 21.1681 10.2769 21.2046 10.2418 21.2319C10.2067 21.2683 10.1804 21.3047 10.1453 21.3321C10.1366 21.3412 10.1278 21.3412 10.119 21.3321C10.119 21.3321 10.119 21.323 10.119 21.3139Z" fill="#2E2E2E"/>
<path d="M10.4435 21.1685C10.4523 21.0774 10.5312 21.0046 10.6189 21.0137C10.7065 21.0228 10.7767 21.1047 10.7679 21.1958C10.7592 21.2869 10.6802 21.3598 10.5926 21.3507C10.5049 21.3416 10.4347 21.2687 10.4435 21.1685Z" fill="#2E2E2E"/>
<path d="M10.9258 21.305C10.9872 21.2868 11.0398 21.2595 11.0924 21.223" stroke="#2E2E2E" stroke-width="0.2" stroke-miterlimit="10" stroke-linecap="round" stroke-linejoin="round"/>
<path d="M10.1278 21.1337C10.2155 21.0062 10.3558 20.9151 10.5136 20.8969" stroke="#2E2E2E" stroke-width="0.2" stroke-miterlimit="10" stroke-linecap="round" stroke-linejoin="round"/>
<path d="M9.28599 21.3432C9.25092 21.3068 9.22461 21.2795 9.18954 21.243C9.15447 21.2157 9.12816 21.1793 9.08432 21.1611C9.01417 21.1155 8.92648 21.0882 8.84757 21.0791C8.75988 21.07 8.68096 21.0791 8.60205 21.1155C8.5582 21.1337 8.52313 21.152 8.48806 21.1793C8.45298 21.2066 8.40914 21.2339 8.37407 21.2613H8.3653C8.35653 21.2613 8.35653 21.2704 8.34776 21.2704C8.32145 21.2704 8.30392 21.2521 8.28638 21.243C8.26884 21.2339 8.26007 21.2248 8.25131 21.2157C8.225 21.1975 8.20746 21.1702 8.18993 21.1428C8.18116 21.1337 8.18116 21.1246 8.18993 21.1155C8.19869 21.1064 8.20746 21.1064 8.21623 21.1155C8.23377 21.1337 8.26007 21.1428 8.28638 21.1611C8.29515 21.1702 8.31269 21.1702 8.32145 21.1793C8.33022 21.1793 8.34776 21.1884 8.34776 21.1793L8.32145 21.1884C8.35653 21.1611 8.3916 21.1337 8.42668 21.0973C8.47052 21.07 8.51436 21.0427 8.5582 21.0244C8.65466 20.988 8.75111 20.9698 8.85634 20.988C8.95279 21.0062 9.04924 21.0427 9.12816 21.1064C9.172 21.1337 9.19831 21.1793 9.23338 21.2157C9.25969 21.2521 9.28599 21.2977 9.3123 21.3341C9.32107 21.3432 9.3123 21.3523 9.30353 21.3614C9.30353 21.3523 9.29476 21.3523 9.28599 21.3432Z" fill="#2E2E2E"/>
<path d="M8.99644 21.1701C8.98767 21.079 8.90876 21.0061 8.82107 21.0152C8.73339 21.0243 8.66324 21.1063 8.67201 21.1974C8.68077 21.2885 8.75969 21.3613 8.84738 21.3522C8.93506 21.3431 9.00521 21.2703 8.99644 21.1701Z" fill="#2E2E2E"/>
<path d="M8.50535 21.307C8.44397 21.2888 8.39136 21.2614 8.33875 21.225" stroke="#2E2E2E" stroke-width="0.2" stroke-miterlimit="10" stroke-linecap="round" stroke-linejoin="round"/>
<path d="M9.30354 21.1337C9.21585 21.0062 9.07556 20.9151 8.91772 20.8969" stroke="#2E2E2E" stroke-width="0.2" stroke-miterlimit="10" stroke-linecap="round" stroke-linejoin="round"/>
<path d="M9.79468 22.3001C9.83852 22.2819 9.87359 22.2454 9.90867 22.209" stroke="#2E2E2E" stroke-width="0.2" stroke-miterlimit="10" stroke-linecap="round" stroke-linejoin="round"/>
<path d="M9.64561 22.3001C9.60176 22.2819 9.56669 22.2454 9.53162 22.209" stroke="#2E2E2E" stroke-width="0.2" stroke-miterlimit="10" stroke-linecap="round" stroke-linejoin="round"/>
<path d="M9.69812 21.4988V22.1" stroke="#2E2E2E" stroke-width="0.2" stroke-miterlimit="10"/>
<path d="M10.2857 22.7554L10.2681 22.7736C10.2155 22.801 10.1541 22.801 10.0928 22.7919C10.0314 22.7827 9.97876 22.7736 9.91738 22.7827C9.84723 22.7919 9.78585 22.8192 9.71571 22.8374C9.64556 22.8192 9.58418 22.7919 9.51403 22.7827C9.45265 22.7736 9.39127 22.7919 9.33866 22.7919C9.27728 22.801 9.2159 22.801 9.16329 22.7736L9.14575 22.7554C9.20713 22.7554 9.31235 22.719 9.3562 22.6826L9.37373 22.6643C9.41758 22.6279 9.47019 22.5915 9.53157 22.5732C9.59295 22.555 9.67186 22.5641 9.71571 22.6097C9.75955 22.5641 9.83847 22.555 9.89985 22.5732C9.96123 22.5915 10.0051 22.6279 10.0577 22.6643L10.0752 22.6826C10.1191 22.719 10.2243 22.7554 10.2857 22.7554Z" fill="#2E2E2E"/>
<path d="M9.52271 23.1016C9.53147 23.1016 9.54024 23.1107 9.54901 23.1107C9.58408 23.1198 9.61039 23.1289 9.64546 23.1289C9.65423 23.1289 9.663 23.1289 9.67177 23.1289C9.68054 23.1289 9.68931 23.1289 9.68931 23.1289H9.69808" stroke="#2E2E2E" stroke-width="0.15232" stroke-miterlimit="10" stroke-linecap="round" stroke-linejoin="round"/>
<path d="M10.2681 22.7736C10.2155 22.9103 10.1103 23.0196 9.96999 23.0833C9.89108 23.1198 9.80339 23.138 9.71571 23.138H9.70694C9.69817 23.138 9.6894 23.138 9.6894 23.138C9.68063 23.138 9.67186 23.138 9.6631 23.138C9.62802 23.138 9.59295 23.1289 9.56664 23.1198C9.53157 23.1106 9.50526 23.1015 9.47019 23.0833C9.32989 23.0196 9.22467 22.9103 9.17206 22.7736C9.22467 22.801 9.28605 22.801 9.34743 22.7919C9.40881 22.7827 9.46142 22.7736 9.5228 22.7827C9.59295 22.7919 9.65433 22.8192 9.72448 22.8374C9.79462 22.8192 9.856 22.7919 9.92615 22.7827C9.98753 22.7736 10.0489 22.7919 10.1015 22.7919C10.1541 22.801 10.2155 22.801 10.2681 22.7736ZM10.2681 22.7736L10.2857 22.7554C10.2243 22.7554 10.1103 22.719 10.0664 22.6826L10.0489 22.6643C10.0051 22.6279 9.95246 22.5915 9.89108 22.5732C9.8297 22.555 9.75078 22.5641 9.70694 22.6097C9.6631 22.5641 9.58418 22.555 9.5228 22.5732C9.46142 22.5915 9.41758 22.6279 9.36497 22.6643L9.34743 22.6826C9.31235 22.719 9.20713 22.7554 9.14575 22.7554L9.16329 22.7736" stroke="#2E2E2E" stroke-width="0.15232" stroke-miterlimit="10" stroke-linecap="round" stroke-linejoin="round"/>
<path d="M10.2593 22.7918C10.1979 22.8373 10.1015 22.8738 9.98747 22.9011C9.89979 22.9193 9.80333 22.9284 9.71565 22.9284C9.70688 22.9284 9.70688 22.9284 9.69811 22.9284C9.68934 22.9284 9.68057 22.9284 9.6718 22.9284C9.66304 22.9284 9.65427 22.9284 9.63673 22.9284C9.60166 22.9284 9.56658 22.9193 9.53151 22.9193C9.49643 22.9193 9.46136 22.9102 9.42628 22.9011C9.32106 22.8829 9.24215 22.8464 9.172 22.81" stroke="#2E2E2E" stroke-width="0.11348" stroke-miterlimit="10" stroke-linecap="round" stroke-linejoin="round"/>
<path d="M7.58515 27.2184L7.3747 27.7285C7.03273 27.5645 6.71706 27.3641 6.41893 27.1273C6.15587 26.9178 5.90159 26.681 5.68237 26.4169C5.8139 26.0252 6.09449 25.7429 6.41016 25.6336C6.51538 25.5971 6.62061 25.5789 6.7346 25.5789C6.83105 25.5789 6.93627 25.5971 7.03273 25.6336C7.59391 25.843 7.8482 26.5717 7.58515 27.2184Z" fill="#F5F5FF" stroke="#2E2E2E" stroke-width="0.2" stroke-miterlimit="10"/>
<path d="M8.03236 27.0545L7.69915 27.8743C7.59393 27.8287 7.48871 27.7832 7.38349 27.7377C7.04151 27.5737 6.72585 27.3733 6.42772 27.1365C6.16466 26.927 5.91037 26.6902 5.69116 26.4261C5.63855 26.3623 5.58594 26.2985 5.53333 26.2348L5.72623 25.8887C5.96298 25.4059 6.42772 25.1145 6.90122 25.1145C6.93629 25.1145 6.97137 25.1145 6.99767 25.1145C7.10289 25.1236 7.19935 25.1418 7.2958 25.1782C7.36595 25.2055 7.4361 25.2329 7.49748 25.2693C7.63777 25.3513 7.76053 25.4606 7.85699 25.5972C8.15512 25.998 8.23403 26.5536 8.03236 27.0545Z" fill="#2E2E2E"/>
<path d="M14.6002 27.7194C14.5914 27.7103 14.5914 27.7012 14.5826 27.7012C14.5826 27.7103 14.5914 27.7103 14.6002 27.7194Z" fill="#2E2E2E"/>
<path d="M13.5917 26.426C13.3374 26.7266 13.0481 26.9907 12.7324 27.2275C12.4694 27.4188 12.1975 27.5919 11.9082 27.7376L11.8906 27.692L11.689 27.2184C11.4259 26.5626 11.6802 25.8339 12.2326 25.6336C12.3291 25.5971 12.4343 25.5789 12.5307 25.5789C12.6184 25.5789 12.7061 25.588 12.7938 25.6153H12.8026C13.1445 25.7246 13.4514 26.0252 13.5917 26.426Z" fill="#F5F5FF" stroke="#2E2E2E" stroke-width="0.2" stroke-miterlimit="10"/>
<path d="M13.5567 25.8978L13.7496 26.2439C13.6969 26.3077 13.6443 26.3715 13.5917 26.4352C13.3374 26.7358 13.0481 26.9999 12.7324 27.2367C12.4694 27.428 12.1975 27.6011 11.9082 27.7468C11.8029 27.7924 11.6977 27.847 11.5925 27.8925L11.2593 27.0728C11.0576 26.5718 11.1365 26.0162 11.4171 25.6337C11.5224 25.497 11.6451 25.3786 11.7942 25.2967C11.8556 25.2602 11.9169 25.2329 11.9783 25.2056C12.0748 25.1691 12.18 25.1509 12.2852 25.1418C12.3203 25.1418 12.3466 25.1418 12.3817 25.1418C12.8552 25.1236 13.3199 25.4151 13.5567 25.8978Z" fill="#2E2E2E"/>
<path d="M14.6002 27.7194C14.5914 27.7103 14.5914 27.7012 14.5826 27.7012C14.5826 27.7103 14.5914 27.7103 14.6002 27.7194Z" fill="#2E2E2E"/>
<path d="M12.8201 26.7724L12.7236 27.2278C12.4606 27.4191 12.1887 27.5922 11.8994 27.7379C11.7942 27.7834 11.6889 27.8381 11.5837 27.8836C10.9787 28.1296 10.321 28.2662 9.63709 28.2662C8.95315 28.2662 8.29551 28.1296 7.69048 27.8836C7.58526 27.8381 7.48003 27.7926 7.37481 27.747C7.03284 27.5831 6.71717 27.3827 6.41904 27.1459L6.34889 26.7815C6.25244 26.3625 6.26998 25.9618 6.41027 25.6521C6.41027 25.6521 6.41027 25.643 6.41904 25.6339C6.53303 25.3879 6.72594 25.2058 6.99776 25.1329C7.0153 25.1329 7.02407 25.1238 7.04161 25.1238C7.12052 25.1056 7.19944 25.0965 7.28713 25.0965H12.0046C12.0923 25.0965 12.1624 25.1056 12.2413 25.1238C12.2501 25.1238 12.2677 25.1329 12.2764 25.1329C12.5395 25.2058 12.7061 25.3788 12.8025 25.6157C12.8025 25.6248 12.8025 25.6248 12.8113 25.6339C12.9253 25.9345 12.9165 26.3534 12.8201 26.7724Z" fill="#F5F5FF" stroke="#2E2E2E" stroke-width="0.2" stroke-miterlimit="10" stroke-linecap="round" stroke-linejoin="round"/>
<path d="M10.6366 25.0328L11.0136 25.0875C10.8032 25.6613 10.2595 26.0985 9.66328 26.1258C9.02318 26.1531 8.40061 25.6977 8.1814 25.0875L8.70751 25.0328" fill="#F5F5FF"/>
<path d="M10.6366 25.0328L11.0136 25.0875C10.8032 25.6613 10.2595 26.0985 9.66328 26.1258C9.02318 26.1531 8.40061 25.6977 8.1814 25.0875L8.70751 25.0328" stroke="#2E2E2E" stroke-width="0.2" stroke-miterlimit="10" stroke-linecap="round" stroke-linejoin="round"/>
</g>
<g clip-path="url(#clip2_7_53964)">
<path d="M28.8 9.58419C28.8 11.2487 28.1558 12.7658 27.1102 13.9035C27.0574 13.9667 27.0046 14.0194 26.9413 14.0826C26.7195 14.3039 26.4871 14.504 26.2442 14.6937C25.8957 14.957 25.5155 15.1783 25.1248 15.3679C25.0614 15.3995 24.9875 15.4311 24.9241 15.4627C24.6917 15.5575 24.4594 15.6523 24.2059 15.7156C24.0792 15.7577 23.9525 15.7893 23.8257 15.8209C23.3716 15.9263 22.9069 15.9789 22.4211 15.9789H22.4C21.9564 15.9789 21.534 15.9368 21.1116 15.8525C20.932 15.8209 20.763 15.7682 20.5941 15.7261C20.3512 15.6523 20.1083 15.5681 19.8759 15.4732C19.8231 15.4522 19.7597 15.4206 19.7069 15.3995C19.3056 15.2099 18.9254 14.9886 18.5663 14.7253C18.3129 14.5356 18.07 14.3249 17.8482 14.1037C17.7954 14.051 17.732 13.9878 17.6792 13.9246C16.6442 12.7763 16 11.2593 16 9.58419C16 6.05498 18.862 3.2 22.4 3.2C25.938 3.2 28.8 6.05498 28.8 9.58419Z" fill="#9DD961"/>
<path d="M26.3683 9.45326C26.6137 9.2505 26.5924 8.89835 26.4643 8.59955C26.3363 8.30075 26.0055 8.10866 25.6853 8.15135C25.9414 7.96993 25.9094 7.6071 25.76 7.32965C25.6106 7.05219 25.2478 6.91346 24.9597 7.02018C25.2371 6.80675 25.2371 6.44392 25.0664 6.14512C24.9917 6.01706 24.8743 5.92102 24.7462 5.85699C24.6715 5.56886 24.5008 5.30208 24.266 5.12066C24.0739 4.98193 23.8392 4.90723 23.5937 4.88589C23.3163 4.69381 22.9641 4.58709 22.6653 4.72582C21.8223 4.42702 20.8085 4.67246 20.2109 5.33409C20.1148 5.44081 20.0188 5.56886 19.9868 5.71826C19.9654 5.86766 20.0295 6.0384 20.1682 6.09176C19.7947 5.91035 19.4639 6.04908 19.1757 6.35855C18.8876 6.65735 18.8236 7.1589 19.0263 7.52173C18.7062 7.5324 18.4394 7.9059 18.3647 8.22605C18.29 8.53552 18.4394 8.89835 18.7275 9.04775C18.3327 9.09043 18.1833 9.63467 18.3007 10.0188C18.3754 10.2643 18.6208 10.435 18.8769 10.4777C18.6528 10.5844 18.4608 10.7979 18.3754 11.0006C18.2367 11.3314 18.3434 11.7476 18.6422 11.9504C18.9303 12.1638 19.3678 12.1318 19.6346 11.897C19.5492 12.1425 19.7307 12.4839 19.9654 12.612C20.2002 12.7294 20.4883 12.708 20.7338 12.6013C20.9792 12.4946 21.1926 12.3239 21.3954 12.1638C21.31 12.2172 21.4381 12.3452 21.4701 12.4306C21.5128 12.5266 21.5875 12.5907 21.6729 12.6333C22.1531 12.9108 22.836 12.7507 23.1348 12.2812C23.1242 12.612 23.3696 12.9215 23.7004 12.9321C24.0312 12.9428 24.3407 12.644 24.3407 12.3132C24.5541 12.6333 24.949 12.7187 25.2478 12.4839C25.5466 12.2492 25.5893 11.7476 25.3332 11.4595C25.6106 11.7049 26.1015 11.865 26.3363 11.5662C26.571 11.2674 26.4963 10.7872 26.1869 10.5738C26.5284 10.6485 26.9339 10.5097 26.9766 10.1576C27.0192 9.82676 26.7204 9.46393 26.3683 9.45326Z" fill="#2E2E2E"/>
<path d="M23.6257 13.455C23.6471 14.1593 23.0921 14.7463 22.4092 14.7463C21.7369 14.7463 21.1926 14.1807 21.1926 13.4977C21.1926 13.487 21.1926 13.4657 21.1926 13.455L21.3314 11.5875L21.3527 11.3421L21.4381 10.1789H23.4016L23.487 11.3848L23.5083 11.6516L23.6257 13.455Z" fill="#F5F5FF" stroke="#2E2E2E" stroke-width="0.106714" stroke-miterlimit="10" stroke-linecap="round" stroke-linejoin="round"/>
<path d="M23.5616 12.5373C22.9427 12.612 22.249 12.3132 21.7688 11.7156C21.5767 11.4702 21.4487 11.2034 21.3633 10.9259L21.4166 10.1789H23.3802L23.4656 11.3848L23.4869 11.6516L23.5616 12.5373Z" fill="#2E2E2E"/>
<path d="M24.223 8.42694C23.9776 8.82178 23.9989 9.29132 24.2764 9.47273C24.5538 9.65415 24.9807 9.48341 25.2261 9.08856C25.4716 8.69372 25.4502 8.22418 25.1728 8.04276C24.8846 7.86135 24.4685 8.03209 24.223 8.42694Z" fill="#F5F5FF" stroke="#2E2E2E" stroke-width="0.106714" stroke-miterlimit="10" stroke-linecap="round" stroke-linejoin="round"/>
<path d="M24.9594 8.23594C25.0767 8.27862 25.1728 8.39601 25.1941 8.52407C25.2155 8.65212 25.1621 8.79085 25.0554 8.86555" stroke="#2E2E2E" stroke-width="0.106714" stroke-miterlimit="10" stroke-linecap="round" stroke-linejoin="round"/>
<path d="M20.5624 8.42694C20.8079 8.82178 20.7865 9.29132 20.5091 9.47273C20.2316 9.65415 19.8048 9.48341 19.5593 9.08856C19.3139 8.69372 19.3352 8.22418 19.6127 8.04276C19.9008 7.86135 20.317 8.03209 20.5624 8.42694Z" fill="#F5F5FF" stroke="#2E2E2E" stroke-width="0.106714" stroke-miterlimit="10" stroke-linecap="round" stroke-linejoin="round"/>
<path d="M19.8263 8.23594C19.7089 8.27862 19.6129 8.39601 19.5916 8.52407C19.5702 8.65212 19.6236 8.79085 19.7303 8.86555" stroke="#2E2E2E" stroke-width="0.106714" stroke-miterlimit="10" stroke-linecap="round" stroke-linejoin="round"/>
<path d="M24.8528 7.69257C24.8528 7.72458 24.8528 7.76727 24.8528 7.79928C24.8528 7.906 24.8422 8.00204 24.8208 8.10875L24.8102 8.24748L24.7995 8.32218L24.7888 8.43957C24.7781 8.5036 24.7781 8.5783 24.7675 8.64233C24.7675 8.68501 24.7568 8.7277 24.7568 8.77038C24.7461 8.94113 24.7355 9.11187 24.7141 9.28261V9.29328C24.7034 9.3253 24.7034 9.35731 24.6928 9.38932C24.6821 9.42134 24.6821 9.46402 24.6714 9.49604C24.6608 9.5494 24.6394 9.60275 24.6287 9.64544C24.6181 9.66678 24.6181 9.67745 24.6074 9.6988C24.5967 9.74148 24.5754 9.7735 24.5647 9.81618C24.522 9.91222 24.4687 10.0083 24.4046 10.115C24.1485 10.5205 23.7537 10.8833 23.3695 11.1288C23.3695 11.1288 23.3695 11.1288 23.3588 11.1288C23.3162 11.1608 23.2628 11.1928 23.2201 11.2141C22.7399 11.4809 22.1743 11.4916 21.6834 11.2675C21.5767 11.2248 21.4807 11.1715 21.3846 11.1074C21.0005 10.862 20.6803 10.5098 20.4349 10.115C20.4135 10.083 20.4029 10.0616 20.3815 10.0296C20.3708 10.0189 20.3602 9.9976 20.3602 9.98692C20.3495 9.96558 20.3282 9.93357 20.3175 9.91222C20.2748 9.8482 20.2428 9.7735 20.2108 9.70947C20.2001 9.68812 20.1894 9.66678 20.1894 9.65611C20.072 9.37865 20.0294 9.06918 20.008 8.77038C20.008 8.7277 19.9973 8.67434 19.9973 8.63165C19.9973 8.5783 19.9867 8.52494 19.9867 8.47158L19.9653 8.32218C19.9653 8.31151 19.9547 8.29017 19.9547 8.2795C19.9547 8.25815 19.944 8.24748 19.944 8.22614C19.9333 8.16211 19.9226 8.09808 19.912 8.03405C19.9013 7.92734 19.8906 7.80995 19.8906 7.69257C19.8906 7.6819 19.8906 7.67123 19.8906 7.66055C19.8906 7.58585 19.8906 7.51115 19.9013 7.44713C19.912 7.3831 19.912 7.32974 19.9226 7.26571C19.976 6.90288 20.1041 6.57207 20.2855 6.28394C20.3282 6.20924 20.3815 6.14521 20.4349 6.07051C20.9578 5.39821 21.8542 5.00337 22.7612 5.1421C23.4976 5.25948 24.0845 5.70768 24.4473 6.29461C24.458 6.30528 24.4687 6.32663 24.4793 6.3373C24.6394 6.61476 24.7568 6.92423 24.8102 7.25504C24.8102 7.25504 24.8102 7.25504 24.8102 7.26571C24.8208 7.31907 24.8315 7.3831 24.8315 7.44713C24.8422 7.52183 24.8422 7.58585 24.8422 7.66055C24.8528 7.67123 24.8528 7.6819 24.8528 7.69257Z" fill="#F5F5FF" stroke="#2E2E2E" stroke-width="0.10855" stroke-miterlimit="10" stroke-linecap="round" stroke-linejoin="round"/>
<path d="M22.6865 4.78986C22.9533 5.03531 23.0173 5.44082 22.8359 5.75029C22.6545 6.04909 22.249 6.21983 21.8968 6.12379C22.0035 6.28386 21.9182 6.53998 21.8008 6.70005C21.6834 6.86012 21.4593 6.93482 21.2672 6.89213C21.4379 7.41503 21.0965 8.0233 20.5949 8.30076C20.7336 8.55688 20.6589 8.97306 20.5202 9.22918C20.3815 9.48529 20.104 9.6667 19.8052 9.70939C20.008 9.93349 20.072 10.2856 19.9653 10.5631C19.8586 10.8406 19.5918 11.054 19.293 11.0967C19.0475 11.1394 18.674 11.0753 18.5567 10.8619C18.4499 10.6485 18.514 10.3603 18.7167 10.2109C18.5993 9.97617 18.5353 9.76275 18.514 9.50663C18.4926 9.18649 18.5567 8.86635 18.7487 8.59956C18.9302 8.33278 19.2396 8.14069 19.5704 8.11935C19.2823 7.71383 19.2183 7.23362 19.421 6.78542C19.6345 6.33722 20.0933 6.00641 20.5949 5.93171C20.5949 5.65425 20.7016 5.37679 20.9257 5.20605C21.1498 5.02463 21.47 4.96061 21.7581 5.01396C21.8328 4.84322 22.0996 4.74718 22.281 4.71516C22.4731 4.68315 22.6758 4.75785 22.7932 4.89658L22.6865 4.78986Z" fill="#2E2E2E"/>
<path d="M22.9107 4.91787C22.7186 5.25935 22.7292 5.69688 22.9427 6.02769C23.1561 6.35851 23.5509 6.55059 23.9351 6.51858C23.7537 6.72134 23.7857 7.05215 23.9565 7.26558C24.1272 7.47901 24.4473 7.54304 24.6821 7.41498C24.5647 7.51102 24.4367 7.67109 24.426 7.83116C24.4153 7.99124 24.5007 8.16198 24.6501 8.20466C24.7995 8.24735 24.9916 8.14063 24.9916 7.98056C24.9916 7.53236 25.269 7.11618 25.1196 6.69999C24.9702 6.28381 24.6394 5.93165 24.2232 5.77158C24.0738 5.19532 23.4976 4.90719 22.9107 4.91787Z" fill="#2E2E2E"/>
<path d="M21.2245 9.538C21.7078 9.538 22.0996 9.14622 22.0996 8.66294C22.0996 8.17966 21.7078 7.78789 21.2245 7.78789C20.7413 7.78789 20.3495 8.17966 20.3495 8.66294C20.3495 9.14622 20.7413 9.538 21.2245 9.538Z" stroke="#2E2E2E" stroke-width="0.106714" stroke-miterlimit="10" stroke-linecap="round" stroke-linejoin="round"/>
<path d="M23.6149 9.538C24.0982 9.538 24.49 9.14622 24.49 8.66294C24.49 8.17966 24.0982 7.78789 23.6149 7.78789C23.1316 7.78789 22.7399 8.17966 22.7399 8.66294C22.7399 9.14622 23.1316 9.538 23.6149 9.538Z" stroke="#2E2E2E" stroke-width="0.106714" stroke-miterlimit="10" stroke-linecap="round" stroke-linejoin="round"/>
<path d="M22.0889 8.56702C22.1849 8.51366 22.2916 8.48164 22.4197 8.48164C22.5371 8.48164 22.6545 8.51366 22.7505 8.56702" stroke="#2E2E2E" stroke-width="0.106714" stroke-miterlimit="10" stroke-linecap="round" stroke-linejoin="round"/>
<path d="M20.3495 8.66306L19.8586 8.01211" stroke="#2E2E2E" stroke-width="0.106714" stroke-miterlimit="10" stroke-linecap="round" stroke-linejoin="round"/>
<path d="M24.4686 8.66306L24.9595 8.01211" stroke="#2E2E2E" stroke-width="0.106714" stroke-miterlimit="10" stroke-linecap="round" stroke-linejoin="round"/>
<path d="M22.8252 7.77662C22.8786 7.65924 22.9746 7.56319 23.0813 7.49916C23.1987 7.43514 23.3161 7.40312 23.4441 7.40312C23.5722 7.40312 23.7003 7.42446 23.8176 7.47782C23.935 7.53118 24.0417 7.61655 24.0951 7.73394L23.7536 7.72326C23.6469 7.72326 23.5509 7.72326 23.4548 7.72326C23.3588 7.72326 23.2627 7.73394 23.156 7.74461C23.06 7.75528 22.9533 7.76595 22.8252 7.77662Z" fill="#2E2E2E"/>
<path d="M21.9929 7.77662C21.8648 7.76595 21.7581 7.75528 21.6514 7.74461C21.5447 7.73394 21.4486 7.73394 21.3526 7.72326C21.2565 7.72326 21.1605 7.72326 21.0538 7.72326L20.7123 7.73394C20.7763 7.61655 20.883 7.53118 20.9897 7.47782C21.1071 7.42446 21.2352 7.40312 21.3632 7.40312C21.4913 7.40312 21.6194 7.44581 21.7261 7.49916C21.8435 7.56319 21.9395 7.65924 21.9929 7.77662Z" fill="#2E2E2E"/>
<path d="M22.8893 8.6383C22.9106 8.58494 22.9426 8.54225 22.964 8.4889C23.028 8.39285 23.1027 8.30748 23.1987 8.25413C23.2948 8.1901 23.4228 8.16875 23.5402 8.16875C23.6576 8.17943 23.775 8.21144 23.871 8.2648C23.9244 8.29681 23.9671 8.32883 24.0098 8.37151C24.0524 8.4142 24.0845 8.45688 24.1058 8.51024C24.1058 8.52091 24.1058 8.54225 24.0845 8.54225C24.0738 8.54225 24.0738 8.54225 24.0631 8.54225C24.0098 8.52091 23.9777 8.4889 23.9351 8.45688C23.8924 8.42487 23.8497 8.40353 23.807 8.38218C23.7216 8.3395 23.6256 8.30748 23.5295 8.30748C23.4335 8.29681 23.3375 8.31815 23.2521 8.36084C23.1667 8.40353 23.092 8.46755 23.0173 8.54225C22.9853 8.58494 22.9533 8.6383 22.9213 8.68098C22.9106 8.69165 22.8999 8.69165 22.8893 8.68098C22.8893 8.65964 22.8786 8.64897 22.8893 8.6383Z" fill="#2E2E2E"/>
<path d="M23.2841 8.44677C23.2948 8.34006 23.3908 8.25469 23.4975 8.26536C23.6042 8.27603 23.6896 8.37207 23.6789 8.47879C23.6683 8.5855 23.5722 8.67087 23.4655 8.6602C23.3588 8.64953 23.2734 8.55349 23.2841 8.44677Z" fill="#2E2E2E"/>
<path d="M23.871 8.62808C23.9457 8.60674 24.0097 8.57472 24.0737 8.53204" stroke="#2E2E2E" stroke-width="0.106714" stroke-miterlimit="10" stroke-linecap="round" stroke-linejoin="round"/>
<path d="M21.896 8.67051C21.864 8.62782 21.832 8.57447 21.8 8.53178C21.736 8.45708 21.6506 8.39305 21.5652 8.35037C21.4798 8.30768 21.3838 8.28634 21.2878 8.29701C21.1917 8.30768 21.0957 8.32902 21.0103 8.37171C20.9676 8.39305 20.9249 8.42507 20.8822 8.44641C20.8396 8.47842 20.8075 8.51044 20.7542 8.53178C20.7435 8.54245 20.7222 8.53178 20.7222 8.52111C20.7222 8.51044 20.7222 8.51044 20.7222 8.49977C20.7328 8.44641 20.7755 8.39305 20.8182 8.36104C20.8609 8.31835 20.9036 8.28634 20.9569 8.25432C21.053 8.19029 21.1704 8.15828 21.2878 8.15828C21.4051 8.14761 21.5225 8.17962 21.6292 8.24365C21.736 8.29701 21.8107 8.39305 21.864 8.47842C21.8854 8.53178 21.9174 8.57447 21.9387 8.62782C21.9387 8.63849 21.9387 8.64917 21.928 8.65984C21.9067 8.68118 21.896 8.67051 21.896 8.67051Z" fill="#2E2E2E"/>
<path d="M21.5333 8.44677C21.5226 8.34006 21.4266 8.25469 21.3199 8.26536C21.2132 8.27603 21.1278 8.37207 21.1385 8.47879C21.1491 8.5855 21.2452 8.67087 21.3519 8.6602C21.4693 8.64953 21.544 8.55349 21.5333 8.44677Z" fill="#2E2E2E"/>
<path d="M20.9464 8.62808C20.8717 8.60674 20.8077 8.57472 20.7437 8.53204" stroke="#2E2E2E" stroke-width="0.106714" stroke-miterlimit="10" stroke-linecap="round" stroke-linejoin="round"/>
<path d="M22.0676 9.52739C22.153 9.42067 22.2811 9.35664 22.4091 9.35664C22.5372 9.35664 22.6652 9.42067 22.7506 9.51671" stroke="#2E2E2E" stroke-width="0.0989881" stroke-miterlimit="10" stroke-linecap="round" stroke-linejoin="round"/>
<path d="M22.4304 10.2638C22.5158 10.2638 22.6011 10.2531 22.6972 10.2425C22.7185 10.2425 22.9853 10.1998 22.9853 10.1891C22.9853 10.1891 22.8466 10.0824 22.8039 10.0504L22.7825 10.029C22.7292 9.98635 22.6865 9.94367 22.6118 9.91165C22.5478 9.89031 22.4624 9.90098 22.4197 9.95434C22.377 9.90098 22.2917 9.89031 22.2276 9.90098C22.1636 9.92232 22.1102 9.96501 22.0569 10.0077L22.0355 10.029C21.9929 10.0717 21.8541 10.1678 21.8541 10.1678C21.8541 10.1891 22.0782 10.2318 22.0996 10.2318C22.1956 10.2425 22.2917 10.2531 22.3877 10.2531C22.3984 10.2638 22.409 10.2638 22.4304 10.2638Z" fill="#2E2E2E"/>
<path d="M22.0995 10.4344C22.2916 10.5518 22.5584 10.5518 22.7504 10.445Z" fill="#F5F5FF"/>
<path d="M22.0995 10.4344C22.2916 10.5518 22.5584 10.5518 22.7504 10.445" stroke="#2E2E2E" stroke-width="0.10855" stroke-miterlimit="10" stroke-linecap="round" stroke-linejoin="round"/>
<path d="M20.1361 15.1837C19.5064 14.949 18.9195 14.6075 18.3966 14.202C18.2899 14.1166 18.1725 14.0205 18.0658 13.9245C18.1939 13.7751 18.3539 13.6577 18.5247 13.583C18.5887 13.551 18.6527 13.5297 18.7168 13.5083C18.8235 13.4763 18.9302 13.4656 19.0369 13.4656C19.1543 13.4656 19.2823 13.487 19.3997 13.5297C19.4851 13.5617 19.5705 13.6044 19.6345 13.647C19.6879 13.6791 19.7412 13.7217 19.7839 13.7644C20.1467 14.0952 20.2855 14.6502 20.1361 15.1837Z" fill="#F5F5FF" stroke="#2E2E2E" stroke-width="0.106714" stroke-miterlimit="10" stroke-linecap="round" stroke-linejoin="round"/>
<path d="M20.6055 15.1944L20.5522 15.3331C20.4134 15.2904 20.2747 15.2477 20.136 15.1944C19.5064 14.9596 18.9194 14.6181 18.3965 14.2126C18.2898 14.1272 18.1724 14.0312 18.0657 13.9351C17.991 13.8711 17.927 13.8071 17.8523 13.7324C18.1511 13.2308 18.674 12.932 19.2182 12.932C19.2503 12.932 19.2929 12.932 19.325 12.932C19.453 12.9427 19.5811 12.964 19.7091 13.0174C20.5842 13.3055 20.9897 14.3193 20.6055 15.1944Z" fill="#2E2E2E"/>
<path d="M26.4322 14.213C25.9199 14.6185 25.333 14.9493 24.7141 15.1841C24.522 14.4798 24.8315 13.7435 25.4504 13.53C25.5678 13.4874 25.6958 13.466 25.8132 13.466C25.9199 13.466 26.0267 13.4767 26.1334 13.5087C26.2081 13.53 26.2828 13.5621 26.3575 13.5941C26.5069 13.6688 26.6563 13.7862 26.7737 13.9142C26.7203 13.9569 26.6776 13.9996 26.6243 14.0423C26.6349 14.0529 26.6349 14.0743 26.6349 14.085C26.6349 14.1383 26.5922 14.1917 26.5282 14.1917C26.5069 14.1917 26.4855 14.181 26.4642 14.1703C26.4535 14.2023 26.4428 14.2023 26.4322 14.213Z" fill="#F5F5FF" stroke="#2E2E2E" stroke-width="0.106714" stroke-miterlimit="10" stroke-linecap="round" stroke-linejoin="round"/>
<path d="M26.4322 14.2128C25.92 14.6184 25.3331 14.9492 24.7141 15.1839C24.5754 15.2373 24.4367 15.28 24.298 15.3227L24.2446 15.1839C23.8711 14.3089 24.2766 13.2951 25.1303 12.9963C25.2904 12.9429 25.4398 12.9109 25.5999 12.9109H25.6212C26.1655 12.9109 26.6884 13.2097 26.9872 13.7113C26.9231 13.7753 26.8484 13.85 26.7737 13.914C26.7204 13.9567 26.6777 13.9994 26.6243 14.0421C26.635 14.0528 26.635 14.0741 26.635 14.0848C26.635 14.1381 26.5923 14.1915 26.5283 14.1915C26.5069 14.1915 26.4856 14.1808 26.4643 14.1702C26.4536 14.2022 26.4429 14.2022 26.4322 14.2128Z" fill="#2E2E2E"/>
<path d="M26.6243 14.1059C26.6243 14.1593 26.5816 14.2127 26.5176 14.2127C26.4963 14.2127 26.4749 14.202 26.4536 14.1913C26.4429 14.1806 26.4322 14.17 26.4216 14.1593C26.4109 14.1486 26.4109 14.1273 26.4109 14.1059C26.4109 14.0846 26.4109 14.0739 26.4216 14.0526C26.4429 14.0206 26.4749 13.9992 26.5176 13.9992C26.5603 13.9992 26.603 14.0206 26.6136 14.0633C26.6243 14.0739 26.6243 14.0846 26.6243 14.1059Z" fill="#F5F5FF"/>
<path d="M26.4323 14.1595C26.4323 14.1808 26.4323 14.1915 26.4323 14.2128C25.92 14.6184 25.3331 14.9492 24.7142 15.1839C24.5754 15.2373 24.4367 15.28 24.298 15.3227C23.711 15.5041 23.0814 15.6001 22.4305 15.6001C21.7795 15.6001 21.1499 15.5041 20.563 15.3227C20.4242 15.28 20.2855 15.2373 20.1468 15.1839C19.5172 14.9492 18.9302 14.6077 18.4073 14.2022C18.418 13.9781 18.4607 13.7753 18.5354 13.5832C18.5461 13.5619 18.5461 13.5512 18.5567 13.5299C18.6955 13.2311 18.9516 13.007 19.3144 12.9323C19.3251 12.9323 19.3358 12.9323 19.3464 12.9323C19.4318 12.9216 19.5172 12.9109 19.6132 12.9109H25.3438C25.4291 12.9109 25.5145 12.9216 25.5892 12.9323C25.6106 12.9323 25.6212 12.9429 25.6426 12.9429C25.9841 13.0176 26.2082 13.2311 26.3255 13.5192C26.3362 13.5512 26.3469 13.5726 26.3576 13.6046C26.4002 13.7433 26.4323 13.8927 26.4323 14.0528C26.4323 14.0848 26.4323 14.1168 26.4323 14.1595Z" fill="#2E2E2E"/>
<path d="M23.5617 12.8362L24.1379 12.9215C23.8818 13.5938 23.2202 14.1061 22.4945 14.1381C21.7155 14.1701 20.9578 13.6365 20.691 12.9215L21.2566 12.7828" fill="#F5F5FF"/>
<path d="M23.5617 12.8362L24.1379 12.9215C23.8818 13.5938 23.2202 14.1061 22.4945 14.1381C21.7155 14.1701 20.9578 13.6365 20.691 12.9215L21.2566 12.7828" stroke="#2E2E2E" stroke-width="0.106714" stroke-miterlimit="10" stroke-linecap="round" stroke-linejoin="round"/>
<path d="M25.5145 13.7218C25.5145 13.7965 25.4612 13.8499 25.3865 13.8499C25.3118 13.8499 25.2584 13.7965 25.2584 13.7218C25.2584 13.6471 25.3118 13.5938 25.3865 13.5938C25.4612 13.5938 25.5145 13.6471 25.5145 13.7218Z" fill="#F5F5FF"/>
<path d="M19.8266 13.8926C19.8266 14.0313 19.7199 14.138 19.5811 14.138C19.4424 14.138 19.3357 14.0313 19.3357 13.8926C19.3357 13.7539 19.4424 13.6472 19.5811 13.6472C19.7092 13.6365 19.8266 13.7539 19.8266 13.8926Z" fill="#F5F5FF"/>
<path d="M24.522 14.9917C24.522 15.0878 24.4473 15.1518 24.362 15.1518C24.2766 15.1518 24.2019 15.0771 24.2019 14.9917C24.2019 14.9063 24.2766 14.8316 24.362 14.8316C24.4473 14.8316 24.522 14.8957 24.522 14.9917Z" fill="#F5F5FF"/>
<path d="M21.6942 15.2478C21.8002 15.2478 21.8862 15.1618 21.8862 15.0558C21.8862 14.9497 21.8002 14.8637 21.6942 14.8637C21.5881 14.8637 21.5021 14.9497 21.5021 15.0558C21.5021 15.1618 21.5881 15.2478 21.6942 15.2478Z" fill="#F5F5FF"/>
</g>
<g clip-path="url(#clip3_7_53964)">
<path d="M28.8 22.3842C28.8 24.0487 28.1558 25.5658 27.1102 26.7035C27.0574 26.7667 27.0046 26.8194 26.9413 26.8826C26.7195 27.1039 26.4871 27.304 26.2442 27.4937C25.8957 27.757 25.5155 27.9783 25.1248 28.1679C25.0614 28.1995 24.9875 28.2311 24.9241 28.2627C24.6917 28.3575 24.4594 28.4523 24.2059 28.5156C24.0792 28.5577 23.9525 28.5893 23.8257 28.6209C23.3716 28.7263 22.9069 28.7789 22.4211 28.7789H22.4C21.9564 28.7789 21.534 28.7368 21.1116 28.6525C20.932 28.6209 20.763 28.5682 20.5941 28.5261C20.3512 28.4523 20.1083 28.3681 19.8759 28.2733C19.8231 28.2522 19.7597 28.2206 19.7069 28.1995C19.3056 28.0099 18.9254 27.7886 18.5663 27.5253C18.3129 27.3356 18.07 27.1249 17.8482 26.9037C17.7954 26.851 17.732 26.7878 17.6792 26.7246C16.6442 25.5763 16 24.0593 16 22.3842C16 18.855 18.862 16 22.4 16C25.938 16 28.8 18.855 28.8 22.3842Z" fill="#8A51D2"/>
<path d="M26.9008 26.3592C26.6082 26.6595 26.2778 26.9212 25.9097 27.1522C25.6076 27.3447 25.2772 27.5141 24.9185 27.6527L24.7958 27.4217C24.4748 26.7981 24.7769 26.1051 25.4566 25.9126C25.5698 25.8818 25.6925 25.8664 25.8153 25.8664C25.8247 25.8664 25.8341 25.8664 25.8436 25.8664C26.2495 25.8741 26.6459 26.0589 26.9008 26.3592Z" fill="#F5F5FF" stroke="#2E2E2E" stroke-width="0.0757522" stroke-miterlimit="10" stroke-linecap="round" stroke-linejoin="round"/>
<path d="M26.8631 26.1591L26.9669 26.2977C26.948 26.3208 26.9292 26.3439 26.9103 26.3593C26.6176 26.6595 26.2873 26.9213 25.9191 27.1523C25.6171 27.3448 25.2867 27.5142 24.928 27.6528C24.7486 27.7221 24.5693 27.7837 24.3805 27.8376L24.0784 27.2601C23.7008 26.5441 24.1067 25.7356 24.9563 25.4892C25.1168 25.443 25.2772 25.4199 25.4377 25.4199C25.5038 25.4199 25.5604 25.4199 25.6265 25.4276C26.1362 25.4892 26.6082 25.751 26.8631 26.1591Z" fill="#2E2E2E"/>
<path d="M20.0569 27.422L19.9342 27.653C19.5944 27.5221 19.2829 27.3604 18.9808 27.1756C18.5938 26.9369 18.254 26.6674 17.9519 26.3595C18.2162 26.0515 18.6221 25.859 19.0374 25.859H19.0469C19.1696 25.859 19.2829 25.8744 19.3962 25.9052C20.0758 26.1054 20.3779 26.7983 20.0569 27.422Z" fill="#F5F5FF" stroke="#2E2E2E" stroke-width="0.0757522" stroke-miterlimit="10" stroke-linecap="round" stroke-linejoin="round"/>
<path d="M20.7839 27.2602L20.4819 27.8377C20.2931 27.7838 20.1137 27.7222 19.9344 27.6529C19.5945 27.522 19.283 27.3603 18.981 27.1755C18.594 26.9368 18.2541 26.6674 17.9521 26.3594C17.9332 26.3363 17.9143 26.3209 17.886 26.2978L17.9898 26.1592C18.2541 25.7357 18.7544 25.4662 19.2925 25.4277C19.3302 25.4277 19.3774 25.4277 19.4152 25.4277C19.5757 25.4277 19.7456 25.4508 19.906 25.497C20.7556 25.7357 21.1615 26.5442 20.7839 27.2602Z" fill="#2E2E2E"/>
<path d="M23.946 21.299C23.71 21.6766 23.7383 22.1203 23.9932 22.2902C24.2575 22.4601 24.6539 22.2996 24.8899 21.922C25.1259 21.5445 25.0976 21.1008 24.8427 20.9309C24.5879 20.761 24.182 20.9215 23.946 21.299Z" fill="#F5F5FF" stroke="#2E2E2E" stroke-width="0.0757522" stroke-miterlimit="10" stroke-linecap="round" stroke-linejoin="round"/>
<path d="M24.6541 21.1113C24.7673 21.1585 24.8523 21.2624 24.8712 21.3851C24.89 21.5078 24.8428 21.6305 24.7484 21.706" stroke="#2E2E2E" stroke-width="0.0757522" stroke-miterlimit="10" stroke-linecap="round" stroke-linejoin="round"/>
<path d="M20.8029 21.299C21.0389 21.6766 21.0106 22.1203 20.7557 22.2902C20.4914 22.4601 20.0949 22.2996 19.8589 21.922C19.623 21.5445 19.6513 21.1008 19.9061 20.9309C20.161 20.761 20.5669 20.9215 20.8029 21.299Z" fill="#F5F5FF" stroke="#2E2E2E" stroke-width="0.0757522" stroke-miterlimit="10" stroke-linecap="round" stroke-linejoin="round"/>
<path d="M20.095 21.1113C19.9817 21.1585 19.8968 21.2624 19.8779 21.3851C19.859 21.5078 19.9062 21.6305 20.0006 21.706" stroke="#2E2E2E" stroke-width="0.0757522" stroke-miterlimit="10" stroke-linecap="round" stroke-linejoin="round"/>
<path d="M23.5309 25.5013C23.5498 26.1337 23.0401 26.6623 22.4076 26.6623C21.7846 26.6623 21.2843 26.162 21.2843 25.539C21.2843 25.5296 21.2843 25.5107 21.2843 25.5013L21.407 23.8305L21.4353 23.4057L21.5014 22.575H23.3138L23.4176 23.8871L23.4837 24.8405L23.5309 25.5013Z" fill="#F5F5FF" stroke="#2E2E2E" stroke-width="0.0791363" stroke-miterlimit="10" stroke-linecap="round" stroke-linejoin="round"/>
<path d="M23.4837 24.8405C22.889 24.8782 22.2377 24.5856 21.794 24.0192C21.643 23.8305 21.5297 23.6228 21.4542 23.4057L21.5203 22.575H23.3138L23.4176 23.8871L23.4837 24.8405Z" fill="#2E2E2E"/>
<path d="M24.3522 22.33C24.2861 22.5094 24.1823 22.6982 24.0596 22.8775C23.8236 23.2268 23.5121 23.5572 23.2006 23.7648C22.8607 23.9914 22.4076 24.0669 22.0206 23.9347C21.7186 23.8309 21.4637 23.6138 21.2371 23.3778C20.9539 23.0852 20.6991 22.7642 20.5575 22.3867C20.4442 22.094 20.397 21.7637 20.3876 21.4333C20.3781 21.2539 20.3876 21.084 20.397 20.9047C20.4065 20.612 20.4348 20.3288 20.4631 20.0645C20.5197 19.4415 20.8973 18.8468 21.4448 18.5259C21.9734 18.2144 22.6531 18.1672 23.2194 18.4032C23.7858 18.6392 24.2295 19.1583 24.3805 19.753C24.4843 20.1495 24.456 20.5648 24.456 20.9802C24.456 21.0085 24.456 21.0274 24.456 21.0557C24.456 21.1784 24.4655 21.3011 24.4655 21.4238C24.4655 21.7353 24.4655 22.0374 24.3522 22.33Z" fill="#F5F5FF" stroke="#2E2E2E" stroke-width="0.0757522" stroke-miterlimit="10" stroke-linecap="round" stroke-linejoin="round"/>
<path d="M22.9361 20.5448C23.021 20.4881 23.1154 20.4598 23.2193 20.4315C23.3231 20.4032 23.4269 20.3938 23.5402 20.3938C23.6535 20.3938 23.7668 20.4221 23.8706 20.4787C23.9744 20.5353 24.0594 20.6109 24.0971 20.7147C23.9933 20.6769 23.8989 20.6675 23.8139 20.6581C23.729 20.6581 23.644 20.6675 23.5591 20.6864C23.3892 20.7147 23.2193 20.7713 23.021 20.7997C22.9455 20.8091 22.8794 20.7619 22.87 20.6864C22.87 20.6203 22.8889 20.5731 22.9361 20.5448Z" fill="#2E2E2E"/>
<path d="M22.0203 20.7903C21.8221 20.762 21.6522 20.7053 21.4823 20.677C21.3973 20.6581 21.3124 20.6487 21.2274 20.6487C21.1424 20.6487 21.048 20.6676 20.9442 20.7053C20.9914 20.6109 21.0669 20.526 21.1708 20.4693C21.2746 20.4127 21.3879 20.3938 21.5011 20.3844C21.6144 20.3844 21.7183 20.3938 21.8221 20.4221C21.9259 20.4505 22.0203 20.4882 22.1053 20.5354C22.1714 20.5732 22.1902 20.6581 22.1525 20.7148C22.1242 20.7714 22.077 20.7997 22.0203 20.7903Z" fill="#2E2E2E"/>
<path d="M22.0105 21.4405C21.9728 21.4122 21.935 21.3744 21.8972 21.3461C21.8595 21.3178 21.8217 21.2895 21.784 21.2706C21.699 21.2234 21.6141 21.2045 21.5197 21.2045C21.4253 21.2045 21.3403 21.2234 21.2554 21.2612C21.2176 21.2801 21.1798 21.2989 21.1326 21.3273C21.0949 21.3556 21.0571 21.3839 21.0005 21.4028C20.991 21.4028 20.9722 21.3933 20.9722 21.3839C20.9722 21.3744 20.9722 21.3744 20.9722 21.365C20.991 21.3178 21.0288 21.2801 21.0666 21.2517C21.1043 21.214 21.1515 21.1857 21.1987 21.1573C21.2931 21.1101 21.4064 21.0818 21.5102 21.0913C21.6141 21.1007 21.7273 21.129 21.8123 21.1951C21.8595 21.2234 21.8972 21.2612 21.935 21.2989C21.9633 21.3367 22.0011 21.3744 22.0294 21.4122C22.0388 21.4216 22.0388 21.4311 22.0294 21.4405C22.0294 21.45 22.02 21.45 22.0105 21.4405Z" fill="#2E2E2E"/>
<path d="M21.6802 21.2898C21.6708 21.1954 21.5764 21.1294 21.482 21.1388C21.3876 21.1482 21.3215 21.2426 21.331 21.337C21.3404 21.4314 21.4348 21.4975 21.5292 21.4881C21.633 21.4692 21.6991 21.3842 21.6802 21.2898Z" fill="#2E2E2E"/>
<path d="M22.0012 21.4316C21.9162 21.4788 21.8218 21.5072 21.7274 21.5166" stroke="#2E2E2E" stroke-width="0.0708814" stroke-miterlimit="10" stroke-linecap="round" stroke-linejoin="round"/>
<path d="M22.011 21.2253C21.9071 21.1026 21.7467 21.0176 21.5862 21.0082" stroke="#2E2E2E" stroke-width="0.0708814" stroke-miterlimit="10" stroke-linecap="round" stroke-linejoin="round"/>
<path d="M22.8977 21.4122C22.9261 21.3744 22.9638 21.3367 22.9921 21.2989C23.0299 21.2612 23.0677 21.2234 23.1149 21.1951C23.1998 21.1385 23.3131 21.1007 23.4169 21.0913C23.5208 21.0818 23.634 21.1101 23.7284 21.1573C23.7756 21.1762 23.8228 21.214 23.8606 21.2517C23.8983 21.2895 23.9361 21.3178 23.955 21.365C23.9644 21.3744 23.955 21.3933 23.9455 21.3933C23.9455 21.3933 23.9361 21.3933 23.9267 21.3933C23.87 21.3839 23.8323 21.3461 23.7945 21.3178C23.7567 21.2895 23.719 21.2706 23.6718 21.2517C23.5868 21.214 23.5019 21.1951 23.4075 21.1951C23.3131 21.1951 23.2281 21.214 23.1432 21.2612C23.1054 21.2801 23.0677 21.3084 23.0299 21.3367C22.9921 21.365 22.9544 21.4028 22.9166 21.4311C22.9072 21.4405 22.8977 21.4405 22.8883 21.4311C22.8883 21.4311 22.8883 21.4216 22.8977 21.4122Z" fill="#2E2E2E"/>
<path d="M23.2471 21.2898C23.2566 21.1954 23.3509 21.1294 23.4453 21.1388C23.5397 21.1482 23.6058 21.2426 23.5964 21.337C23.5869 21.4314 23.4925 21.4975 23.3981 21.4881C23.3037 21.4692 23.2377 21.3842 23.2471 21.2898Z" fill="#2E2E2E"/>
<path d="M22.9261 21.4316C23.0111 21.4788 23.1055 21.5072 23.1999 21.5166" stroke="#2E2E2E" stroke-width="0.0708814" stroke-miterlimit="10" stroke-linecap="round" stroke-linejoin="round"/>
<path d="M22.9171 21.2253C23.0209 21.1026 23.1814 21.0176 23.3419 21.0082" stroke="#2E2E2E" stroke-width="0.0708814" stroke-miterlimit="10" stroke-linecap="round" stroke-linejoin="round"/>
<path d="M22.3507 22.7263C22.379 22.7546 22.4262 22.7735 22.464 22.7735C22.5017 22.7735 22.5489 22.7546 22.5773 22.7263C22.6245 22.6791 22.7094 22.7074 22.7755 22.7169C22.8416 22.7263 22.9076 22.7357 22.9737 22.7263C23.0209 22.7169 23.0587 22.6885 23.087 22.6508" stroke="#2E2E2E" stroke-width="0.0630938" stroke-miterlimit="10" stroke-linecap="round" stroke-linejoin="round"/>
<path d="M22.3508 22.7261C22.3036 22.6789 22.2186 22.7072 22.1526 22.7167C22.0865 22.7261 22.0204 22.7355 21.9543 22.7261C21.8977 22.7167 21.8505 22.6789 21.8411 22.6223" stroke="#2E2E2E" stroke-width="0.0630938" stroke-miterlimit="10" stroke-linecap="round" stroke-linejoin="round"/>
<path d="M22.1619 22.9148C22.3318 22.9715 22.5206 22.9809 22.6905 22.9337" stroke="#2E2E2E" stroke-width="0.0630938" stroke-miterlimit="10" stroke-linecap="round" stroke-linejoin="round"/>
<path d="M22.4548 23.4906V23.8021" stroke="#2E2E2E" stroke-width="0.0757522" stroke-miterlimit="10" stroke-linecap="round" stroke-linejoin="round"/>
<path d="M22.4641 22.0838V21.423" stroke="#2E2E2E" stroke-width="0.0757522" stroke-miterlimit="10" stroke-linecap="round" stroke-linejoin="round"/>
<path d="M22.2471 22.216L22.3603 22.2915C22.4359 22.3387 22.5114 22.3387 22.5869 22.2915L22.7002 22.216" stroke="#2E2E2E" stroke-width="0.0811469" stroke-miterlimit="10" stroke-linecap="round" stroke-linejoin="round"/>
<path d="M24.4465 20.9892C24.3993 20.9703 24.3521 20.9325 24.3143 20.8948C24.2577 20.8287 24.2199 20.7343 24.1916 20.6493C24.0595 20.2623 24.05 19.7998 24.1255 19.4033C23.663 19.4128 23.2193 19.1201 23.0211 18.7142C22.4831 19.0446 21.8695 19.1862 21.237 19.1485C21.2182 19.8187 20.8878 20.4794 20.3781 20.9136C20.3875 20.621 20.4158 20.3378 20.4441 20.0735C20.5008 19.4505 20.8783 18.8558 21.4258 18.5349C21.9545 18.2234 22.6341 18.1762 23.2005 18.4122C23.7668 18.6482 24.2105 19.1673 24.3615 19.762C24.4748 20.1679 24.4465 20.5833 24.4465 20.9892Z" fill="#2E2E2E"/>
<path d="M20.407 19.5858C20.6596 18.793 21.5316 17.9102 22.4273 17.9087C23.3304 17.918 24.1749 18.8154 24.4467 19.6093C23.0909 19.8482 21.7537 19.899 20.407 19.5858Z" fill="#F5F5FF" stroke="#2E2E2E" stroke-width="0.0815009" stroke-miterlimit="10" stroke-linecap="round" stroke-linejoin="round"/>
<path d="M24.5914 19.9168C23.9675 20.2827 23.1759 20.3758 22.4273 20.3608C21.67 20.3445 20.9175 20.2335 20.1574 20.2358C20.0793 20.0907 20.0604 19.9734 20.1015 19.8173C20.1413 19.6705 20.2518 19.5341 20.3909 19.4497C21.7843 19.5694 23.1909 19.5384 24.542 19.2702C24.6142 19.2713 24.747 19.7203 24.5914 19.9168Z" fill="#F5F5FF" stroke="#2E2E2E" stroke-width="0.0707257" stroke-miterlimit="10" stroke-linecap="round" stroke-linejoin="round"/>
<path d="M20.546 20.236C20.5041 20.0294 20.5549 19.8079 20.6873 19.6461" stroke="#2E2E2E" stroke-width="0.0757522" stroke-miterlimit="10" stroke-linecap="round" stroke-linejoin="round"/>
<path d="M24.0583 19.5426C24.1514 19.709 24.1947 19.9062 24.1923 20.1062" stroke="#2E2E2E" stroke-width="0.0757522" stroke-miterlimit="10" stroke-linecap="round" stroke-linejoin="round"/>
<path d="M23.2673 19.693C23.3474 19.8861 23.3865 20.1113 23.3725 20.3287" stroke="#2E2E2E" stroke-width="0.0757522" stroke-miterlimit="10" stroke-linecap="round" stroke-linejoin="round"/>
<path d="M21.2213 19.7058C21.1481 19.8954 21.1518 20.1154 21.2435 20.2912" stroke="#2E2E2E" stroke-width="0.0757522" stroke-miterlimit="10" stroke-linecap="round" stroke-linejoin="round"/>
<path d="M22.2517 19.7719C22.2861 19.9678 22.294 20.1598 22.265 20.3559" stroke="#2E2E2E" stroke-width="0.0757522" stroke-miterlimit="10" stroke-linecap="round" stroke-linejoin="round"/>
<path d="M21.787 19.8563C21.7432 20.0311 21.7789 20.2177 21.885 20.3574C21.8863 20.348 21.8966 20.34 21.8979 20.3307" stroke="#2E2E2E" stroke-width="0.0757522" stroke-miterlimit="10" stroke-linecap="round" stroke-linejoin="round"/>
<path d="M22.8495 19.8887C22.8642 20.034 22.851 20.1847 22.8038 20.3209" stroke="#2E2E2E" stroke-width="0.0757522" stroke-miterlimit="10" stroke-linecap="round" stroke-linejoin="round"/>
<path d="M25.8625 27.2609C25.5621 27.4621 25.2335 27.6391 24.8768 27.784C24.6984 27.8564 24.52 27.9208 24.3323 27.9771C23.7314 28.1622 23.0743 28.2668 22.3983 28.2668C21.7224 28.2668 21.0652 28.1622 20.4644 27.9771C20.2766 27.9208 20.0982 27.8564 19.9199 27.784C19.5819 27.6472 19.2721 27.4782 18.9717 27.285L19.028 25.9089L19.0468 25.5226L19.2815 25.4502L20.624 25.0317L20.8868 24.9513L21.0183 24.911L21.3093 24.8225L21.3563 24.8064L21.4595 24.7742H23.4029L23.4404 24.7903L23.4686 24.7984L23.8159 24.903L23.9474 24.9432L24.2102 25.0237L25.5903 25.4502L25.8062 25.5146L25.825 25.9009L25.8625 27.2609Z" fill="#2E2E2E"/>
</g>
<defs>
<clipPath id="clip0_7_53964">
<rect width="12.8" height="12.8" fill="white" transform="translate(3.19995 3.2)"/>
</clipPath>
<clipPath id="clip1_7_53964">
<rect width="12.8" height="12.8" fill="white" transform="translate(3.19995 16)"/>
</clipPath>
<clipPath id="clip2_7_53964">
<rect width="12.8" height="12.8" fill="white" transform="translate(16 3.2)"/>
</clipPath>
<clipPath id="clip3_7_53964">
<rect width="12.8" height="12.8" fill="white" transform="translate(16 16)"/>
</clipPath>
</defs>
</svg>
