<svg width="16" height="23" viewBox="0 0 16 23" fill="none" xmlns="http://www.w3.org/2000/svg">
<path d="M8 14.5C9.06087 14.5 10.0783 14.0786 10.8284 13.3284C11.5786 12.5783 12 11.5609 12 10.5V4.5C12 3.43913 11.5786 2.42172 10.8284 1.67157C10.0783 0.921427 9.06087 0.5 8 0.5C6.93913 0.5 5.92172 0.921427 5.17157 1.67157C4.42143 2.42172 4 3.43913 4 4.5V10.5C4 11.5609 4.42143 12.5783 5.17157 13.3284C5.92172 14.0786 6.93913 14.5 8 14.5ZM6 4.5C6 3.96957 6.21071 3.46086 6.58579 3.08579C6.96086 2.71071 7.46957 2.5 8 2.5C8.53043 2.5 9.03914 2.71071 9.41421 3.08579C9.78929 3.46086 10 3.96957 10 4.5V10.5C10 11.0304 9.78929 11.5391 9.41421 11.9142C9.03914 12.2893 8.53043 12.5 8 12.5C7.46957 12.5 6.96086 12.2893 6.58579 11.9142C6.21071 11.5391 6 11.0304 6 10.5V4.5ZM16 10.5C16 10.2348 15.8946 9.98043 15.7071 9.79289C15.5196 9.60536 15.2652 9.5 15 9.5C14.7348 9.5 14.4804 9.60536 14.2929 9.79289C14.1054 9.98043 14 10.2348 14 10.5C14 12.0913 13.3679 13.6174 12.2426 14.7426C11.1174 15.8679 9.5913 16.5 8 16.5C6.4087 16.5 4.88258 15.8679 3.75736 14.7426C2.63214 13.6174 2 12.0913 2 10.5C2 10.2348 1.89464 9.98043 1.70711 9.79289C1.51957 9.60536 1.26522 9.5 1 9.5C0.734784 9.5 0.48043 9.60536 0.292893 9.79289C0.105357 9.98043 0 10.2348 0 10.5C0.00176579 12.4473 0.713722 14.3271 2.0024 15.787C3.29107 17.2469 5.06798 18.1866 7 18.43V20.5H5C4.73478 20.5 4.48043 20.6054 4.29289 20.7929C4.10536 20.9804 4 21.2348 4 21.5C4 21.7652 4.10536 22.0196 4.29289 22.2071C4.48043 22.3946 4.73478 22.5 5 22.5H11C11.2652 22.5 11.5196 22.3946 11.7071 22.2071C11.8946 22.0196 12 21.7652 12 21.5C12 21.2348 11.8946 20.9804 11.7071 20.7929C11.5196 20.6054 11.2652 20.5 11 20.5H9V18.43C10.932 18.1866 12.7089 17.2469 13.9976 15.787C15.2863 14.3271 15.9982 12.4473 16 10.5Z" fill="#9A9A9A"/>
</svg>
