<svg width="20" height="20" viewBox="0 0 20 20" fill="none" xmlns="http://www.w3.org/2000/svg">
<path d="M3.82735 8.02567C4.22825 8.15931 4.54284 8.47389 4.67647 8.87479C4.81247 9.2828 5.38959 9.2828 5.52559 8.87479C5.65923 8.47389 5.97382 8.15931 6.37472 8.02567C6.78273 7.88967 6.78273 7.31255 6.37472 7.17655C5.97382 7.04292 5.65923 6.72833 5.52559 6.32743C5.38959 5.91942 4.81247 5.91942 4.67647 6.32743C4.54284 6.72833 4.22825 7.04292 3.82735 7.17655C3.41934 7.31255 3.41934 7.88967 3.82735 8.02567Z" fill="#FFB282"/>
<path fill-rule="evenodd" clip-rule="evenodd" d="M4.16658 3.33334C2.32564 3.33334 0.833252 4.82573 0.833252 6.66668V13.3333C0.833252 15.1743 2.32564 16.6667 4.16658 16.6667H12.4999C14.077 16.6667 15.3982 15.5715 15.7446 14.1002L16.4999 14.6667C17.5986 15.4907 19.1666 14.7068 19.1666 13.3333V6.66668C19.1666 5.29327 17.5986 4.5093 16.4999 5.33334L15.7446 5.89982C15.3982 4.42852 14.077 3.33334 12.4999 3.33334H4.16658ZM17.4999 13.3333L15.8333 12.0833V7.91668L17.4999 6.66668V13.3333ZM2.49992 6.66668C2.49992 5.7462 3.24611 5.00001 4.16658 5.00001H12.4999C13.4204 5.00001 14.1666 5.7462 14.1666 6.66668V13.3333C14.1666 14.2538 13.4204 15 12.4999 15H4.16658C3.24611 15 2.49992 14.2538 2.49992 13.3333V6.66668Z" fill="#FFB282"/>
</svg>
