<svg width="16" height="16" viewBox="0 0 16 16" fill="none" xmlns="http://www.w3.org/2000/svg">
<path fill-rule="evenodd" clip-rule="evenodd" d="M14.7248 0.500453C15.1224 0.486742 15.4615 0.78589 15.4976 1.18211C15.5986 2.2941 15.4881 3.20982 15.17 3.94889C14.8455 4.70265 14.3258 5.22342 13.705 5.56387C12.9095 6.00011 11.9589 6.13063 11.0667 6.15058C11.3106 7.00962 11.1686 7.79399 10.7006 8.39193C10.0815 9.18305 8.95337 9.5024 8.04023 9.04583C7.13143 8.59143 6.48303 8.59821 5.996 8.78238C5.48101 8.97713 5.00829 9.42196 4.5727 10.1016C3.80772 11.2952 3.3234 12.9305 2.9116 14.3209C2.84556 14.5439 2.78132 14.7608 2.71815 14.9684C2.60404 15.3433 2.22051 15.5672 1.83794 15.4821C1.45537 15.3971 1.20275 15.0319 1.25818 14.6439C1.58419 12.3618 2.6328 8.94047 4.74017 6.03185C6.86072 3.10502 10.0871 0.660374 14.7248 0.500453ZM5.67792 7.30704C6.58964 7.03067 7.60645 7.15189 8.71105 7.70419C8.92291 7.81012 9.29478 7.75447 9.51939 7.46746C9.68518 7.25562 9.87891 6.73199 9.2516 5.79103C9.09424 5.55499 9.08353 5.25037 9.22392 5.00385C9.3643 4.75734 9.63177 4.61113 9.91506 4.62604C11.1239 4.68967 12.2268 4.66375 12.9838 4.24865C13.3317 4.05784 13.6089 3.78174 13.7922 3.35581C13.9287 3.03879 14.023 2.61506 14.033 2.04827C10.3651 2.40504 7.75849 4.42251 5.95486 6.91192C5.86027 7.04248 5.76796 7.17425 5.67792 7.30704Z" fill="#FFB282"/>
<path d="M1.70954 3.98731C1.58927 3.6265 1.30614 3.34337 0.945328 3.2231C0.57812 3.1007 0.57812 2.5813 0.945328 2.45889C1.30614 2.33862 1.58927 2.05549 1.70954 1.69468C1.83194 1.32747 2.35135 1.32747 2.47375 1.69468C2.59402 2.05549 2.87715 2.33862 3.23796 2.45889C3.60517 2.5813 3.60517 3.1007 3.23796 3.2231C2.87715 3.34337 2.59402 3.6265 2.47375 3.98731C2.35135 4.35452 1.83194 4.35452 1.70954 3.98731Z" fill="#FFB282"/>
<path d="M8.44531 12.9731C8.80612 13.0934 9.08924 13.3765 9.20952 13.7373C9.33192 14.1045 9.85132 14.1045 9.97373 13.7373C10.094 13.3765 10.3771 13.0934 10.7379 12.9731C11.1051 12.8507 11.1051 12.3313 10.7379 12.2089C10.3771 12.0886 10.094 11.8055 9.97373 11.4447C9.85132 11.0775 9.33192 11.0775 9.20952 11.4447C9.08924 11.8055 8.80612 12.0886 8.44531 12.2089C8.0781 12.3313 8.0781 12.8507 8.44531 12.9731Z" fill="#FFB282"/>
</svg>
